<svg xmlns="http://www.w3.org/2000/svg" viewBox="0 0 326.67 333.5"><defs><style>.a{fill:#fc7c02;}.b{fill:#fc8105;}.c{fill:#fc8607;}.d{fill:#fc8c0a;}.e{fill:#fc910c;}.f{fill:#fc970f;}.g{fill:#fc9d12;}.h{fill:#fca315;}.i{fill:#fca818;}.j{fill:#fcae1a;}.k{fill:#fcb41d;}.l{fill:#fcb920;}.m{fill:#fcbf23;}.n{fill:#fcc526;}.o{fill:#fcca28;}.p{fill:#fcd02b;}.q{fill:#fcd62e;}.r{fill:#fcdb31;}.s{fill:#fce134;}.t{fill:#fce736;}.u{fill:#f8e746;}.v{fill:#f4e658;}.w{fill:#f0e46a;}.x{fill:#ece37c;}.y{fill:#e8e28e;}.z{fill:#e4e0a0;}.aa{fill:#e0dfb2;}.ab{fill:#dcdec4;}.ac{fill:#d8dcd6;}</style></defs><title>Aktiv 1</title><rect class="a" x="198.33" y="322" width="11.67" height="11.5"/><rect class="a" x="186.67" y="322" width="11.67" height="11.5"/><rect class="a" x="175" y="322" width="11.67" height="11.5"/><rect class="a" x="163.33" y="322" width="11.67" height="11.5"/><rect class="a" x="151.67" y="322" width="11.67" height="11.5"/><rect class="a" x="140" y="322" width="11.67" height="11.5"/><rect class="a" x="128.33" y="322" width="11.67" height="11.5"/><rect class="a" x="116.67" y="322" width="11.67" height="11.5"/><rect class="b" x="198.33" y="310.5" width="11.67" height="11.5"/><rect class="b" x="186.67" y="310.5" width="11.67" height="11.5"/><rect class="b" x="175" y="310.5" width="11.67" height="11.5"/><rect class="b" x="163.33" y="310.5" width="11.67" height="11.5"/><rect class="b" x="151.67" y="310.5" width="11.67" height="11.5"/><rect class="b" x="140" y="310.5" width="11.67" height="11.5"/><rect class="b" x="128.33" y="310.5" width="11.67" height="11.5"/><rect class="b" x="116.67" y="310.5" width="11.67" height="11.5"/><rect class="c" x="198.33" y="299" width="11.67" height="11.5"/><rect class="c" x="186.67" y="299" width="11.67" height="11.5"/><rect class="c" x="175" y="299" width="11.67" height="11.5"/><rect class="c" x="163.33" y="299" width="11.67" height="11.5"/><rect class="c" x="151.67" y="299" width="11.67" height="11.5"/><rect class="c" x="140" y="299" width="11.67" height="11.5"/><rect class="c" x="128.33" y="299" width="11.67" height="11.5"/><rect class="c" x="116.67" y="299" width="11.67" height="11.5"/><rect class="d" x="198.33" y="287.5" width="11.67" height="11.5"/><rect class="d" x="186.67" y="287.5" width="11.67" height="11.5"/><rect class="d" x="175" y="287.5" width="11.67" height="11.5"/><rect class="d" x="163.33" y="287.5" width="11.67" height="11.5"/><rect class="d" x="151.67" y="287.5" width="11.67" height="11.5"/><rect class="d" x="140" y="287.5" width="11.67" height="11.5"/><rect class="d" x="128.33" y="287.5" width="11.67" height="11.5"/><rect class="d" x="116.67" y="287.5" width="11.67" height="11.5"/><rect class="e" x="198.33" y="276" width="11.67" height="11.5"/><rect class="e" x="186.67" y="276" width="11.67" height="11.5"/><rect class="e" x="175" y="276" width="11.67" height="11.5"/><rect class="e" x="163.33" y="276" width="11.67" height="11.5"/><rect class="e" x="151.67" y="276" width="11.67" height="11.5"/><rect class="e" x="140" y="276" width="11.67" height="11.5"/><rect class="e" x="128.33" y="276" width="11.67" height="11.5"/><rect class="e" x="116.67" y="276" width="11.67" height="11.5"/><rect class="f" x="198.33" y="264.5" width="11.67" height="11.5"/><rect class="f" x="186.67" y="264.5" width="11.67" height="11.5"/><rect class="f" x="175" y="264.5" width="11.67" height="11.5"/><rect class="f" x="163.33" y="264.5" width="11.67" height="11.5"/><rect class="f" x="151.67" y="264.5" width="11.67" height="11.5"/><rect class="f" x="140" y="264.5" width="11.67" height="11.5"/><rect class="f" x="128.33" y="264.5" width="11.67" height="11.5"/><rect class="f" x="116.67" y="264.5" width="11.67" height="11.5"/><rect class="g" x="198.33" y="253" width="11.67" height="11.5"/><rect class="g" x="186.67" y="253" width="11.67" height="11.5"/><rect class="g" x="175" y="253" width="11.67" height="11.5"/><rect class="g" x="163.33" y="253" width="11.67" height="11.5"/><rect class="g" x="151.67" y="253" width="11.67" height="11.5"/><rect class="g" x="140" y="253" width="11.67" height="11.5"/><rect class="g" x="128.33" y="253" width="11.67" height="11.5"/><rect class="g" x="116.67" y="253" width="11.67" height="11.5"/><rect class="h" x="198.33" y="241.5" width="11.67" height="11.5"/><rect class="h" x="186.67" y="241.5" width="11.67" height="11.5"/><rect class="h" x="175" y="241.5" width="11.67" height="11.5"/><rect class="h" x="163.33" y="241.5" width="11.67" height="11.5"/><rect class="h" x="151.67" y="241.5" width="11.67" height="11.5"/><rect class="h" x="140" y="241.5" width="11.67" height="11.5"/><rect class="h" x="128.33" y="241.5" width="11.67" height="11.5"/><rect class="h" x="116.67" y="241.5" width="11.67" height="11.5"/><rect class="i" x="198.33" y="230" width="11.67" height="11.5"/><rect class="i" x="186.67" y="230" width="11.67" height="11.5"/><rect class="i" x="175" y="230" width="11.67" height="11.5"/><rect class="i" x="163.33" y="230" width="11.67" height="11.5"/><rect class="i" x="151.67" y="230" width="11.67" height="11.5"/><rect class="i" x="140" y="230" width="11.67" height="11.5"/><rect class="i" x="128.33" y="230" width="11.67" height="11.5"/><rect class="i" x="116.67" y="230" width="11.67" height="11.5"/><rect class="j" x="198.33" y="218.5" width="11.67" height="11.5"/><rect class="j" x="186.67" y="218.5" width="11.67" height="11.5"/><rect class="j" x="175" y="218.5" width="11.67" height="11.5"/><rect class="j" x="163.33" y="218.5" width="11.67" height="11.5"/><rect class="j" x="151.67" y="218.5" width="11.67" height="11.5"/><rect class="j" x="140" y="218.5" width="11.67" height="11.5"/><rect class="j" x="128.33" y="218.5" width="11.67" height="11.5"/><rect class="j" x="116.67" y="218.5" width="11.67" height="11.5"/><rect class="k" x="198.33" y="207" width="11.67" height="11.5"/><rect class="k" x="186.67" y="207" width="11.67" height="11.5"/><rect class="k" x="175" y="207" width="11.67" height="11.5"/><rect class="k" x="163.33" y="207" width="11.67" height="11.5"/><rect class="k" x="151.67" y="207" width="11.67" height="11.5"/><rect class="k" x="140" y="207" width="11.67" height="11.5"/><rect class="k" x="128.33" y="207" width="11.67" height="11.5"/><rect class="k" x="116.67" y="207" width="11.67" height="11.5"/><rect class="l" x="198.33" y="195.5" width="11.67" height="11.5"/><rect class="l" x="186.67" y="195.5" width="11.67" height="11.5"/><rect class="l" x="175" y="195.5" width="11.67" height="11.5"/><rect class="l" x="163.33" y="195.5" width="11.67" height="11.5"/><rect class="l" x="151.67" y="195.5" width="11.67" height="11.5"/><rect class="l" x="140" y="195.5" width="11.67" height="11.5"/><rect class="l" x="128.33" y="195.5" width="11.67" height="11.5"/><rect class="l" x="116.67" y="195.5" width="11.67" height="11.5"/><rect class="m" x="198.33" y="184" width="11.67" height="11.5"/><rect class="m" x="186.67" y="184" width="11.67" height="11.5"/><rect class="m" x="175" y="184" width="11.67" height="11.5"/><rect class="m" x="163.33" y="184" width="11.67" height="11.5"/><rect class="m" x="151.67" y="184" width="11.67" height="11.5"/><rect class="m" x="140" y="184" width="11.67" height="11.5"/><rect class="m" x="128.33" y="184" width="11.67" height="11.5"/><rect class="m" x="116.67" y="184" width="11.67" height="11.5"/><rect class="n" x="198.33" y="172.5" width="11.67" height="11.5"/><rect class="n" x="186.67" y="172.5" width="11.67" height="11.5"/><rect class="n" x="175" y="172.5" width="11.67" height="11.5"/><rect class="n" x="163.33" y="172.5" width="11.67" height="11.5"/><rect class="n" x="151.67" y="172.5" width="11.67" height="11.5"/><rect class="n" x="140" y="172.5" width="11.67" height="11.5"/><rect class="n" x="128.33" y="172.5" width="11.67" height="11.5"/><rect class="n" x="116.67" y="172.5" width="11.67" height="11.5"/><rect class="o" x="198.33" y="161" width="11.67" height="11.5"/><rect class="o" x="186.67" y="161" width="11.67" height="11.5"/><rect class="o" x="175" y="161" width="11.67" height="11.5"/><rect class="o" x="163.33" y="161" width="11.67" height="11.5"/><rect class="o" x="151.67" y="161" width="11.67" height="11.5"/><rect class="o" x="140" y="161" width="11.67" height="11.5"/><rect class="o" x="128.33" y="161" width="11.67" height="11.5"/><rect class="o" x="116.67" y="161" width="11.67" height="11.5"/><rect class="p" x="315" y="149.5" width="11.67" height="11.5"/><rect class="p" x="303.33" y="149.5" width="11.67" height="11.5"/><rect class="p" x="291.67" y="149.5" width="11.67" height="11.5"/><rect class="p" x="280" y="149.5" width="11.67" height="11.5"/><rect class="p" x="268.33" y="149.5" width="11.67" height="11.5"/><rect class="p" x="256.67" y="149.5" width="11.67" height="11.5"/><rect class="p" x="245" y="149.5" width="11.67" height="11.5"/><rect class="p" x="233.33" y="149.5" width="11.67" height="11.5"/><rect class="p" x="221.67" y="149.5" width="11.67" height="11.5"/><rect class="p" x="210" y="149.5" width="11.67" height="11.5"/><rect class="p" x="198.33" y="149.5" width="11.67" height="11.5"/><rect class="p" x="186.67" y="149.5" width="11.67" height="11.5"/><rect class="p" x="175" y="149.5" width="11.67" height="11.5"/><rect class="p" x="163.33" y="149.5" width="11.67" height="11.5"/><rect class="p" x="151.67" y="149.5" width="11.67" height="11.5"/><rect class="p" x="140" y="149.5" width="11.67" height="11.5"/><rect class="p" x="128.33" y="149.5" width="11.67" height="11.5"/><rect class="p" x="116.67" y="149.5" width="11.67" height="11.5"/><rect class="p" x="105" y="149.5" width="11.67" height="11.5"/><rect class="p" x="93.33" y="149.5" width="11.67" height="11.5"/><rect class="p" x="81.67" y="149.5" width="11.67" height="11.5"/><rect class="p" x="70" y="149.5" width="11.67" height="11.5"/><rect class="p" x="58.33" y="149.5" width="11.67" height="11.5"/><rect class="p" x="46.67" y="149.5" width="11.67" height="11.5"/><rect class="p" x="35" y="149.5" width="11.67" height="11.5"/><rect class="p" x="23.33" y="149.5" width="11.67" height="11.5"/><rect class="p" x="11.67" y="149.5" width="11.67" height="11.5"/><rect class="p" y="149.5" width="11.67" height="11.5"/><rect class="q" x="303.33" y="138" width="11.67" height="11.5"/><rect class="q" x="291.67" y="138" width="11.67" height="11.5"/><rect class="q" x="280" y="138" width="11.67" height="11.5"/><rect class="q" x="268.33" y="138" width="11.67" height="11.5"/><rect class="q" x="256.67" y="138" width="11.67" height="11.5"/><rect class="q" x="245" y="138" width="11.67" height="11.5"/><rect class="q" x="233.33" y="138" width="11.67" height="11.5"/><rect class="q" x="221.67" y="138" width="11.67" height="11.5"/><rect class="q" x="210" y="138" width="11.67" height="11.5"/><rect class="q" x="198.33" y="138" width="11.67" height="11.5"/><rect class="q" x="186.67" y="138" width="11.67" height="11.5"/><rect class="q" x="175" y="138" width="11.67" height="11.5"/><rect class="q" x="163.33" y="138" width="11.67" height="11.5"/><rect class="q" x="151.67" y="138" width="11.67" height="11.5"/><rect class="q" x="140" y="138" width="11.67" height="11.5"/><rect class="q" x="128.33" y="138" width="11.67" height="11.5"/><rect class="q" x="116.67" y="138" width="11.67" height="11.5"/><rect class="q" x="105" y="138" width="11.67" height="11.5"/><rect class="q" x="93.33" y="138" width="11.67" height="11.5"/><rect class="q" x="81.67" y="138" width="11.67" height="11.5"/><rect class="q" x="70" y="138" width="11.67" height="11.5"/><rect class="q" x="58.33" y="138" width="11.67" height="11.5"/><rect class="q" x="46.67" y="138" width="11.67" height="11.5"/><rect class="q" x="35" y="138" width="11.67" height="11.5"/><rect class="q" x="23.33" y="138" width="11.67" height="11.5"/><rect class="q" x="11.67" y="138" width="11.67" height="11.5"/><rect class="r" x="291.67" y="126.5" width="11.67" height="11.5"/><rect class="r" x="280" y="126.5" width="11.67" height="11.5"/><rect class="r" x="268.33" y="126.5" width="11.67" height="11.5"/><rect class="r" x="256.67" y="126.5" width="11.67" height="11.5"/><rect class="r" x="245" y="126.5" width="11.67" height="11.5"/><rect class="r" x="233.33" y="126.5" width="11.67" height="11.5"/><rect class="r" x="221.67" y="126.5" width="11.67" height="11.5"/><rect class="r" x="210" y="126.5" width="11.67" height="11.5"/><rect class="r" x="198.33" y="126.5" width="11.67" height="11.5"/><rect class="r" x="186.67" y="126.5" width="11.67" height="11.5"/><rect class="r" x="175" y="126.5" width="11.67" height="11.5"/><rect class="r" x="163.33" y="126.5" width="11.67" height="11.5"/><rect class="r" x="151.67" y="126.5" width="11.67" height="11.5"/><rect class="r" x="140" y="126.5" width="11.67" height="11.5"/><rect class="r" x="128.33" y="126.5" width="11.67" height="11.5"/><rect class="r" x="116.67" y="126.5" width="11.67" height="11.5"/><rect class="r" x="105" y="126.5" width="11.67" height="11.5"/><rect class="r" x="93.33" y="126.5" width="11.67" height="11.5"/><rect class="r" x="81.67" y="126.5" width="11.67" height="11.5"/><rect class="r" x="70" y="126.5" width="11.67" height="11.5"/><rect class="r" x="58.33" y="126.5" width="11.67" height="11.5"/><rect class="r" x="46.67" y="126.5" width="11.67" height="11.5"/><rect class="r" x="35" y="126.5" width="11.67" height="11.5"/><rect class="r" x="23.33" y="126.5" width="11.67" height="11.5"/><rect class="s" x="280" y="115" width="11.67" height="11.5"/><rect class="s" x="268.33" y="115" width="11.67" height="11.5"/><rect class="s" x="256.67" y="115" width="11.67" height="11.5"/><rect class="s" x="245" y="115" width="11.67" height="11.5"/><rect class="s" x="233.33" y="115" width="11.67" height="11.5"/><rect class="s" x="221.67" y="115" width="11.67" height="11.5"/><rect class="s" x="210" y="115" width="11.67" height="11.5"/><rect class="s" x="198.33" y="115" width="11.67" height="11.5"/><rect class="s" x="186.67" y="115" width="11.67" height="11.5"/><rect class="s" x="175" y="115" width="11.67" height="11.5"/><rect class="s" x="163.33" y="115" width="11.67" height="11.5"/><rect class="s" x="151.67" y="115" width="11.67" height="11.5"/><rect class="s" x="140" y="115" width="11.67" height="11.5"/><rect class="s" x="128.33" y="115" width="11.67" height="11.5"/><rect class="s" x="116.67" y="115" width="11.67" height="11.5"/><rect class="s" x="105" y="115" width="11.67" height="11.5"/><rect class="s" x="93.33" y="115" width="11.67" height="11.5"/><rect class="s" x="81.67" y="115" width="11.67" height="11.5"/><rect class="s" x="70" y="115" width="11.67" height="11.5"/><rect class="s" x="58.33" y="115" width="11.67" height="11.5"/><rect class="s" x="46.67" y="115" width="11.67" height="11.5"/><rect class="s" x="35" y="115" width="11.67" height="11.5"/><rect class="t" x="268.33" y="103.5" width="11.67" height="11.5"/><rect class="t" x="256.67" y="103.5" width="11.67" height="11.5"/><rect class="t" x="245" y="103.5" width="11.67" height="11.5"/><rect class="t" x="233.33" y="103.5" width="11.67" height="11.5"/><rect class="t" x="221.67" y="103.5" width="11.67" height="11.5"/><rect class="t" x="210" y="103.5" width="11.67" height="11.5"/><rect class="t" x="198.33" y="103.5" width="11.67" height="11.5"/><rect class="t" x="186.67" y="103.5" width="11.67" height="11.5"/><rect class="t" x="175" y="103.5" width="11.67" height="11.5"/><rect class="t" x="163.33" y="103.5" width="11.67" height="11.5"/><rect class="t" x="151.67" y="103.5" width="11.67" height="11.5"/><rect class="t" x="140" y="103.5" width="11.67" height="11.5"/><rect class="t" x="128.33" y="103.5" width="11.67" height="11.5"/><rect class="t" x="116.67" y="103.5" width="11.67" height="11.5"/><rect class="t" x="105" y="103.5" width="11.67" height="11.5"/><rect class="t" x="93.33" y="103.5" width="11.67" height="11.5"/><rect class="t" x="81.67" y="103.5" width="11.67" height="11.5"/><rect class="t" x="70" y="103.5" width="11.67" height="11.5"/><rect class="t" x="58.33" y="103.5" width="11.67" height="11.5"/><rect class="t" x="46.67" y="103.5" width="11.67" height="11.5"/><rect class="u" x="256.67" y="92" width="11.67" height="11.5"/><rect class="u" x="245" y="92" width="11.67" height="11.5"/><rect class="u" x="233.33" y="92" width="11.67" height="11.5"/><rect class="u" x="221.67" y="92" width="11.67" height="11.5"/><rect class="u" x="210" y="92" width="11.67" height="11.5"/><rect class="u" x="198.33" y="92" width="11.67" height="11.5"/><rect class="u" x="186.67" y="92" width="11.67" height="11.5"/><rect class="u" x="175" y="92" width="11.67" height="11.5"/><rect class="u" x="163.33" y="92" width="11.67" height="11.5"/><rect class="u" x="151.67" y="92" width="11.67" height="11.5"/><rect class="u" x="140" y="92" width="11.67" height="11.5"/><rect class="u" x="128.33" y="92" width="11.67" height="11.5"/><rect class="u" x="116.67" y="92" width="11.67" height="11.5"/><rect class="u" x="105" y="92" width="11.67" height="11.5"/><rect class="u" x="93.33" y="92" width="11.67" height="11.5"/><rect class="u" x="81.67" y="92" width="11.67" height="11.5"/><rect class="u" x="70" y="92" width="11.67" height="11.5"/><rect class="u" x="58.33" y="92" width="11.67" height="11.5"/><rect class="v" x="245" y="80.5" width="11.67" height="11.5"/><rect class="v" x="233.33" y="80.5" width="11.67" height="11.5"/><rect class="v" x="221.67" y="80.5" width="11.67" height="11.5"/><rect class="v" x="210" y="80.5" width="11.67" height="11.5"/><rect class="v" x="198.33" y="80.5" width="11.67" height="11.5"/><rect class="v" x="186.67" y="80.5" width="11.67" height="11.5"/><rect class="v" x="175" y="80.5" width="11.67" height="11.5"/><rect class="v" x="163.33" y="80.5" width="11.67" height="11.5"/><rect class="v" x="151.67" y="80.5" width="11.67" height="11.5"/><rect class="v" x="140" y="80.5" width="11.67" height="11.5"/><rect class="v" x="128.33" y="80.5" width="11.67" height="11.5"/><rect class="v" x="116.67" y="80.5" width="11.67" height="11.5"/><rect class="v" x="105" y="80.5" width="11.67" height="11.5"/><rect class="v" x="93.33" y="80.5" width="11.67" height="11.5"/><rect class="v" x="81.67" y="80.5" width="11.67" height="11.5"/><rect class="v" x="70" y="80.5" width="11.67" height="11.5"/><rect class="w" x="233.33" y="69" width="11.67" height="11.5"/><rect class="w" x="221.67" y="69" width="11.67" height="11.5"/><rect class="w" x="210" y="69" width="11.67" height="11.5"/><rect class="w" x="198.33" y="69" width="11.67" height="11.5"/><rect class="w" x="186.67" y="69" width="11.67" height="11.5"/><rect class="w" x="175" y="69" width="11.67" height="11.5"/><rect class="w" x="163.33" y="69" width="11.67" height="11.5"/><rect class="w" x="151.67" y="69" width="11.67" height="11.5"/><rect class="w" x="140" y="69" width="11.67" height="11.5"/><rect class="w" x="128.33" y="69" width="11.67" height="11.5"/><rect class="w" x="116.67" y="69" width="11.67" height="11.5"/><rect class="w" x="105" y="69" width="11.67" height="11.5"/><rect class="w" x="93.33" y="69" width="11.67" height="11.5"/><rect class="w" x="81.67" y="69" width="11.67" height="11.5"/><rect class="x" x="221.67" y="57.5" width="11.67" height="11.5"/><rect class="x" x="210" y="57.5" width="11.67" height="11.5"/><rect class="x" x="198.33" y="57.5" width="11.67" height="11.5"/><rect class="x" x="186.67" y="57.5" width="11.67" height="11.5"/><rect class="x" x="175" y="57.5" width="11.67" height="11.5"/><rect class="x" x="163.33" y="57.5" width="11.67" height="11.5"/><rect class="x" x="151.67" y="57.5" width="11.67" height="11.5"/><rect class="x" x="140" y="57.5" width="11.67" height="11.5"/><rect class="x" x="128.33" y="57.5" width="11.67" height="11.5"/><rect class="x" x="116.67" y="57.5" width="11.67" height="11.5"/><rect class="x" x="105" y="57.5" width="11.67" height="11.5"/><rect class="x" x="93.33" y="57.5" width="11.67" height="11.5"/><rect class="y" x="210" y="46" width="11.67" height="11.5"/><rect class="y" x="198.33" y="46" width="11.67" height="11.5"/><rect class="y" x="186.67" y="46" width="11.67" height="11.5"/><rect class="y" x="175" y="46" width="11.67" height="11.5"/><rect class="y" x="163.33" y="46" width="11.67" height="11.5"/><rect class="y" x="151.67" y="46" width="11.67" height="11.5"/><rect class="y" x="140" y="46" width="11.67" height="11.5"/><rect class="y" x="128.33" y="46" width="11.67" height="11.5"/><rect class="y" x="116.67" y="46" width="11.67" height="11.5"/><rect class="y" x="105" y="46" width="11.67" height="11.5"/><rect class="z" x="198.33" y="34.5" width="11.67" height="11.5"/><rect class="z" x="186.67" y="34.5" width="11.67" height="11.5"/><rect class="z" x="175" y="34.5" width="11.67" height="11.5"/><rect class="z" x="163.33" y="34.5" width="11.67" height="11.5"/><rect class="z" x="151.67" y="34.5" width="11.67" height="11.5"/><rect class="z" x="140" y="34.5" width="11.67" height="11.5"/><rect class="z" x="128.33" y="34.5" width="11.67" height="11.5"/><rect class="z" x="116.67" y="34.5" width="11.67" height="11.5"/><rect class="aa" x="186.67" y="23" width="11.67" height="11.5"/><rect class="aa" x="175" y="23" width="11.67" height="11.5"/><rect class="aa" x="163.33" y="23" width="11.67" height="11.5"/><rect class="aa" x="151.67" y="23" width="11.67" height="11.5"/><rect class="aa" x="140" y="23" width="11.67" height="11.5"/><rect class="aa" x="128.33" y="23" width="11.67" height="11.5"/><rect class="ab" x="175" y="11.5" width="11.67" height="11.5"/><rect class="ab" x="163.33" y="11.5" width="11.67" height="11.5"/><rect class="ab" x="151.67" y="11.5" width="11.67" height="11.5"/><rect class="ab" x="140" y="11.5" width="11.67" height="11.5"/><rect class="ac" x="163.33" width="11.67" height="11.5"/><rect class="ac" x="151.67" width="11.67" height="11.5"/></svg>