<svg xmlns="http://www.w3.org/2000/svg" viewBox="0 0 621.8 631.49">
  <defs>
    <style>
      .a {
        fill: none;
        stroke: #000;
        stroke-miterlimit: 10;
      }

      .b {
        fill: #4ba2aa;
      }
    </style>
  </defs>
  <title>pointFinger</title>
  <path d="M1042.93,638.28c-44.3,52.47-89.79,104.57-140.13,151.4-23.15,21.54-48,43.8-76.83,57.47-4.76,2.26-9.51,4.51-14.18,7-4.49,2.35-9.74,4.73-13.4,8.32-6.25,6.13,4.65,6.17,8.32,5.78,16-1.71,32.43-5.61,47.82-10.38,26.38-8.18,49.84-24.68,70.82-42.2,47.43-39.59,86.6-89,122.49-139q9.54-13.27,18.78-26.77c1.09-1.6-1.51-3.1-2.59-1.52-37.25,54.28-77.64,107.85-126.36,152.47-22.46,20.57-47.63,40.47-76.38,51.46-10.73,4.1-22.06,6.55-33.24,9-5.64,1.24-11.3,2.42-17,3.3-1.86.28-10,2.31-11.68.57.42.46,2-1.39,3.09-2.17a68.53,68.53,0,0,1,7-4.26c4.91-2.72,10-5.2,15-7.6,26.87-12.76,50-31.8,72-51.62,46-41.49,87.53-88,127.9-134.87q10.39-12.09,20.68-24.27c1.23-1.46-.88-3.6-2.13-2.12Z" transform="translate(-744 -323.23)"/>
  <path class="a" d="M1063.59,584.11c-9.26-2.09-19.08,1.19-26.83,6.67s-13.79,13-19.73,20.38c-.87,1.09-1.8,2.39-1.49,3.75a4.71,4.71,0,0,0,1.28,2c16.48,17.65,39.3,27.71,61.45,37.32,6.36,2.75,12.9,5.55,19.82,5.8,19.13.68,33-17.33,43.37-33.4l1.21-1.76" transform="translate(-744 -323.23)"/>
  <g>
    <path class="b" d="M1282.27,439.87a190.63,190.63,0,0,1,28.87.69c4.82.48,10.86,2.35,11.23,7.19a9.72,9.72,0,0,1-1.81,5.55,54.66,54.66,0,0,1-6.68,8.76c3.8-.55,7.79,1.75,10.08,4.94,2.57,3.58,3.5,8.05,4.37,12.37,1.37,6.85,2.65,14.36-.71,20.48a19.81,19.81,0,0,1-3.53,4.53l1.09.36c8.94-2.58,16.92,8.53,15.17,17.67s-9.3,15.87-16.4,21.88c-14.41,12.17-28.86,24.38-44.75,34.54-47.9,30.63-105.65,40.85-161.7,50.44l-.1-1a177.83,177.83,0,0,1-52.1-21c-5.63-3.38-11.16-7.16-15.29-12.26l-.37-.8C1083.42,574.09,1104,539,1114.56,503c5.08-17.24,8.69-35.89,21.63-49.13,19.79-20.25,53.38-20.53,82.81-19.29l1.4,1.32A458.14,458.14,0,0,0,1281,355.36c3.4-5.75,6.72-11.64,11.32-16.5a47.47,47.47,0,0,1,11.23-8.63c12.35-7,27.93-8.86,40.89-3.1S1366.73,347,1365.11,361c-1.81,15.68-15.33,27-27.85,36.65Q1309.8,418.82,1282.27,439.87Z" transform="translate(-744 -323.23)"/>
    <g>
      <path class="a" d="M1171.09,481.26a456,456,0,0,0,49.31-45.33A458.14,458.14,0,0,0,1281,355.36c3.4-5.75,6.72-11.64,11.32-16.5a47.47,47.47,0,0,1,11.23-8.63c12.35-7,27.93-8.86,40.89-3.1S1366.73,347,1365.11,361c-1.81,15.68-15.33,27-27.85,36.65q-27.46,21.13-55,42.18-27.84,21.28-55.72,42.51" transform="translate(-744 -323.23)"/>
      <path class="a" d="M1280.47,440l1.8-.1a190.63,190.63,0,0,1,28.87.69c4.82.48,10.86,2.35,11.23,7.19a9.72,9.72,0,0,1-1.81,5.55,54.66,54.66,0,0,1-6.68,8.76,146.21,146.21,0,0,1-13,12l-45.37,38.83" transform="translate(-744 -323.23)"/>
      <path class="a" d="M1312.51,462.39a8.28,8.28,0,0,1,1.37-.33c3.8-.55,7.79,1.75,10.08,4.94,2.57,3.58,3.5,8.05,4.37,12.37,1.37,6.85,2.65,14.36-.71,20.48a19.81,19.81,0,0,1-3.53,4.53c-1.38,1.36-2.89,2.6-4.39,3.82l-31.8,25.85" transform="translate(-744 -323.23)"/>
      <path class="a" d="M1325.18,504.74c8.94-2.58,16.92,8.53,15.17,17.67s-9.3,15.87-16.4,21.88c-14.41,12.17-28.86,24.38-44.75,34.54-47.9,30.63-105.65,40.85-161.7,50.44" transform="translate(-744 -323.23)"/>
      <path class="a" d="M1169.14,479.52a43.29,43.29,0,0,0-18.88,1.75" transform="translate(-744 -323.23)"/>
      <path class="a" d="M1172.9,477.37a23.39,23.39,0,0,1-22.87-11" transform="translate(-744 -323.23)"/>
      <path class="a" d="M1049.64,594.25C1083.42,574.09,1104,539,1114.56,503c5.08-17.24,8.69-35.89,21.63-49.13,19.79-20.25,53.38-20.53,82.81-19.29" transform="translate(-744 -323.23)"/>
      <path class="a" d="M1050,595.05c4.13,5.1,9.66,8.88,15.29,12.26a177.83,177.83,0,0,0,52.1,21" transform="translate(-744 -323.23)"/>
    </g>
  </g>
  <path class="a" d="M1024.86,601.75C967.5,625.5,931.5,678.5,931.5,678.5s-101,107-142,136-45,89-45,89,16,71,87,45c32.91-12,56.62-26.92,63.08-32.07C1064.91,780.65,1055.4,761,1111.5,709.5c0,0,23.74-21.79,30-53,.3-1.48,2.41-12-2-15,0,0-.62-.42-7-2.16" transform="translate(-744 -323.23)"/>
</svg>
