<svg id="Lag_1" data-name="Lag 1" xmlns="http://www.w3.org/2000/svg" viewBox="0 0 619.61 416">
  <defs>
    <style>
      .cls-1 {
        fill: #e82827;
      }

      .cls-2 {
        fill: #fcc326;
      }

      .cls-3 {
        fill: #fce837;
      }

      .cls-4 {
        fill: #fc7800;
      }

      .cls-4, .cls-5 {
        stroke: #000;
        stroke-linecap: round;
        stroke-linejoin: round;
      }

      .cls-5 {
        fill: #eb66a2;
        stroke-width: 3px;
      }
    </style>
  </defs>
  <title>Start</title>
  <g id="Explotion">
    <path id="RedBang" class="cls-1" d="M1204,593l-23-6.9h0c-1.1-.4-24.6-9.5-42.3-18.8-3.4-1.9-6.8-3.8-10.1-5.8a48.21,48.21,0,0,1-6.4-4.8,13.79,13.79,0,0,1-3.5-9.4,27.61,27.61,0,0,0-.6-4,48.37,48.37,0,0,1-.5-9.3,79.76,79.76,0,0,1,4.3-18c4.1-9.2,10.1-17.3,16.6-25l35.6-42s.6-.5-.2-.5v-.1a8.58,8.58,0,0,0-1.7.3c-3.1.6-59.6,32.2-59.7,32.2-2.6,1.2-5.3,2.3-8,3.3a100.48,100.48,0,0,1-17.6,5c-25.3,4.1-58.9-4.1-48.9-81.8.1-.6.2-1.1.3-1.7.7-4.6,1.5-9.2,2.3-14.6a16.13,16.13,0,0,0-2.4,1.8c-6.5,7-13,14-19.4,21l-13.1,13.7a94.73,94.73,0,0,1-22,16c-.3.1-.6.3-.9.4-2.4,1-5,2-7.8,3.1l-2.4.9c-41.2,15.3-54.4-82.9-54.4-82.9s-40.9,68.9-57.9,76.1c-15.9,6.7-22.9,9.5-30.2,11.1l-1.6.3c-3.2.6-6.4,1.3-9.6,1.9a67.27,67.27,0,0,1-26.7-.5,36.09,36.09,0,0,1-6.2-2.4,28.48,28.48,0,0,1-9.5-7.2,25,25,0,0,1-2.5-3.8c-.1-.3-.3-.5-.4-.8-2.8-5.8-5.6-11.6-8.3-17.4-1.5-3.1-2.8-6-4.1-8.7-2.1-4.6-4.3-9.2-6.4-13.7a9.34,9.34,0,0,0-1.3-1.5.52.52,0,0,0-.2.4c-.4,0-.7.4-.8,1.5v.2c-.7,7-1.3,14-2,20.9-.4,4-.7,8-1.1,12.1-1,10.3-1.9,19.9-2.4,23.7a100.91,100.91,0,0,1-7.8,26.7,61.17,61.17,0,0,1-11.7,17.4c-12.4,12.1-33.1,21.3-67.7,18.8-11.4-.7-22.8-1.3-34.2-2h-2.4c-.2.3-.3.7-.5,1,.4.2.9.3,1.3.5,4.8,2.7,9.5,5.4,14.3,8.1,5.6,3.2,11.2,6.3,16.7,9.5,3,1.8,6.1,3.4,8.6,5.7,5.2,4.7,8.8,10.6,12.1,16.8,2.5,19.2,8.7,21.6-.2,36.3a89.94,89.94,0,0,0-5.1,9.4A65.25,65.25,0,0,1,656,621.2a2.19,2.19,0,0,1-.5.3l-1.2.9a.1.1,0,0,0-.1.1l-1.8,1.2c-9.1,6-18.6,11.3-27.9,16.9-1.4.8-2.7,1.7-4.4,2.7,3.8,1.1,7,2.1,10.3,3,4.1,1.1,8.3,1.9,12.5,2.9,2.2.5,4.3,1.1,6.5,1.7,2.6.7,5.1,1.4,7.7,2,3.1.7,6.3,1.1,9.4,1.9,0,0,8.4,2.1,14.8,4.3a64.35,64.35,0,0,1,6.1,2.4,52.88,52.88,0,0,1,5,2.7,14.28,14.28,0,0,1,1.8,1.5,25.45,25.45,0,0,1,2.4,3.1,10.09,10.09,0,0,1,.7,1.5c.2.5.3,1.1.5,1.7a19.83,19.83,0,0,1,.3,3.5c-.2,1.8-.8,4.9-1,5.8-.6,2.7-1.2,5.3-2,7.9-.8,2.2-1.5,4.2-2.1,5.8a24.43,24.43,0,0,1-1,2.4c-1.5,3.1-26.5,50.8-27,52.4-.1.2.2.1.6,0a1.9,1.9,0,0,0,1.2-.4c3.4-2.7,6.7-5.4,10.1-8.1,2.8-2.3,5.7-4.6,8.5-6.9l32.1-25.9c1.3-1,2.6-2.1,4-3.1.2-.2.4-.3.5-.4l1.2-.9c.6-.5,1.5-1.1,2.2-1.6a8.65,8.65,0,0,1,1-.7l.1-.1c.1-.1.2-.1.3-.2,1.2-.9,6.9-4.8,10.5-7l2.1-1.2c2.2-1.2,5.9-3.2,9.7-4.8a48.82,48.82,0,0,1,6.4-2.3c2-.6,3.7-1.1,5.2-1.4.7-.2,1.3-.3,2-.5a22.26,22.26,0,0,1,3.6-.5,35.05,35.05,0,0,1,5.6.3,17.42,17.42,0,0,1,2.2.5,25.23,25.23,0,0,1,5.8,2.8c.2.1.3.2.5.3h0l1.5,1.2a39.78,39.78,0,0,1,4.6,5,1.38,1.38,0,0,1,.3.4c.1.1.2.2.2.3a30.3,30.3,0,0,1,2.4,3.8,95.44,95.44,0,0,1,7,18.6,163.4,163.4,0,0,1,3.9,22c1.5,18.2,2.5,34.5,2.8,39.3,0,.5.1.9.1,1.4a3.51,3.51,0,0,0,.6,1.4,4.83,4.83,0,0,0,1.4-.9,8.34,8.34,0,0,0,.8-1.2c0-.1.1-.1.1-.2a5.92,5.92,0,0,0,.4-.6l5.1-7.5c3.9-5.9,7.8-11.8,11.8-17.7,2.5-3.5,4.1-5.7,5.3-7.4a73.37,73.37,0,0,1,5.1-6c1.1-1.1,2.1-2.2,3.1-3.1a71.47,71.47,0,0,1,7.3-6.1,12.51,12.51,0,0,1,4-2c2.5-.9,52.9-18.6,80.2,9.6,6.6,6.8,11.6,12,15.4,15.9,3.2,3.8,6.5,7.6,9.7,11.3.5.6,1.5.7,2.2,1a6.19,6.19,0,0,0,.7-1.9c.3-2.7.5-5.4.9-8.1,1.2-9,2.6-18,3.8-27a78.46,78.46,0,0,1,5.4-21.3c2.8-6.7,5.7-13.3,13.3-16.4,3.9-1.6,7.8-3.2,12.1-3a71.82,71.82,0,0,1,22.4,4.8c1.2.5,2.5.9,3.7,1.3,18.9,8.2,34.9,15.6,44.2,19.9.9.5,1.8.9,2.8,1.4,1.9.9,3.7,1.7,6.2,2.9-.3-1.5-.3-2.5-.6-3.4-1.4-4-2.9-8.1-4.4-12.1l-7.2-22.2s-9.3-58.9,74.2-71.4c4.2-.6,8.3-1.1,12.5-1.8,1.2-.2,2.5-.4,3.7-.7,67.3-10.1,67.4-10.1,67.4-10.1.2,0,.4-.3.7-.6C1212.7,595.1,1208.3,594.1,1204,593Z" transform="translate(-620.1 -365.1)"/>
    <path id="OrangeBang" class="cls-2" d="M715.4,672.4a10,10,0,0,0-1.5-10.2c-4-5-9.7-11.9-24.3-15.4s-32.1-7.8-32.1-7.8,15.6-9.6,22.4-18.2,11.2-15.6,13-19.5,9.3-32.5-2.3-47.6L679,538.5s14.4-.5,24.2-3.5,23.4-7.8,30.7-14.6,15.2-14.7,19.2-24.6,6.2-16.3,7-20.2,3.3-20.1,3.3-20.1.1-.7.7.3a29.83,29.83,0,0,0,6.1,8.4c3.6,3.2,9.3,8.7,22.6,11s28.6-.7,28.6-.7a130.83,130.83,0,0,0,18-4.5c8-2.8,49.8-25.3,59.1-40.1l9.3-14.8a183.92,183.92,0,0,0,10.8,30.8c7.7,17.2,10.9,29,30.1,30.5s39.4-2.6,60.6-20.9c0,0,.2,23.7,11.6,34.6s14.4,14.6,23.3,16.4,25.1,4.6,41.6-1.9,26.7-11.1,26.7-11.1-7.3,9.6-9.8,15.1-6,15.2-6.3,21.5,0,9,.4,17.4,4.6,26.5,25.4,38.2l20.8,11.8-13.6,3.3s-111.1,23-93.6,90.3c0,0-48.7-23.4-63.7-14.1s-27.1,26.1-29.5,40.8l-2.4,14.7-4.7-4.5s-31.7-30.4-78.9-20.4h0s-11.4,3.5-17.7,8.1-14.7,12.2-16.9,14.8-8.6,10.8-8.6,10.8-2.5-36.9-10.8-49.2-9.7-15.7-16.5-18.2-14.2-4.8-23-2.2-19.9,5-36.2,17.1-21,15.4-21,15.4,2.4-3.8,5.2-12.2,4.3-19.6,4.3-19.6" transform="translate(-620.1 -365.1)"/>
    <path id="GulBang" class="cls-3" d="M705,548.4a25.58,25.58,0,0,1,.9,2.5c3.5,9.8,14.9,45,3.5,56.9-13.2,13.9-19.3,18.8-26.1,22.6l-6.8,3.8s-.5,1.4,5.2.9l33.5-2.4a24.87,24.87,0,0,1,14.7,1.5c8.1,3.2,1.6,29.6,1.6,29.6l-8.4,16.7s.2,2,3.2-.5,14.1-12,21.6-16.4S767,653.5,772.4,653a52.74,52.74,0,0,1,18.9,1.5c6.8,2,16.7,13.1,21.4,27.7a151.24,151.24,0,0,1,6,28.8l1.5,17a85.57,85.57,0,0,1,8.4-10.8c5.7-6.3,7.8-8.6,10.6-11.3s14-18.2,33.9-20.7,55.3,20,55.3,20,7-44.6,44.9-44.9c0,0,10.6-3.6,30.4,5.4l19.8,9-4.4-19.7c-1.2-4.4-4.6-15.2.8-25.9,13.8-27.2,65.4-32.1,66.8-32.3l15.5-2.4c-29.4-34.8-36.3-53.9-8.2-84.9-6.6,8-78.6,41.9-93.3-21h0s-107.1,42.9-100.5-33.7c0,0-25.8,24-56.1,35.7-33,12.6-68.8,18-75.9-13.3,0,0,7.9,71.2-66.4,63.5,0,0-3.9.2-1.4,3.1A22.49,22.49,0,0,0,705,548.4Z" transform="translate(-620.1 -365.1)"/>
  </g>
  <g id="groupStart">
    <g>
      <path class="cls-4" d="M734.28,558c-1,2.4-10.17,7.07-16.39,11.71s-9.49,7.16-15.65,12.08c-2.3-5.9-5.52-8.06-9.62-6.41-5.84,2.36-10.59,7.43-14,15.11-2.33,5.59-2.32,10.09-.1,13.32,1.46,2.12,4.86,2,10.12-.27a88.08,88.08,0,0,0,10.86-5.86,108.63,108.63,0,0,1,16.74-8.45c8.15-3.2,20.37-5.23,26.32,3.27a30.34,30.34,0,0,1,3.27,7c3.24,10,.76,20.47-1.69,30-4.13,15.95-13.61,31.17-23.77,44.46-5.86,7.64-12.24,13.16-19.47,16.68a49.27,49.27,0,0,1-22,4.72c-1-13.31-.91-26.61-.71-39.94a31.07,31.07,0,0,0,15.9-2.7,33.82,33.82,0,0,0,6.39-4,78.8,78.8,0,0,0,10.47-9.59c4.47-5,6.22-9,5.08-11.89-1.25-3.13-4.84-3.54-10.74-1.07-4,1.68-9.6,4.89-16.53,9.77s-12.28,8.38-16.18,10.33c-5.16,2.58-9.53,3.81-13.19,3.61-7.05-.22-11.94-3.73-14.51-10.78-7.52-20.66.79-43.93,8.66-62.68,8.61-20.5,23-43.59,44.56-52.82,15.93-6.82,28,3.5,32.62,18.82C732,546.83,735.31,555.58,734.28,558Z" transform="translate(-620.1 -365.1)"/>
      <path class="cls-4" d="M841.47,489.41q1.49,18.75,3.06,37.5c-11.13,2.07-22.22,4.21-33.17,7.11-3.5,35-4.09,69.94-.24,104.94q-16.5,8.13-32.38,17.45-5.64-54.58-7.69-109.34-6.45,2.46-12.77,5.25c-5,2.21-7.42,3.34-12.32,5.65Q739.08,540.3,732,522.7A736.07,736.07,0,0,1,841.47,489.41Z" transform="translate(-620.1 -365.1)"/>
      <path class="cls-4" d="M818.62,648.94c9.49-51.33,21.38-102.12,33.07-153a760,760,0,0,1,81.12-14c-11.67,47.28-12.86,96.4-12.38,144.84-14.81,3.5-29.38,7.44-43.93,11.91.35-10.17.55-15.26,1-25.44-5.73,1.53-8.58,2.33-14.25,4-1,7.27-1.51,10.91-2.42,18.18C846.59,639.53,832.58,644,818.62,648.94Zm60.31-63Q881.39,547.4,885,509l-.26,0c-6.45,26.44-12.06,52.95-16.87,79.74C872.3,587.59,874.51,587,878.93,585.9Z" transform="translate(-620.1 -365.1)"/>
      <path class="cls-4" d="M948.6,493.36c23-3.77,46.72-5.82,69.58-3,11.9,1.48,36,7.94,32,24.9-5.52,23.63-31.94,36.67-51.33,46.89,5.79,17.45,12.92,34.49,19,51.85-12.72,7.35-25.22,15.05-37.41,23.25-5.28-19.49-11.47-38.66-18.15-57.71l-.23,0-.3-.06c-4.3,16-8,32-11,48.29-11.23,2.47-22.28,5.15-33.39,8.12.25-3,1.66-11.95,4.58-26.9Q933.19,550.68,948.6,493.36Zm30.54,34q-2.91,6.63-5.23,13.33c-1.85,5.36-2.77,8-4.56,13.41A105.55,105.55,0,0,0,987,546.28c6.85-3.8,11.72-7.64,14.43-11.5a6.25,6.25,0,0,0,1.7-3.24c.39-2.94-1.86-4.75-6.75-5.34C992.51,525.73,986.73,526.08,979.14,527.41Z" transform="translate(-620.1 -365.1)"/>
      <path class="cls-4" d="M1155.88,527.46q-7.44,17.28-14.79,34.6c-10.92-3.4-21.84-6.71-33-9.27-19.43,29.32-36.25,60-49.14,92.75q-18.37-.48-36.74.4,20.34-51,44-100.38-6.84-.82-13.72-1.28c-5.4-.35-8.09-.5-13.48-.72q2.14-18.85,4.1-37.71A728.07,728.07,0,0,1,1155.88,527.46Z" transform="translate(-620.1 -365.1)"/>
      <path class="cls-4" d="M1116,638.81a24,24,0,0,1,12.2,7.05c3.45,3.82,4.45,7.87,2.64,12.08-2.45,5.7-8,9.42-16.36,11.56a39.86,39.86,0,0,1-19,.47c-4.94-1.11-8.88-3-11.72-5.84-3.42-3.38-4.48-7.29-3.07-11.65,1.91-5.9,6.9-10.4,15.14-13.06A36.3,36.3,0,0,1,1116,638.81Zm74.13-105.41c16.83,9.92,33.2,20.67,49.06,32.06-17.42,7.95-34.59,16.36-50.59,26.89-15.5,10.19-29.07,22.82-42,36.07-9.87-4.62-19.74-9-29.78-13.28A1065.39,1065.39,0,0,1,1190.15,533.4Z" transform="translate(-620.1 -365.1)"/>
    </g>
    <g>
      <path class="cls-5" d="M732.25,546.71c-1,2.39-10.14,7-16.34,11.59s-9.47,7.09-15.61,12c-2.27-5.83-5.45-8-9.54-6.32-5.81,2.33-10.56,7.35-14,14.95-2.34,5.53-2.35,10-.16,13.17,1.44,2.1,4.82,2,10.06-.27A90.12,90.12,0,0,0,697.49,586a109,109,0,0,1,16.68-8.37c8.08-3.17,20.25-5.22,26.17,3.2a30,30,0,0,1,3.23,6.93c3.2,9.86.68,20.26-1.8,29.63-4.19,15.81-13.71,30.87-23.88,44-5.87,7.57-12.26,13-19.48,16.53a49.3,49.3,0,0,1-22,4.72c-.91-13.17-.75-26.33-.47-39.52a31,31,0,0,0,15.83-2.7,34.34,34.34,0,0,0,6.38-4,79.52,79.52,0,0,0,10.47-9.5c4.47-5,6.24-8.92,5.11-11.77-1.23-3.09-4.8-3.49-10.69-1-4,1.67-9.56,4.85-16.49,9.69s-12.25,8.31-16.14,10.24c-5.15,2.56-9.5,3.79-13.14,3.6-7-.21-11.85-3.68-14.36-10.65-7.38-20.48,1-43.51,8.92-62,8.66-20.32,23-43.13,44.49-52.26,15.77-6.71,27.81,3.36,32.35,18.58C730,535.69,733.27,544.34,732.25,546.71Z" transform="translate(-620.1 -365.1)"/>
      <path class="cls-5" d="M839,478.89q1.44,18.53,3,37.05c-11.07,2-22.11,4.16-33,7-3.55,34.57-4.24,69.1-.5,103.69q-16.47,8.05-32.34,17.28-5.42-53.94-7.29-108.05-6.42,2.45-12.72,5.2c-4.94,2.19-7.39,3.31-12.28,5.6q-6.78-17.46-13.73-34.85A734.32,734.32,0,0,1,839,478.89Z" transform="translate(-620.1 -365.1)"/>
      <path class="cls-5" d="M816,636.51c9.59-50.72,21.53-100.89,33.22-151.15a759.5,759.5,0,0,1,80.68-13.82c-11.59,46.69-12.76,95.2-12.31,143.06-14.78,3.45-29.31,7.35-43.83,11.78.35-10.06.56-15.08,1-25.14-5.72,1.52-8.57,2.31-14.22,4-1,7.18-1.52,10.78-2.44,18C843.87,627.19,829.89,631.6,816,636.51Zm60.24-62.32q2.47-38,6.14-75.94l-.26,0C875.64,524.38,870,550.58,865.21,577,869.58,575.86,871.78,575.28,876.19,574.19Z" transform="translate(-620.1 -365.1)"/>
      <path class="cls-5" d="M945.56,482.78c22.89-3.72,46.46-5.74,69.19-2.93,11.76,1.46,35.77,7.8,31.86,24.62-5.46,23.42-31.79,36.25-51,46.29,5.79,17.25,12.93,34.08,19,51.24-12.66,7.26-25.11,14.85-37.25,22.94-5.29-19.23-11.32-38.29-18.16-57l-.24,0-.29-.07c-4.27,15.81-7.94,31.6-10.91,47.7-11.21,2.44-22.23,5.08-33.32,8,.25-2.93,1.66-11.8,4.57-26.57Q930.26,539.39,945.56,482.78ZM976,516.42c-1.93,4.36-3.66,8.76-5.19,13.16-1.84,5.3-2.75,7.94-4.53,13.25a106.54,106.54,0,0,0,17.59-7.76c6.81-3.76,11.65-7.55,14.34-11.36a6,6,0,0,0,1.69-3.2c.38-2.9-1.86-4.69-6.73-5.28C989.28,514.77,983.52,515.11,976,516.42Z" transform="translate(-620.1 -365.1)"/>
      <path class="cls-5" d="M1151.73,516.57q-7.32,17.08-14.57,34.2c-10.87-3.37-21.74-6.65-32.84-9.19-19.23,28.95-35.87,59.22-48.6,91.62q-18.32-.51-36.63.34,20.14-50.32,43.54-99.15-6.81-.81-13.65-1.27c-5.37-.35-8.06-.5-13.41-.72q2.09-18.61,4-37.25A728.54,728.54,0,0,1,1151.73,516.57Z" transform="translate(-620.1 -365.1)"/>
      <path class="cls-5" d="M1112.55,626.62a24.15,24.15,0,0,1,12.18,7c3.45,3.79,4.46,7.8,2.68,12-2.41,5.63-7.94,9.29-16.23,11.41a40.19,40.19,0,0,1-18.92.42c-4.92-1.1-8.86-3-11.71-5.79-3.42-3.35-4.49-7.22-3.1-11.53,1.87-5.83,6.83-10.27,15-12.89A36.47,36.47,0,0,1,1112.55,626.62Zm73.25-104.14c16.68,10,32.9,20.58,48.86,31.73-17.26,7.85-34.27,16.16-50.12,26.55-15.35,10.06-28.79,22.54-41.59,35.63-9.84-4.59-19.69-8.95-29.69-13.17A1055,1055,0,0,1,1185.8,522.48Z" transform="translate(-620.1 -365.1)"/>
    </g>
  </g>
</svg>
