<svg xmlns="http://www.w3.org/2000/svg" xmlns:xlink="http://www.w3.org/1999/xlink" viewBox="0 0 279.75 279.78">
  <defs>
    <style>
      .a {
        fill: url(#a);
      }

      .b {
        fill: #fc3;
      }

      .c {
        opacity: 0.11;
      }

      .d {
        fill: url(#b);
      }

      .e {
        fill: url(#c);
      }
    </style>
    <radialGradient id="a" data-name="Ikke-navngivet forløb 30" cx="139.75" cy="139.86" r="138.5" gradientUnits="userSpaceOnUse">
      <stop offset="0.25" stop-color="#fff" stop-opacity="0"/>
      <stop offset="0.38" stop-color="#fffffd" stop-opacity="0.01"/>
      <stop offset="0.46" stop-color="#fffdf6" stop-opacity="0.04"/>
      <stop offset="0.53" stop-color="#fffaeb" stop-opacity="0.1"/>
      <stop offset="0.58" stop-color="#fff6db" stop-opacity="0.18"/>
      <stop offset="0.64" stop-color="#fff1c6" stop-opacity="0.28"/>
      <stop offset="0.69" stop-color="#ffeaad" stop-opacity="0.4"/>
      <stop offset="0.73" stop-color="#ffe38e" stop-opacity="0.55"/>
      <stop offset="0.77" stop-color="#ffda6b" stop-opacity="0.72"/>
      <stop offset="0.81" stop-color="#ffd044" stop-opacity="0.91"/>
      <stop offset="0.83" stop-color="#fc3"/>
      <stop offset="0.9" stop-color="#fcee21"/>
      <stop offset="0.93" stop-color="#fcee21"/>
      <stop offset="0.98" stop-color="#fc3"/>
      <stop offset="0.99" stop-color="#ffcc35"/>
      <stop offset="0.99" stop-color="#ffce3c"/>
      <stop offset="0.99" stop-color="#ffd147"/>
      <stop offset="0.99" stop-color="#ffd558"/>
      <stop offset="0.99" stop-color="#ffdb6e"/>
      <stop offset="1" stop-color="#ffe28a"/>
      <stop offset="1" stop-color="#ffeaaa"/>
      <stop offset="1" stop-color="#fff3d0"/>
      <stop offset="1" stop-color="#fffdf9"/>
      <stop offset="1" stop-color="#fff"/>
    </radialGradient>
    <radialGradient id="b" data-name="Ikke-navngivet forløb 26" cx="141.25" cy="122.36" r="112.5" gradientUnits="userSpaceOnUse">
      <stop offset="0" stop-color="#fc3"/>
      <stop offset="1" stop-color="#ff0"/>
    </radialGradient>
    <radialGradient id="c" data-name="Ikke-navngivet forløb 13" cx="961" cy="522" r="114" gradientUnits="userSpaceOnUse">
      <stop offset="0" stop-color="lime"/>
      <stop offset="1"/>
    </radialGradient>
  </defs>
  <title>yellow_btn</title>
  <g>
    <circle class="a" cx="139.75" cy="139.86" r="138.5"/>
    <path d="M1096.5,539.5c-.28,56.91-36.29,109.17-90,128.72s-115.55,2.92-152.27-41c-37.08-44.35-41.93-109.35-11.93-158.76,29.64-48.82,88.15-74.56,144.19-63.31,55.44,11.13,99.35,56.85,108.29,112.68a142.77,142.77,0,0,1,1.69,21.66,1.5,1.5,0,0,0,3,0c-.29-58.09-36.93-111.18-91.55-131.38-55.29-20.46-119.29-3-156.64,42.54C814.09,496,809.24,561.81,839.73,612c30.39,50,90.2,76.19,147.58,64.69,56.84-11.38,102-58.8,110.6-116.12a147.64,147.64,0,0,0,1.59-21.11A1.5,1.5,0,0,0,1096.5,539.5Z" transform="translate(-819.75 -399.64)"/>
  </g>
  <g>
    <circle class="b" cx="139.75" cy="139.86" r="114"/>
    <g>
      <path class="c" d="M1065.79,545.78a89.63,89.63,0,0,1-1.38,15,72.32,72.32,0,0,1-2.45,10.79,73.35,73.35,0,0,1-3.47,10.3,100.14,100.14,0,0,1-6.31,12.76l.2-.32-4,6.27.22-.3-4.38,6,.24-.29-4.76,5.65.26-.28-5.11,5.31.27-.26-5.45,5,.29-.25-5.76,4.61.31-.23-6.07,4.23.33-.21-6.34,3.83.34-.19-6.59,3.42.36-.16-6.83,3,.37-.14-7.05,2.55.39-.12-7.24,2.1.39-.09-7.42,1.62.4-.07L972,646.34l.41,0-7.71.64.41,0-7.82.12h.41l-7.92-.41.42,0-7.88-.95.42.07-7.69-1.48.41.1-7.48-2,.41.13-7.26-2.46.4.15-7-2.91.39.18-6.77-3.35.38.2-6.5-3.76.37.23-6.22-4.16.35.25-5.92-4.53.34.27-5.6-4.89.32.29-5.27-5.22.31.31-4.94-5.54.29.33-4.57-5.84.27.35a124.09,124.09,0,0,1-13.53-24.41,109,109,0,0,1,169.07-125.55,110.52,110.52,0,0,1,30.4,37.86,108.6,108.6,0,0,1,10.86,41.31,110.58,110.58,0,0,1-.11,14.9c0,.44,0,.3.31.17l.54-.74c.56-.92,1.1-1.86,1.61-2.81.8-1.45,1.6-2.91,2.34-4.39a4.48,4.48,0,0,0,.75-2.06,128.09,128.09,0,0,0-1.43-15.51,124,124,0,0,0-3.31-14.49,114.21,114.21,0,0,0-23-41.87c-21.94-25.5-55.19-40.92-89-39.87a117.26,117.26,0,0,0-44.34,9.88,113.42,113.42,0,0,0-40.79,30.65,120.28,120.28,0,0,0-21.46,38.4,110.65,110.65,0,0,0-5.51,30.28A114.48,114.48,0,0,0,992.53,649.13a117.2,117.2,0,0,0,39-20.71,113.63,113.63,0,0,0,31.43-40,116.13,116.13,0,0,0,7.55-21,188.41,188.41,0,0,0,4.5-29.3,1.72,1.72,0,0,0-1.16.57q-1.89,1.46-3.71,3t-3.61,3.1A1.76,1.76,0,0,0,1065.79,545.78Z" transform="translate(-819.75 -399.64)"/>
      <path class="c" d="M1066,547.59a94.59,94.59,0,0,1-1.37,15l.07-.35-1.53,7.61.08-.35a96.4,96.4,0,0,1-4.42,13.77l-2.91,6.49a97.83,97.83,0,0,1-11.19,17.79,105.28,105.28,0,0,1-31.48,27.06,110.63,110.63,0,0,1-36.56,12.69,111.94,111.94,0,0,1-40.35-1.13,105.93,105.93,0,0,1-39-17.21,107.76,107.76,0,0,1-28.89-30.08,111.89,111.89,0,0,1-14.9-35.64,109.34,109.34,0,0,1-.76-43.84c5-26.67,20.3-51.45,42.36-67.39a110.07,110.07,0,0,1,37.86-18,112.66,112.66,0,0,1,39.91-2.6,109.17,109.17,0,0,1,90.62,74.27,116.07,116.07,0,0,1,4.1,17.33,81.78,81.78,0,0,1,1.19,10.81,109.4,109.4,0,0,1-.19,14.82c-.06,1.43,1.91-3,1.62-2.41q1.13-2.5,2.17-5a14.37,14.37,0,0,0,1-2.69,136.15,136.15,0,0,0-2.53-22.95,113.44,113.44,0,0,0-8.42-24.66,114.21,114.21,0,1,0,2.32,91.7c5.64-14,7.88-28.69,9.2-43.61a1.67,1.67,0,0,0-1,.7c-1.1,1.08-2.18,2.2-3.22,3.34s-2.1,2.27-3.11,3.44A1.72,1.72,0,0,0,1066,547.59Z" transform="translate(-819.75 -399.64)"/>
      <path class="c" d="M1062.12,547.1l.67,7a83.22,83.22,0,0,1-1.8,11.11,86.7,86.7,0,0,1-5.39,17.13,102.09,102.09,0,0,1-16.84,26.24A107.29,107.29,0,0,1,867.32,593,112,112,0,0,1,855,564.28c-4.67-17.34-5.44-35.47-.76-53.49a132,132,0,0,1,4.35-13.74c7.88-20.72,23.09-38.67,41.56-50.73a107.19,107.19,0,0,1,15.38-8.42c36.2-16,86.84-8,116.19,18.8a109.28,109.28,0,0,1,19.7,23.84,105.62,105.62,0,0,1,13.05,32.06,127.31,127.31,0,0,1,2.25,14,122.43,122.43,0,0,1-.14,21.83c-.07.92,1.21-.23,1.24-.72a113.93,113.93,0,0,0,.42-14.78,108.05,108.05,0,0,0-1.5-14.36,109.26,109.26,0,0,0-5.62-20.49,110.55,110.55,0,0,0-26.92-40.39,108.53,108.53,0,0,0-56.48-28.41,112.11,112.11,0,0,0-51.24,3.46c-32.35,9.78-59.12,35.69-70.61,67.35a109.72,109.72,0,0,0,67,140.81c31.53,10.84,67,6.15,94.95-11.94a102.71,102.71,0,0,0,42.3-53.9,88.49,88.49,0,0,0,3.46-14.17,20.9,20.9,0,0,0-.24-14.17C1063.15,546,1062.08,546.65,1062.12,547.1Z" transform="translate(-819.75 -399.64)"/>
      <path class="c" d="M1062.94,552.3a112.83,112.83,0,0,1-1.21,14.92l-1.53,7.22-7.54,19.74a100.31,100.31,0,0,1-16.24,22.71,106.5,106.5,0,0,1-60.31,31.73L867.12,598l-3.4-6a107.64,107.64,0,0,1,48.45-146.82,52.61,52.61,0,0,1,6.33-2.82,54.41,54.41,0,0,1,28-4.35,55,55,0,0,1,28.43-2.5,52.3,52.3,0,0,1,7.24,1.3,107,107,0,0,1,49.3,25.4,108.9,108.9,0,0,1,17.85,20.88,67.2,67.2,0,0,1,11.55,32.39,54.57,54.57,0,0,1,6.21,27.15,83.57,83.57,0,0,1-.52,11.07c0,.59.17.63.55.22a7.14,7.14,0,0,0,1.29-3.14,131.38,131.38,0,0,0,.18-15.37,108.48,108.48,0,0,0-21.73-59.29A111.5,111.5,0,0,0,1010.26,445,109.19,109.19,0,0,0,889.49,625.45a108.11,108.11,0,0,0,51.18,23.85,109.6,109.6,0,0,0,76.68-15.25,105.88,105.88,0,0,0,37.88-41.48,100,100,0,0,0,5.68-13.81,96.18,96.18,0,0,0,3.5-14.49,110.9,110.9,0,0,0,1.19-14.68c0-.74-1.06.45-1,.41C1064.12,550.5,1063,551.54,1062.94,552.3Z" transform="translate(-819.75 -399.64)"/>
      <path class="c" d="M1065.32,548.34a90.31,90.31,0,0,1-1.33,15,94.23,94.23,0,0,1-3.45,14.25l.15-.4-2.62,7.14.17-.4-3.09,6.86.18-.38a116.24,116.24,0,0,1-15.64,23.09,107.31,107.31,0,0,1-21,18.05,108.84,108.84,0,0,1-103.19,8.66,109.9,109.9,0,0,1-43.43-34.55C850.2,576.53,844.17,537.25,856.64,503a109.68,109.68,0,0,1,68.54-66.38,112.55,112.55,0,0,1,14.23-3.67L939,433l7.56-1.18-.41.06,7.7-.67-.41,0,7.81-.16h-.41l7.91.36-.41,0,7.86.9-.4,0A126.23,126.23,0,0,1,997,437.72a103.91,103.91,0,0,1,19.18,9.32,112.89,112.89,0,0,1,28.6,25.52A107.33,107.33,0,0,1,1063,506.34a108.48,108.48,0,0,1,4.64,20.92,141.51,141.51,0,0,1,.44,22.08c0,.45,0,.47.32.15l.59-1c.6-1.22,1.19-2.46,1.75-3.71.88-1.91,1.74-3.83,2.56-5.77a6.74,6.74,0,0,0,.83-2.63,135.9,135.9,0,0,0-3-23.06,114.19,114.19,0,0,0-10.58-28,114.84,114.84,0,0,0-96.45-60.46,117.12,117.12,0,0,0-52.3,10.23c-31.56,14-55.47,43.34-63.74,76.72a114.76,114.76,0,0,0,222.75,55.33c2.42-9.67,3.57-19.67,4.5-29.57a2.51,2.51,0,0,0-1.27.93c-1.38,1.38-2.72,2.79-4,4.21s-2.64,2.86-3.91,4.32A2.56,2.56,0,0,0,1065.32,548.34Z" transform="translate(-819.75 -399.64)"/>
      <path class="c" d="M1066,546.44l-.38,7.57a84,84,0,0,1-1.72,11.06,118.31,118.31,0,0,1-5.18,17.44l.16-.35-3.09,6.86.18-.35-3.53,6.58.19-.33-4,6.28.22-.32-4.36,6,.23-.31-4.74,5.67.26-.3-5.1,5.34.27-.29-5.42,5,.29-.26-5.75,4.63.31-.25-6,4.25.32-.23L1012.8,634l.34-.2-6.57,3.45.35-.19-6.8,3,.36-.16-7,2.59.38-.14-7.22,2.13.39-.11L979.62,646l.39-.09-7.55,1.18.4-.06-7.68.67.4,0-7.8.17h.4l-7.9-.37.41,0-7.87-.91.41,0-7.67-1.42.4.08-7.47-1.93.4.11a143.76,143.76,0,0,1-13.51-5A107.63,107.63,0,0,1,899.9,630a109.11,109.11,0,1,1,154.73-145A113.85,113.85,0,0,1,1065.28,511a102,102,0,0,1,3.08,17.76,136.4,136.4,0,0,1,.22,18.53c0,.47,0,.31.32.15l.55-.84c.57-1,1.11-2.09,1.63-3.15.82-1.62,1.62-3.26,2.38-4.91a5.17,5.17,0,0,0,.75-2.27,135.5,135.5,0,0,0-1.5-15.54,112.93,112.93,0,0,0-3.48-14.84,114.3,114.3,0,0,0-12.35-27.06A114.22,114.22,0,1,0,1071,567a194.59,194.59,0,0,0,4.5-29.4,2,2,0,0,0-1.2.7c-1.3,1.11-2.56,2.25-3.81,3.42s-2.49,2.33-3.7,3.54A2,2,0,0,0,1066,546.44Z" transform="translate(-819.75 -399.64)"/>
      <path class="c" d="M1064,550.2l-.29,7.21a76.54,76.54,0,0,1-1.69,11.06,92.32,92.32,0,0,1-4,13.93,98.89,98.89,0,0,1-15.56,27.37,108.41,108.41,0,0,1-50.9,34.72q-40.72,14.1-72.29-38l-65.49-40L853,563a109.51,109.51,0,0,1-2-14.2,113.06,113.06,0,0,1,2.5-32.91c4.84-21.71,17.35-41.65,34-56.26a108.63,108.63,0,0,1,177,55.78,117.62,117.62,0,0,1,2.46,14.07,123.41,123.41,0,0,1,.17,22c-.08,1.21,1.6-2.22,1.35-1.7.58-1.22,1.14-2.46,1.68-3.7a8.06,8.06,0,0,0,.7-2,143.59,143.59,0,0,0-1.53-22.61,111.08,111.08,0,0,0-28.5-57.29c-19.61-21.39-48.18-34.11-77.08-35.09a112.15,112.15,0,0,0-79.11,29.28c-21.18,19.41-34.82,47.34-35.94,76.19-.57,14.7,1.29,29.66,6.46,43.5a111.86,111.86,0,0,0,56,62.35,110.48,110.48,0,0,0,43.12,11c14.91.52,30.09-1.47,44.07-6.87a113.49,113.49,0,0,0,33.9-20.25,108.47,108.47,0,0,0,26.24-34,104.06,104.06,0,0,0,7.6-20.66c2.15-8.55,3.06-17.22,3.77-26a1.1,1.1,0,0,0-.84.49c-.82.82-1.61,1.67-2.38,2.54S1064,549,1064,550.2Z" transform="translate(-819.75 -399.64)"/>
      <path class="c" d="M1063.67,548.12l-.07,7.49a71.57,71.57,0,0,1-1.75,11.08,47.25,47.25,0,0,1-10.29,22.12,49.72,49.72,0,0,1-11.8,21.12c-23.52,26.68-63.55,40.38-98.49,34.37A107.38,107.38,0,0,1,885.54,616a107.88,107.88,0,0,1-33.19-85.78q.57-17.67,12.51-32.63,2.45-18.83,14.58-31.51a102.55,102.55,0,0,1,12.51-12,110.16,110.16,0,0,1,54-23.21A107.55,107.55,0,0,1,1009.64,442a109.23,109.23,0,0,1,55.63,71.89,118.46,118.46,0,0,1,2.26,14,122.89,122.89,0,0,1-.14,21.87c0,.41.25.38.52.28s.83-1.23.85-1.56a111.52,111.52,0,0,0,.37-14.85,107.69,107.69,0,0,0-1.57-14.44,105.2,105.2,0,0,0-8.5-27,112.82,112.82,0,0,0-29.77-38.55,108.85,108.85,0,0,0-45-22.25,110.73,110.73,0,0,0-52,.77c-25.3,6.54-48.53,22.5-63.18,44.25a112.81,112.81,0,0,0-13,25.53,109.41,109.41,0,0,0,144.33,137.74,108.89,108.89,0,0,0,39.32-27.4,102.69,102.69,0,0,0,15.77-22.81,100,100,0,0,0,5.58-13.41,94,94,0,0,0,3.51-14.24,50.15,50.15,0,0,0,.85-14.87C1065.45,546.22,1063.67,547.6,1063.67,548.12Z" transform="translate(-819.75 -399.64)"/>
      <path class="c" d="M1065,550.09a90.79,90.79,0,0,1-1.31,15l0-.35a92.81,92.81,0,0,1-3.44,14.21l-2.47,6.71a95.52,95.52,0,0,1-10,18.48,103.52,103.52,0,0,1-29.66,28.72,108.1,108.1,0,0,1-38.81,15.45,111.88,111.88,0,0,1-40.1-.11,106.83,106.83,0,0,1-39.43-16,112.86,112.86,0,0,1-27.68-26.25,108.5,108.5,0,0,1-5.32-121.62,110.35,110.35,0,0,1,59.5-46.5c13.83-4.61,28.64-5.9,43.11-4.78,28.31,2.18,55.9,16.91,73.77,38.91a110.08,110.08,0,0,1,20,36.54,115.77,115.77,0,0,1,4,17.32,82.9,82.9,0,0,1,1.1,10.78,110.15,110.15,0,0,1-.3,14.76c-.08,1.47,1.88-3.22,1.58-2.53.73-1.74,1.42-3.5,2.1-5.26a15.3,15.3,0,0,0,.92-2.8,113,113,0,0,0-3.87-30.15,112.28,112.28,0,0,0-11.27-27.1,112.62,112.62,0,0,0-176.72-23.91,115.36,115.36,0,0,0-27,42.14A111.77,111.77,0,0,0,849,561.07a112.6,112.6,0,0,0,172.54,73.13,112.83,112.83,0,0,0,34.79-36.45,110.07,110.07,0,0,0,11.48-27.07c2.65-9.73,3.75-19.8,4.67-29.81a1.72,1.72,0,0,0-1,.78q-1.56,1.76-3,3.59t-2.91,3.7A1.71,1.71,0,0,0,1065,550.09Z" transform="translate(-819.75 -399.64)"/>
      <path class="c" d="M1065.47,547.38l-.36,7.59a84,84,0,0,1-1.72,11.06,116.31,116.31,0,0,1-5.19,17.4l.17-.37-3.1,6.86.19-.36-3.55,6.58.21-.36-4,6.29.22-.34a117.43,117.43,0,0,1-13.41,16,115.49,115.49,0,0,1-13.4,11.07,111.07,111.07,0,0,1-34.85,16.23c-25.71,7-54.29,3.56-77.82-8.79-22.61-11.86-41.31-32.11-50.68-55.95-9.74-24.78-10.94-53.18-1.46-78.28,9.09-24.08,26.37-45.15,49-57.65a116.69,116.69,0,0,1,33.08-12.16,101.47,101.47,0,0,1,21.78-1.95,108.16,108.16,0,0,1,22.19,2.48A114.24,114.24,0,0,1,1016,446.05a107.47,107.47,0,0,1,28.68,25.41A112.73,112.73,0,0,1,1063,505.2a100.22,100.22,0,0,1,4.71,20.95,140.94,140.94,0,0,1,.49,22.13c0,.47,0,.39.32.16l.58-.93c.61-1.13,1.19-2.27,1.74-3.43.87-1.78,1.74-3.56,2.55-5.36a5.88,5.88,0,0,0,.82-2.46,137.54,137.54,0,0,0-1.49-15.54,117.68,117.68,0,0,0-3.48-14.85A112.38,112.38,0,0,0,1053,473a116.94,116.94,0,0,0-45-37.53,114.77,114.77,0,1,0-8,211.41,117.08,117.08,0,0,0,52.2-39.79,109.64,109.64,0,0,0,16.68-32.82c3.69-11.93,5.41-24.31,6.57-36.71a2.34,2.34,0,0,0-1.26.82c-1.36,1.25-2.7,2.52-4,3.83s-2.62,2.6-3.89,3.94A2.24,2.24,0,0,0,1065.47,547.38Z" transform="translate(-819.75 -399.64)"/>
      <path class="c" d="M1065.46,549.17a100.09,100.09,0,0,1-2.75,21.9l-2,7a97.75,97.75,0,0,1-8.76,19.36,102.62,102.62,0,0,1-27.76,30.7A108.18,108.18,0,0,1,903,633.25a112.57,112.57,0,0,1-28.4-25.51,108.17,108.17,0,0,1,15.72-150.57c21.78-18.53,51.22-27.4,79.61-24.9s55.63,16.63,73.64,38.76a112.38,112.38,0,0,1,18.88,33.17,107.69,107.69,0,0,1,5.16,20.62,83,83,0,0,1,1.1,10.79,110.48,110.48,0,0,1-.29,14.78c-.07,1.34,1.7-2.79,1.43-2.15.62-1.5,1.21-3,1.79-4.52a11.41,11.41,0,0,0,.75-2.41,144,144,0,0,0-2-22.82,112.15,112.15,0,0,0-6.33-21.3A113.29,113.29,0,0,0,1040.23,461c-20.41-21.35-49.82-33.61-79.25-33.89a113.41,113.41,0,0,0-79.81,32.09c-20.92,20.43-33.8,49.36-33.88,78.73,0,14.9,2.4,30,8.15,43.77A113.19,113.19,0,0,0,914,642.54a112.24,112.24,0,0,0,43.59,9.71c15,.11,30.15-2.3,44-8.07A115.07,115.07,0,0,0,1035.22,623a110.63,110.63,0,0,0,25.71-34.71,107.59,107.59,0,0,0,7.34-20.9,178.71,178.71,0,0,0,3.77-26,1.34,1.34,0,0,0-.92.62c-.91,1-1.8,2-2.66,3C1067.74,545.89,1065.52,547.84,1065.46,549.17Z" transform="translate(-819.75 -399.64)"/>
      <path class="c" d="M1063.38,553l-.23,7.61a60.14,60.14,0,0,1-2.74,14.37,45.59,45.59,0,0,1-3.06,10.24,48.36,48.36,0,0,1-2.79,6.5,102.64,102.64,0,0,1-17.62,25.66,98.07,98.07,0,0,1-12.85,11.41,53.47,53.47,0,0,1-21.51,10.45A61.08,61.08,0,0,1,976.86,649a112.34,112.34,0,0,1-32.65.21,106.67,106.67,0,0,1-56.76-26.86,113,113,0,0,1-19.71-23.83,80.68,80.68,0,0,1-4.91-9.11,54.18,54.18,0,0,1-5.52-16.55,53.86,53.86,0,0,1-4.45-17,80,80,0,0,1-.87-10.71,111.31,111.31,0,0,1,4.14-32.52,105.75,105.75,0,0,1,13.1-28.75,111.06,111.06,0,0,1,46.64-39.71c32-14.82,70.21-11.62,99.71,6.3,24.26,14.75,42.84,40.14,49.3,68.08a117.63,117.63,0,0,1,2.28,14.08c.79,7.37.4,14.64-.14,22,0,.54.24.51.55.22a5.33,5.33,0,0,0,1-2.56,112.4,112.4,0,0,0,.36-15.13A110.28,110.28,0,0,0,1051.62,483c-17.89-27.7-48.66-46.92-81.73-49.42a110.88,110.88,0,0,0-67.71,16.35c-28.1,17.67-47.16,47.78-50.53,80.86a109.62,109.62,0,0,0,55.26,106.65,107.86,107.86,0,0,0,144.77-37.56,94.24,94.24,0,0,0,11.09-26.5q.88-3.75,1.59-7.55a70.8,70.8,0,0,0,1.1-15c0-.66-.89.31-.88.3C1064.17,551.51,1063.4,552.35,1063.38,553Z" transform="translate(-819.75 -399.64)"/>
    </g>
  </g>
  <g>
    <circle class="d" cx="141.25" cy="122.36" r="112.5"/>
    <path class="e" d="M1074.37,522a113.44,113.44,0,1,1-8.41-43.47A113.34,113.34,0,0,1,1074.37,522Zm-1.74,0a111.72,111.72,0,1,0-8.29,42.81A111.75,111.75,0,0,0,1072.63,522Z" transform="translate(-819.75 -399.64)"/>
  </g>
</svg>
