<?xml version="1.0" encoding="utf-8"?>
<!-- Generator: Adobe Illustrator 22.1.0, SVG Export Plug-In . SVG Version: 6.00 Build 0)  -->
<svg version="1.1" xmlns="http://www.w3.org/2000/svg" xmlns:xlink="http://www.w3.org/1999/xlink" 
   viewBox="550 420 200 100">
<style type="text/css">
	.st0{fill:#FCE837;}
	.st1{fill:#EB66A2;stroke:#FCE837;stroke-width:2;stroke-miterlimit:10;}
	.st2{fill:none;stroke:#FCE837;stroke-miterlimit:10;}
	.st3{fill:#FCE837;stroke:#FCE837;stroke-miterlimit:10;}
</style>
<g>
	<g>
		<path class="st0" d="M561,487.5c43.9,0,87.8,0,131.7,0c6.3,0,12.6,0,18.8,0c7.7,0,7.7-12,0-12c-43.9,0-87.8,0-131.7,0
			c-6.3,0-12.6,0-18.8,0C553.3,475.5,553.3,487.5,561,487.5L561,487.5z"/>
	</g>
</g>
<g>
	<path class="st1" d="M582.1,431.9l12.1-2.2c-4.9,18.8-8.1,35.1-9.6,48.9l-11.2,3.1L582.1,431.9z"/>
	<path class="st1" d="M597,432.1l12.2-2.5c-0.1,1.5-0.1,3.5-0.1,6.2c0,6.4,0.2,12,0.6,16.8c0.2,2.8,0.6,5,1.1,6.7l4.8-27.4l12.1-2.2
		c-4.9,18.8-8.1,35.1-9.6,48.9l-11.1,3.1c0-0.1-0.4-0.9-0.9-2.5l-3.7-10.4c-0.6-1.7-1-2.8-1.1-3.2c-1,5.5-1.8,10.9-2.3,16.1
		l-11.2,3.4L597,432.1z"/>
	<path class="st1" d="M638.4,442.3c-0.3,1.3-0.6,2.6-0.8,3.9l-0.8,3.8l12.3-2.6l-0.6,9.9c-4.8,0.8-9.4,1.6-13.6,2.6
		c-1.1,6.3-2,12.5-2.7,18.6l-12,3.1l8.2-50.4l24-3.4l-0.8,13C646.8,441.2,642.4,441.7,638.4,442.3z"/>
	<path class="st1" d="M674.3,426.5c5,0,8.5,2.8,10.5,8.3c1.1,2.9,1.6,6,1.6,9.4c0,3.3-0.5,6.8-1.5,10.7c-1.7,6.6-4.7,12.6-9,18.1
		c-5.2,6.8-10.7,10.1-16.5,10.1c-5,0-8.6-2.8-10.7-8.3c-1-2.7-1.5-5.8-1.5-9.1c0-3.3,0.5-6.9,1.5-10.8c1.7-6.6,4.7-12.7,8.9-18.2
		C662.9,429.9,668.4,426.5,674.3,426.5z M671.8,444c-2.6,0-5.2,2.1-7.9,6.3c-2.2,3.3-3.7,6.6-4.5,9.8c-0.4,1.7-0.6,3.2-0.6,4.6
		c0,1.9,0.5,3.5,1.4,4.7c1.1,1.4,2.6,2,4.5,2c2.6,0,5-1.4,7.1-4.1c1.7-2.2,2.9-4.8,3.7-7.8c0.9-3.5,1.1-7,0.6-10.4
		C675.4,445.7,674,444,671.8,444z"/>
	<path class="st1" d="M690.8,470.1c1.6-0.2,3.1,0,4.4,0.7c1.5,0.8,2.2,1.9,2.2,3.5c0,2.2-1.1,4.1-3.4,5.9c-1.8,1.4-3.7,2.2-5.8,2.5
		c-1.7,0.2-3.1,0-4.4-0.6c-1.5-0.7-2.2-1.9-2.2-3.5c0-2.2,1.1-4.1,3.3-6C686.7,471.2,688.7,470.3,690.8,470.1z M698.8,426.3
		l14.7,2.5c-3.9,7-6.8,12.4-8.6,16.4c-2.5,5.4-4.7,11.2-6.6,17.5l-9.8-0.4L698.8,426.3z"/>
</g>
<line class="st2" x1="738.5" y1="481.5" x2="711.5" y2="498.5"/>
<path class="st3" d="M711.5,498.5v-35c27,18,27,18,27,18"/>
</svg>
