<?xml version="1.0" encoding="utf-8"?>
<!-- Generator: Adobe Illustrator 22.1.0, SVG Export Plug-In . SVG Version: 6.00 Build 0)  -->
<svg version="1.1" id="coin8bit" xmlns="http://www.w3.org/2000/svg" xmlns:xlink="http://www.w3.org/1999/xlink" x="0px" y="0px"
	 viewBox="0 0 1920 1920" enable-background="new 0 0 1920 1920" xml:space="preserve">
<g>
	<g>
		<path fill="#F3BC2E" d="M1715,1382.2C1715,1382.2,1715,1382.1,1715,1382.2c-0.4-0.2-0.8-0.4-1.2-0.5c-0.2-0.1-0.5-0.1-0.7,0
			c-11,0-22,0-33,0c-0.8-0.2-1.6-0.1-2,0.8c0,23.7-0.1,47.5-0.1,71.2c-0.6,0.5-1.2,1-1.8,1.5c-11,0-22,0-33.1,0
			c-0.4-0.4-0.8-0.3-1,0.2c-0.1,0.2-0.3,0.3-0.5,0.3c-0.1,0.4-0.2,0.7-0.3,1.1c0,10.6,0,21.3,0,31.9c0,0.4,0,0.7,0,1.1
			c0,0.7-0.1,1.4-0.1,2l0.1-0.1c-11,0-22,0-33.1,0.1c-0.4,0-0.8,0-1.1,0c-3.1,0.4-2.1,2.9-2.2,4.6c-0.2,10.5-0.2,21.1-0.3,31.6
			c-0.9-0.3-1.7-0.3-2.4,0.5c-10,0-20,0.2-30,0.1c-3.3-0.1-4.2,1-4.2,4.2c0.2,11,0.1,22,0.1,33l0.1-0.1c-10.6-0.1-21.3,0-31.9-0.3
			c-3.8-0.1-5.2,0.9-5.1,4.9c0.3,10.1,0,20.3-0.1,30.4c0,0.4,0,0.7,0,1.1c0,0,0,0,0,0c-0.7,0-1.5,0-2.2,0.1c-11.2,0-22.5,0-33.7,0.1
			c-0.1-10-0.4-20-0.1-29.9c0.1-4.7-1.2-6.5-6.2-6.3c-10.3,0.3-20.6,0.1-30.9,0.1c0-10.8-0.1-21.6,0.1-32.4c0-3.3-0.6-4.8-4.4-4.7
			c-9.5,0.2-18.9,0.2-28.4,0c-3.7-0.1-4.4,1.5-4.3,4.7c0.1,10.8,0,21.6,0,32.4c-10.2,0-20.5-0.2-30.7,0.1c-4,0.1-5.5-1-5.4-5.2
			c0.3-10.6,0-21.3,0-31.9c0-10.7,0.2-21.3,0-32c-0.1-4.1,1.3-5.1,5.2-5c8.8,0.2,17.7-0.1,26.5,0.1c3.4,0.1,4.7-0.9,4.6-4.5
			c-0.2-9,0.1-18-0.2-27c-0.1-3.9,1.2-4.8,4.9-4.7c9,0.2,18-0.1,27,0.1c3.9,0.1,5.3-1.2,5.2-5.2c-0.2-8.5,0.2-17-0.1-25.5
			c-0.2-4.9,0.8-6.8,6.2-6.5c8.6,0.5,17.3,0,26,0.2c3.7,0.1,5-1.3,4.9-5c-0.2-9.2,0.1-18.3-0.1-27.5c-0.1-3.4,0.9-4.7,4.5-4.6
			c8.8,0.2,17.7-0.1,26.5,0.2c4.3,0.2,5.4-1.4,5.2-5.4c-0.3-8.8,0-17.7-0.1-26.5c-0.1-3.2,0.9-4.4,4.2-4.3
			c8.8,0.2,17.7-0.2,26.5,0.2c5.2,0.2,6.6-1.7,6.4-6.6c-0.4-8.8,0-17.7-0.2-26.5c-0.1-3.1,1-4.1,4-4c9.2,0.1,18.3-0.2,27.5,0.1
			c4.4,0.2,5.6-1.2,5.6-5.6c-0.2-20.8,0-41.7-0.2-62.5c0-3.8,0.8-5.3,5-5.2c8.7,0.3,17.3-0.1,26,0.2c4.2,0.1,5.3-1.3,5.3-5.4
			c-0.2-22.8-0.1-45.6-0.1-68.5c0-10.7,0.1-21.3,0-32c0-2.7,0.4-4.4,3.8-4.3c8.8,0.3,17.6-0.2,26.4-0.8c6.8-0.4,6.8-0.1,6.8-6.7
			c0-105.3,0-210.6,0-315.9c0-1-0.1-2,0-3c0.3-3.5-1.4-4.6-4.7-4.6c-8.8,0.1-17.7-0.2-26.5,0.1c-4.6,0.2-5.8-1.2-5.8-5.8
			c0.2-33,0-66,0.2-99c0-4.1-1-5.5-5.3-5.4c-8.5,0.3-17-0.2-25.5,0.2c-4.5,0.2-5.6-1.3-5.5-5.6c0.2-21,0-42,0.2-63
			c0-3.5-1-4.7-4.5-4.6c-9.3,0.2-18.7-0.1-28,0.1c-3.4,0.1-4.7-0.9-4.6-4.5c0.2-10.8,0.1-21.7,0-32.5c0-10.5,0.2-20.9-0.1-31.4
			c-0.1-3.8,1.2-4.9,4.9-4.8c8.6,0.2,17.3-0.2,25.9,0.2c4.7,0.2,6.5-1.1,6.3-6.1c-0.4-8.8,0-17.6-0.2-26.4c-0.1-3.4,0.9-4.7,4.5-4.6
			c9,0.2,18-0.1,26.9,0.2c3.7,0.1,4.9-1,4.8-4.8c-0.2-10.8,0-21.6,0.1-32.4c12.3,0,24.6,0.1,36.9,0.1c0,0-0.1-0.1-0.1-0.1
			c0,22.8,0.1,45.6-0.1,68.5c0,4.3,1.3,5.3,5.4,5.2c9.2-0.2,18.3,0.2,27.5,0c3.5-0.1,4.2,1.2,4.1,4.3c-0.2,9,0.1,18-0.2,27
			c-0.1,4,0.8,5.5,5.1,5.3c8.8-0.3,17.7,0.2,26.5-0.1c4.4-0.2,5.1,1.4,5.1,5.4c-0.2,21,0,42-0.2,63c0,4.3,1.4,5.3,5.4,5.2
			c8.8-0.2,17.7,0.3,26.5,0c4.4-0.2,5.1,1.4,5,5.4c-0.2,32.3-0.1,64.6-0.1,97c0,13.3,0,26.7,0,40c0,2.1-0.5,4.4,3,4.3
			c11.3-0.2,22.6-0.1,34-0.2c0,0-0.1-0.1-0.1-0.1c-0.1,2.2-0.2,4.3-0.2,6.5c0,96,0,191.9,0,287.9c0,10.7-0.1,21.3,0.1,32
			c0.1,3.3-0.9,4.3-4.2,4.2c-8.8-0.2-17.7,0.2-26.5-0.2c-5-0.2-6.3,1.1-6.3,6.2c0.2,45.3,0.1,90.6,0.2,135.9c0,3.6-0.7,4.9-4.6,4.7
			c-8.8-0.3-17.7,0.1-26.5-0.2c-4.4-0.2-6,0.9-5.9,5.7c0.3,21.2,0,42.3,0.2,63.5c0,3.5-1,4.6-4.5,4.5c-9.2-0.2-18.3-0.1-27.5,0
			c-1.7,0-3.8-0.9-4.8,1.4c-0.1,0.1-0.3,0.2-0.3,0.3c0.1,0.2,0.2,0.4,0.3,0.7c0,9.7,0,19.4,0,29.1c-0.9,1-0.9,1.9,0,2.9
			C1714.7,1380.5,1714.8,1381.3,1715,1382.2z"/>
		<path fill="#F3BC2E" d="M467.5,244.6l-0.1,0.1c23.2,0,46.3,0,69.5,0.2c3.6,0,4.1-1.4,4-4.4c-0.1-9,0.3-18-0.1-27
			c-0.2-4.7,1.5-5.5,5.6-5.4c8.3,0.3,16.7-0.2,25,0.2c4.7,0.2,6.4-0.9,6.2-5.9c-0.4-8.6,0.2-17.3-0.1-26c-0.1-4,1.1-5,5-4.9
			c21,0.2,42-0.1,63,0.2c4.6,0.1,5.6-1.4,5.5-5.6c-0.3-10.5,0-21,0-31.5l-0.1,0.1c47.5,0,95.1,0,142.6,0.2c3.5,0,4.1-1.4,4.1-4.4
			c0-11,0.3-21.9,0.4-32.9c0,0-0.1,0.1-0.1,0.1c1.6,0.1,3.3,0.4,4.9,0.4c106.4,0,212.8,0,319.2,0c2,0,4-0.2,6-0.4
			c0,0-0.1-0.1-0.1-0.1c0,11.1,0,22.3-0.2,33.4c-0.1,3.3,1.2,3.8,4.1,3.8c47.7-0.1,95.5-0.1,143.2-0.1l-0.1-0.1
			c-0.9,10.5,0.2,21-0.3,31.4c-0.2,4.4,1,5.6,5.5,5.6c22.7-0.2,45.3,0,68,0.1l-0.1-0.1c0,11,0,21.9-0.1,32.9c0,2,0,3.6,2.8,3.5
			c11.4-0.1,22.9-0.1,34.3-0.2c0,0-0.1-0.1-0.1-0.1c-0.1,11,0.1,21.9-0.2,32.9c-0.1,3.7,1.3,4.3,4.6,4.3c10.6-0.1,21.3,0.1,31.9,0.2
			c-0.1,12.2-0.1,24.4-0.2,36.6c-10.5,0-20.9,0.1-31.4-0.1c-3.8-0.1-5.6,1.1-5.6,5c0.1,9.3-0.3,18.6,0.3,27.9
			c0.2,3.5-1.3,3.8-3.4,3.8c-9.6,0.2-19.2,0.4-28.7,0.3c-3.2,0-4.4,1-4.3,4.3c0.2,10.6,0,21.3,0,31.9c-10.8,0-21.7-0.2-32.5,0
			c-3.6,0.1-4.6-1.2-4.5-4.6c0.2-8.7-0.2-17.3,0.2-26c0.2-4.3-0.9-5.7-5.5-5.7c-20.8,0.2-41.6,0-62.5,0.2c-4.2,0-5.4-1.3-5.3-5.4
			c0.3-9.2,0-18.3,0.1-27.5c0.1-3.3-1.1-4.3-4.3-4.3c-12,0.2-24,0.1-36,0.1c-23.3-0.1-46.6-0.1-69.9-0.2c0-10.2-0.2-20.3,0.3-30.5
			c0.2-5.1-1.2-6.4-6.3-6.4c-105.8,0.2-211.6,0.1-317.3,0.1c-0.8,0-1.7,0.1-2.5,0c-3.1-0.4-4.1,1-4,4c0.1,8.5,0.1,17,0,25.5
			c0,7.4,0,7.4-7.6,7.4c-32.5,0-65,0.1-97.5-0.1c-4,0-5.2,1.1-5.1,5.1c0.3,8.5-0.2,17,0.2,25.5c0.2,5-1.2,6.7-6.4,6.6
			c-20.7-0.3-41.3,0-62-0.2c-4.8-0.1-5.9,1.5-5.7,6c0.3,8.7,0,17.3,0.1,26c0.1,3.2-1,4.4-4.3,4.3c-9-0.2-18,0.2-27-0.2
			c-4.1-0.1-5.1,1.3-5,5.1c0.2,9,0,18,0.1,27c0.1,3.6-1.2,5.1-4.9,5c-8.7-0.2-17.3,0.3-26-0.2c-5.4-0.3-6.4,1.6-6.2,6.5
			c0.4,8.6,0,17.3,0.1,26c0.1,3.5-1.2,4.7-4.7,4.7c-9.2-0.2-18.3,0.1-27.5-0.1c-3.6-0.1-5,0.9-4.9,4.7c0.3,9-0.1,18,0.1,27
			c0.1,3.6-1.1,4.6-4.6,4.5c-9.2-0.2-18.3,0-27.5-0.1c-2.9,0-4.2,0.8-4.1,3.9c0.4,9.5-0.5,18.9-0.7,28.4c-0.1,3.8-1.2,4.8-4.9,4.8
			c-8.8-0.2-17.7,0.1-26.5-0.2c-3.7-0.1-5,1-4.9,4.8c0.2,8.7-0.2,17.3,0.2,26c0.2,5.2-1.7,6.5-6.6,6.4c-10.2-0.3-20.3-0.1-30.5,0
			c-10.1,0-20.3,0-30.4,0c-6.5,0-6.5,0-6.5-6.8c0-8.7-0.1-17.3,0.1-26c0.1-3.2-0.9-4.4-4.2-4.3c-8.8,0.2-17.6-0.2-26.4,0.2
			c-4.6,0.2-5.6-1.4-5.5-5.7c0.3-10.5,0.1-21,0.1-31.4c10.7,0,21.3-0.1,32,0c3,0,4.1-0.9,4.1-4c-0.2-9.3-0.2-18.7,0-28
			c0.1-3.5-1.4-4.2-4.5-4.1c-8.7,0.1-17.3,0-26,0.1c-2,0-4,0-5.8-1.1c0.1-2,0.1-3.9,0.2-5.9c1-0.7,1-1.4,0-2c0-1,0-2,0-3
			c1.5-1.3,1-3,1-4.6c0.1-6.8,0.1-13.5,0.1-20.3c1,0,2,0,3,0c10.7,1.6,21.4,1,32.2,0.3c-0.1-0.2-0.1-0.3-0.2-0.5
			c0.9-12.3,0.7-24.7,0-37l-0.1,0.1c11.1,0.1,22.2,0,33.3,0.2c2.6,0,3.9-0.5,3.9-3.5c-0.2-11.1-0.1-22.2-0.1-33.3c0-11,0-22-0.1-33
			c0-2.2,0.1-3.9,3.1-3.8c11.1,0.2,22.3,0.3,33.4,0.4c10.9,0,21.9-0.2,32.8,0c3.3,0,4.3-1,4.2-4.3
			C467.3,266.5,467.5,255.5,467.5,244.6z M394,482.9c0-4.8-0.1-9.7,0-14.5c0.1-2.7-0.8-3.9-3.7-3.8c-9.5,0.1-19,0.1-28.4,0
			c-3.1-0.1-4,1.2-3.9,4.1c0.1,9.5,0.1,19,0,28.4c0,3.2,1.1,4.5,4.4,4.5c9.3-0.1,18.6-0.1,27.9,0c2.8,0,3.8-1,3.7-3.8
			C393.9,492.9,394,487.9,394,482.9z"/>
		<path fill="#030201" d="M1714.6,1376.7c0-9.7,0-19.4,0-29.1c0.2-0.3,0.2-0.6,0-0.9c1-2.4,3.2-1.4,4.8-1.4c9.2-0.1,18.3-0.2,27.5,0
			c3.5,0.1,4.5-1,4.5-4.5c-0.1-21.2,0.1-42.3-0.2-63.5c-0.1-4.8,1.5-5.8,5.9-5.7c8.8,0.3,17.7-0.1,26.5,0.2c3.9,0.1,4.6-1.1,4.6-4.7
			c-0.1-45.3,0-90.6-0.2-135.9c0-5.1,1.3-6.5,6.3-6.2c8.8,0.4,17.7,0,26.5,0.2c3.3,0.1,4.2-0.9,4.2-4.2c-0.2-10.7-0.1-21.3-0.1-32
			c0-96,0-191.9,0-287.9c0-2.2,0.1-4.3,0.2-6.5c10.8,0.1,21.6,0.3,32.4,0.2c2.9,0,4,0.5,4,3.8c-0.1,56-0.1,112-0.1,167.9
			c0,51.3-0.1,102.6,0,153.9c0,3.9-1,4.8-4.7,4.7c-9-0.2-18,0.2-27-0.2c-4.5-0.2-5,1.5-5,5.4c0.1,45.2,0,90.3,0.2,135.5
			c0,5.3-1.6,6.3-6.4,6.1c-8.8-0.4-17.7,0-26.5-0.2c-3.3-0.1-4.1,0.9-4.1,4.2c0.1,21.5,0,43,0.2,64.5c0,3.9-0.9,5.1-4.9,5
			c-9-0.3-18,0.1-27-0.2c-3.7-0.1-5.2,0.6-5,4.8c0.4,9.3,0,18.7,0.2,28c0.1,3-0.7,4-3.9,3.9c-9-0.2-18-0.1-27-0.1c0,0,0,0,0,0
			c-1.9,0.1-3.7,0.2-5.6,0.4c-0.1-0.9-0.2-1.7-0.4-2.6C1714.6,1378.6,1714.6,1377.7,1714.6,1376.7z"/>
		<path fill="#030201" d="M1128,1821.7c-0.1,10.7-0.3,21.3-0.1,32c0.1,3.7-0.6,5.1-4.8,5.1c-107-0.1-213.9-0.1-320.9,0
			c-3.9,0-4.6-1.2-4.5-4.7c0.3-9.2-0.1-18.3,0.2-27.5c0.1-3.8-1-4.7-4.7-4.7c-45.2,0.1-90.3,0.1-135.5,0.1c-6.7,0-6.7,0-6.7-6.9
			c0-9.8,0.1-19.7,0.1-29.5l-0.1,0.1c12.4-0.1,24.7-0.3,37.1-0.4c8.8,0.1,17.6,0.2,26.4,0.2c27.2,0,54.4-0.1,81.6-0.2
			c0,0,0.5,0.2,0.5,0.2l0.5-0.1c0.2,0.2,0.5,0.4,0.8,0.4c0,10.8,0,21.6-0.1,32.4c0,2.6,0.5,3.9,3.5,3.9c23.3-0.2,46.5-0.2,69.8-0.3
			c1.3,0.1,2.6,0.3,4,0.3c70.7,0,141.4,0,212.1,0c1.3,0,2.6-0.2,4-0.2C1103.4,1822,1115.7,1822.2,1128,1821.7L1128,1821.7z"/>
		<path fill="#030201" d="M1825,794.7c-11.3,0-22.6,0-34,0.2c-3.5,0.1-3-2.2-3-4.3c0-13.3,0-26.7,0-40c0-32.3-0.1-64.6,0.1-97
			c0-3.9-0.6-5.5-5-5.4c-8.8,0.3-17.7-0.2-26.5,0c-4,0.1-5.4-0.9-5.4-5.2c0.2-21,0-42,0.2-63c0-4-0.7-5.5-5.1-5.4
			c-8.8,0.3-17.7-0.2-26.5,0.1c-4.4,0.2-5.3-1.3-5.1-5.3c0.3-9,0-18,0.2-27c0.1-3.1-0.6-4.4-4.1-4.3c-9.2,0.2-18.3-0.2-27.5,0
			c-4,0.1-5.4-0.9-5.4-5.2c0.2-22.8,0.1-45.6,0.1-68.5c10.8,0.1,21.6,0.3,32.4,0.2c3.6-0.1,4.4,1.1,4.4,4.5c-0.1,21.5,0,43-0.2,64.4
			c0,3.6,0.8,4.9,4.6,4.7c9.3-0.3,18.6,0,28-0.2c3.3-0.1,4.2,0.9,4.1,4.2c-0.2,9.2,0.2,18.3-0.2,27.5c-0.2,4.3,1.2,5.2,5.3,5.1
			c9.1-0.3,18.3,0,27.5-0.2c3.3-0.1,4.2,0.9,4.2,4.2c-0.2,21.3,0.1,42.6-0.2,63.9c-0.1,4.8,1.4,5.7,5.8,5.6c8.6-0.3,17.3,0.1,26-0.2
			c4.1-0.1,5.3,0.8,5.2,5.1c-0.2,45.3-0.1,90.6-0.1,135.9C1824.8,791.1,1824.9,792.9,1825,794.7z"/>
		<path fill="#030201" d="M97.5,794.9c1.2-0.1,2.3-0.2,3.5-0.3c0,0,0,0,0,0c0,12.3,0.1,24.7,0.1,37c-0.1,1.3-0.2,2.7-0.2,4
			c0,83,0,166,0,249c0,1.3,0.1,2.7,0.2,4c0,12.3-0.1,24.7-0.1,37l0-0.1c-10.6-1.1-21.3-0.4-31.9-0.4c-4.1,0-5.2-1-5.2-5.2
			c0.1-106.4,0.1-212.9,0-319.3c0-4.9,1.3-6.1,6.1-5.9C79.1,795.2,88.3,794.9,97.5,794.9c-0.1,0.1-0.1,0.1-0.2,0.2
			C97.4,795.1,97.5,795,97.5,794.9z"/>
		<path fill="#030201" d="M1128,97.7c-2,0.1-4,0.4-6,0.4c-106.4,0-212.8,0-319.2,0c-1.6,0-3.3-0.3-4.9-0.4c-0.1-11-0.1-22-0.2-33
			c0-2.6,0.7-3.3,3.4-3.3c107.4,0.1,214.9,0.1,322.3,0.1c3.4,0,4.6,0.7,4.5,4.3C1127.7,76.4,1128,87,1128,97.7z"/>
		<path fill="#030201" d="M321,421.7c-0.1,2-0.1,3.9-0.2,5.9c-0.3,0.3-0.6,0.5-0.9,0.8c-0.6,0-1.3,0.1-1.9,0.1c-0.7,0-1.4,0-2,0
			c-0.7,0-1.3,0-2,0c-0.3,0-0.7,0-1,0c-9.3-0.3-18.7-0.4-28,0.1c-1.8,1.2-0.9,3-0.9,4.5c-0.1,9.3-0.2,18.6,0,27.9
			c0.1,3.1-0.9,4-3.9,3.9c-9.1-0.2-18.3,0.2-27.4-0.2c-4.2-0.1-5.3,1.1-5.3,5.3c0.2,21.1,0,42.2,0.2,63.4c0,3.7-0.9,4.9-4.7,4.9
			c-10.3-0.1-20.6,0.2-30.9,0.3c-2.2,0.9-0.9,2.6-0.9,4c-0.1,10.6-0.2,21.3-0.3,31.9c-12.2,0.6-24.5,0.4-36.7,0.1l0.1,0.1
			c0-10.8,0.1-21.7-0.1-32.5c-0.1-3,0.7-4,3.8-4c9.5,0.2,19-0.1,28.5,0.2c3.9,0.1,4.6-1.2,4.6-4.8c-0.2-21.3,0-42.7-0.2-64
			c0-4,1-5,5-4.9c9.3,0.3,18.7-0.1,28,0.2c3.2,0.1,3.8-1,3.8-3.9c-0.2-9.2,0.1-18.3-0.2-27.5c-0.1-4,0.8-5.5,5.1-5.3
			c8.7,0.4,17.3-0.1,26,0.2c4.3,0.2,6.1-0.7,5.8-5.5c-0.4-9,0-18-0.2-27c-0.1-3,0.4-4.4,4-4.3c11,0.3,22,0.2,33,0.2
			c0,0-0.1-0.1-0.1-0.1c-0.1,8.4-0.6,16.7,0,25.1c0,1,0,2,0,3C321,420.3,321,421,321,421.7z"/>
		<path fill="#030201" d="M651,134.6c0,10.5-0.3,21,0,31.5c0.1,4.3-0.9,5.7-5.5,5.6c-21-0.3-42,0-63-0.2c-3.9,0-5.1,1-5,4.9
			c0.3,8.7-0.3,17.3,0.1,26c0.2,5-1.5,6.1-6.2,5.9c-8.3-0.4-16.7,0.1-25-0.2c-4.2-0.2-5.8,0.7-5.6,5.4c0.4,9,0,18,0.1,27
			c0,3-0.5,4.5-4,4.4c-23.2-0.2-46.3-0.2-69.5-0.2c0-10.7,0.3-21.3,0-32c-0.1-3.9,1.1-4.7,4.8-4.7c21.3,0.2,42.7,0,64,0.2
			c3.6,0,4.9-0.6,4.8-4.6c-0.3-9.3,0-18.7-0.2-28c-0.1-3.1,0.6-4.3,4.1-4.2c9.2,0.3,18.3-0.1,27.5,0.2c4,0.1,5.5-0.7,5.3-5.1
			c-0.4-9.2,0.1-18.3-0.2-27.5c-0.1-3.6,1.1-4.4,4.5-4.4C605,134.8,628,134.6,651,134.6z"/>
		<path fill="#030201" d="M798,97.6c-0.2,11-0.4,21.9-0.4,32.9c0,3-0.5,4.4-4.1,4.4c-47.5-0.1-95.1-0.1-142.6-0.2
			c0-10.3,0.2-20.6-0.1-30.9c-0.1-4.3,0.8-5.8,5.6-5.8c45.2,0.2,90.5,0.1,135.7,0.1C794.1,98,796.1,97.7,798,97.6z"/>
		<path fill="#030201" d="M1275.1,134.7c-47.7,0-95.5,0-143.2,0.1c-2.8,0-4.1-0.4-4.1-3.8c0.3-11.1,0.2-22.3,0.2-33.4
			c2,0.1,4,0.4,5.9,0.4c45.1,0,90.3,0.1,135.4-0.1c4,0,5.5,0.8,5.3,5.1c-0.3,8.8,0,17.6,0,26.5c-0.1,0.1-0.2,0.2-0.3,0.4
			c0.1,0,0.2,0,0.3,0C1274.6,131.5,1274.1,133.2,1275.1,134.7z"/>
		<path fill="#030201" d="M1274.5,1786.7c0,10.6,0,21.3,0.1,31.9c0,2.6-0.7,3.4-3.4,3.4c-47.4-0.1-94.8-0.1-142.2-0.1
			c-0.3,0-0.6-0.2-1-0.3c0,0,0,0,0,0c0-12-0.1-24-0.1-36c0,0,0,0,0,0c0.3-0.1,0.6-0.2,1-0.3c24.1,0.1,48.1,0.2,72.2,0.2
			c12.3,0,24.6-0.1,36.8-0.2c10.5,0.1,21.1,0.1,31.6,0.2C1271.3,1785.5,1273.2,1784.8,1274.5,1786.7z"/>
		<path fill="#030201" d="M137,1271.6c-11.1,0.1-22.3,0.1-33.4,0.2c-2.2,0-3-0.8-2.8-2.9c0.1-1,0-2,0-3c0-44.8,0-89.6,0-134.4
			c0-2,0.2-4,0.2-6c0,0,0,0.1,0,0.1c10.1-1.1,20.2,0,30.3-0.6c4.8-0.3,6.1,1,6.1,5.9c-0.2,45.2-0.1,90.4-0.1,135.7
			C137.3,1268.4,137.1,1270,137,1271.6L137,1271.6z"/>
		<path fill="#030201" d="M101,794.7c-0.1-3.3-0.2-6.6-0.2-10c0-43.4,0.1-86.8-0.2-130.2c0-5.4,1.6-6.4,6.6-6.3
			c10,0.3,19.9-0.1,29.9-0.2c0.1,1.3,0.2,2.7,0.2,4c0,46,0,92,0,137.9c0,0.7-0.1,1.3,0,2c0.2,2.1-0.7,3-2.9,3
			C123.3,794.8,112.1,794.7,101,794.7C101,794.6,101,794.7,101,794.7z"/>
		<path fill="#030201" d="M1678.1,464.7c-12.3,0-24.6-0.1-36.9-0.1c0-10.3-0.2-20.6,0.1-30.8c0.1-4.2-0.7-5.7-5.3-5.6
			c-10.3,0.4-20.5,0-30.8,0c-1.2-10.8-0.4-21.6-0.5-32.4c0-3.2-0.8-4.3-4.2-4.2c-10.8,0.2-21.7,0-32.5,0c0-12.3,0-24.6,0-36.9
			c0,0-0.1,0.1-0.1,0.1c10.8,0,21.6,0.2,32.4,0c3.6-0.1,4.5,1.1,4.4,4.5c-0.2,9,0.1,18-0.2,26.9c-0.1,4.1,0.6,5.8,5.3,5.5
			c8.8-0.5,17.6,0,26.4-0.2c3.7-0.1,5.2,0.6,5,4.8c-0.4,9.3,0,18.6-0.2,27.9c-0.1,3.3,1,4.2,4.2,4.1c9-0.2,18,0.1,26.9-0.2
			c4.3-0.1,6,0.8,5.8,5.6C1677.7,444,1678,454.4,1678.1,464.7z"/>
		<path fill="#030201" d="M651.1,1785.6c-22.9-0.1-45.9-0.2-68.8-0.1c-3.7,0-4.8-0.8-4.7-4.6c0.3-9.5,0-18.9,0.2-28.4
			c0.1-3-0.6-4-3.8-3.9c-9.8,0.2-19.6,0-29.4,0.1c-2.8,0-3.7-0.8-3.6-3.6c0.2-11.1,0.1-22.3,0.1-33.4l0-0.1
			c10.3,0.1,20.6,0.4,30.9,0.1c5-0.2,6.1,1.5,5.9,6.2c-0.4,9,0,17.9-0.2,26.9c0,2.6,0.5,3.9,3.5,3.8c11-0.2,21.9-0.2,32.9-0.2
			c11.7,0,23.3,0,35,0c0.6,0.1,1.3,0.2,1.9,0.3l-0.1-0.1C650.9,1761.1,650.9,1773.4,651.1,1785.6L651.1,1785.6z"/>
		<path fill="#030201" d="M284,1491.6c-11.1,0.1-22.3,0.1-33.4,0.3c-2.9,0.1-3.2-1.3-3.2-3.6c0.1-9.7-0.1-19.3,0.1-29
			c0.1-3.4-1.1-4.1-4.2-4.1c-9.5,0.2-19,0-28.5,0.1c-2.3,0-4.1,0-4.1-3.3c0.2-23.5,0.2-46.9,0.2-70.4l0,0c10.3,0.1,20.7,0.4,31,0.2
			c4.3-0.1,5.7,1,5.6,5.5c-0.3,20.8,0,41.7-0.2,62.5c-0.1,4.5,1.3,5.7,5.6,5.5c9-0.3,18,0.2,27,0c3.3-0.1,4.2,1,4.2,4.2
			c-0.1,10,0.1,20,0.2,30C284.2,1490.3,284.1,1491,284,1491.6L284,1491.6z"/>
		<path fill="#D98929" d="M101,794.6c11.1,0.1,22.3,0.2,33.4,0.3c2.2,0,3.1-0.8,2.9-3c-0.1-0.7,0-1.3,0-2c0-46,0-92,0-137.9
			c0-1.3-0.1-2.7-0.2-4c0,0,0,0,0,0c12.3-0.1,24.6-0.2,37-0.3c0,10.8-0.2,21.6,0,32.4c0.1,3.6-1.2,4.6-4.6,4.5
			c-8.1-0.2-16.3,0.1-24.5-0.1c-4.4-0.1-6.1,1.4-6.1,6.1c0.2,25.6-0.3,51.3,0.2,76.9c0.4,20.3-3.6,40.3-2.1,60.6
			c0.2,3.1-1.5,3.5-4,3.5c-10.6-0.1-21.3,0-31.9,0C101,819.3,101,807,101,794.6z"/>
		<path fill="#030201" d="M174.1,1345.6c-10.8-0.1-21.6-0.3-32.4-0.2c-3.5,0-4.5-1-4.4-4.5c0.1-21.1,0.1-42.2,0.1-63.3
			c0-2-0.2-4-0.3-6c0,0-0.1,0.1-0.1,0.1c8.5,0,17,0,25.5,0.2c3.9,0.1,8-0.9,11.8,0.7c0,12,0,24,0.1,36.1c-0.1,12.3-0.2,24.7-0.3,37
			L174.1,1345.6z"/>
		<path fill="#030201" d="M1495,281.7c11-0.1,21.9,0,32.9-0.2c2.6,0,3.4,0.7,3.4,3.3c-0.1,9.6,0.1,19.3-0.1,28.9
			c-0.1,3.4,0.8,4.6,4.3,4.5c9.5-0.2,19,0.1,28.4-0.1c3.3-0.1,4.2,0.9,4.2,4.2c-0.2,10.8-0.1,21.6-0.1,32.4l0.1-0.1
			c-11.1,0-22.3,0-33.4,0.2c-3.1,0.1-3.5-1.4-3.5-4c0.1-9.5-0.1-19,0.1-28.5c0.1-3.2-0.8-4.3-4.1-4.2c-10.7,0.2-21.3,0-32,0
			C1494.2,305.9,1494.5,293.8,1495,281.7C1495,281.6,1495,281.7,1495,281.7z"/>
		<path fill="#030201" d="M1677.8,1453.7c0-23.7,0.1-47.5,0.1-71.2c0.7-0.3,1.3-0.5,2-0.8c11,0,22,0,33,0c0,0,0.4,0.2,0.4,0.2
			l0.4-0.2c0.4,0.1,0.9,0.3,1.3,0.4c-0.1,22.3-0.2,44.6-0.3,66.9c0,7.2,0.8,6.3-6.4,6.4c-10.1,0.1-20.3,0.2-30.4,0.2l0.1,0.1
			C1678,1455,1677.9,1454.4,1677.8,1453.7z"/>
		<path fill="#030201" d="M394,1601.6c-11.3,0.1-22.6,0.1-33.8,0.3c-2.9,0.1-2.7-1.6-2.7-3.5c0-9.5-0.2-18.9,0.1-28.4
			c0.1-3.6-0.6-4.9-4.5-4.8c-9.5,0.3-18.9,0-28.4,0.2c-2.6,0-3.9-0.3-3.8-3.4c0.2-11.1,0.2-22.2,0.2-33.4l0,0.1
			c12.1,0.1,24.2,0.1,36.3,0.2c0,0.3,0.1,0.6,0.4,0.8c0,0.3,0.1,0.7,0.1,1c0,0.3,0,0.7,0,1c-0.4,1.3-0.4,2.7,0,4c0,8.3,0,16.6,0,25
			c-0.4,1-0.4,2,0,3c-0.1,0.6-0.1,1.1,0.6,1.3c0.5,0.1,1,0.1,1.5,0.2c11.4,0.1,22.7,0.3,34.1,0.4C394,1577.6,394,1589.7,394,1601.6
			C394,1601.7,394,1601.6,394,1601.6z"/>
		<path fill="#030201" d="M1348,1749c0,10.3-0.4,20.7,0,31c0.2,4.8-1.5,5.7-5.9,5.6c-20-0.2-40-0.1-60-0.1c-2.5,0-5,0.2-7.5,0.3
			c-0.1-12.4-0.6-24.7,0.3-37.1c24.3,0,48.7,0,73,0l-0.1-0.1l-0.2,0.2L1348,1749z"/>
		<path fill="#030201" d="M1348.1,171.7c-22.7-0.1-45.3-0.2-68-0.1c-4.5,0-5.8-1.2-5.5-5.6c0.6-10.5-0.5-21,0.3-31.4
			c22.6,0,45.2,0.2,67.8,0c4.1,0,5.4,0.9,5.3,5.1C1347.8,150.4,1348,161.1,1348.1,171.7z"/>
		<path fill="#030201" d="M1604.5,1528c0.1-10.5,0.1-21.1,0.3-31.6c0-1.8-1-4.2,2.2-4.6c0.4,0,0.8,0,1.1,0c11,0,22,0,33.1-0.1
			c0.1,11.3,0,22.6,0.2,33.9c0.1,2.9-1.2,3.2-3.6,3.2c-9.5-0.1-18.9,0.1-28.4-0.1c-3.6-0.1-4.9,0.6-4.7,4.5c0.3,9.5,0,18.9,0.2,28.4
			c0.1,3.1-0.9,4-4,4c-11-0.1-21.9,0.2-32.9,0.3c0-11,0.1-22-0.1-33c-0.1-3.3,0.9-4.3,4.2-4.2c10,0.2,20,0,30-0.1
			C1602.9,1528.7,1603.8,1529.1,1604.5,1528z"/>
		<path fill="#030201" d="M174,647.8c-12.3,0.1-24.6,0.2-37,0.3c0.1-22.2,0.2-44.4,0.3-66.7c0-7.8-0.6-6.5,6.7-6.6
			c8.6-0.1,17.3,0,25.9,0c0.2,0.4,0.4,0.4,0.5,0c1.2,0,2.4-0.1,3.7-0.1c0,0-0.1-0.1-0.1-0.1c0.1,12.3,0.2,24.7,0.3,37
			C174.2,623.7,174.1,635.8,174,647.8z"/>
		<path fill="#030201" d="M1421.2,245c-10.6-0.1-21.3-0.3-31.9-0.2c-3.3,0-4.7-0.6-4.6-4.3c0.3-11,0.2-21.9,0.2-32.9
			c4.4,0.9,8.9,0.4,13.4,0.4c18.5,0.1,37,0.1,55.5,0c3.3,0,4.3,0.8,4.2,4.2c-0.2,10.8-0.1,21.7-0.1,32.5l0.1-0.1
			C1445.8,244.7,1433.5,244.9,1421.2,245z"/>
		<path fill="#030201" d="M540.9,1711.8c-23.5,0.1-47,0.1-70.5,0.3c-2,0-3-0.5-3-2.8c0.2-11.1,0.3-22.3,0.4-33.5
			c0,0,0.1-0.1,0.1-0.1c12-0.2,24-0.3,36.1-0.5c12.3,0.2,24.6,0.3,36.9,0.5C540.9,1687.7,540.9,1699.7,540.9,1711.8L540.9,1711.8z"
			/>
		<path fill="#030201" d="M1458,1680.1c0,9.5,0,18.9,0,28.4c0,2,0,3.5-2.8,3.5c-23.4-0.2-46.8-0.2-70.2-0.3c0,0,0,0,0,0
			c-0.1-1.8-0.3-3.6-0.4-5.4c-0.1-9.6-0.2-19.2-0.3-28.8c0.2-0.6,0.3-1.2,0.5-1.8c24.4,0,48.8,0,73.2,0l-0.1-0.1
			C1457.9,1677.1,1457.9,1678.7,1458,1680.1c0,0.1-0.3,0-0.3,0L1458,1680.1z"/>
		<path fill="#D98929" d="M1275,1748.7c-0.9,12.3-0.4,24.7-0.3,37.1c-0.1,0.3-0.2,0.7-0.3,1c-1.3-1.9-3.2-1.2-4.9-1.2
			c-10.5-0.1-21.1-0.2-31.6-0.2c0-10.8,0.1-21.6,0-32.3c0-3.2,1-4.3,4.2-4.3C1253.1,1748.8,1264.1,1748.7,1275,1748.7z"/>
		<path fill="#030201" d="M1457.9,244.7c8.8,0,17.6,0.1,26.5,0.1c10.3,0,10.2,0,10.3,10.5c0,8.8,0.2,17.6,0.3,26.4
			c0,0,0.1-0.1,0.1-0.1c-12.3,0-24.6-0.1-37-0.1c0-12.3,0-24.6,0-36.9L1457.9,244.7z"/>
		<path fill="#030201" d="M467.9,1675.8c-10.8-0.1-21.5-0.4-32.3-0.3c-3.5,0-4.9-0.6-4.8-4.5c0.3-10.8,0.2-21.6,0.2-32.3
			c0,0-0.1,0.1-0.1,0.1c11.3-0.1,22.7-0.1,34-0.2c0.3,0,0.6,0,1,0c0.5,0.1,1,0.2,1.5,0.3C467.7,1651.1,467.8,1663.4,467.9,1675.8
			L467.9,1675.8z"/>
		<path fill="#030201" d="M431,1638.6c-11,0-21.9-0.1-32.9,0.1c-3.4,0.1-4.1-1.1-4.1-4.2c0.1-11,0-21.9,0-32.9c0,0,0,0,0,0
			c10.8,0.1,21.6,0.4,32.3,0.3c3.8,0,4.8,1.2,4.7,4.8C430.7,1617.5,430.9,1628.1,431,1638.6C431,1638.7,431,1638.6,431,1638.6z"/>
		<path fill="#030201" d="M321,1528.7c-11,0-21.9-0.1-32.9,0.1c-3.4,0.1-4.1-1-4.1-4.2c0.2-11,0-21.9,0-32.9l-0.1,0.1
			c12.3,0.1,24.6,0.2,36.9,0.4C320.9,1504.3,320.9,1516.5,321,1528.7C321,1528.7,321,1528.7,321,1528.7z"/>
		<path fill="#030201" d="M1462.5,1675.5c-1.5,0-3.1,0.1-4.6,0.1c0,0,0.1,0.1,0.1,0.1c-0.1-0.7-0.2-1.4-0.2-2c0-0.3,0-0.6,0-1
			c0-11,0-22,0-33c0.2-0.3,0.3-0.5,0.3-0.9c0,0-0.1,0-0.1,0c1.7-0.1,3.3-0.2,5-0.2c0.3,0,0.6,0,0.9,0c10.2,0,20.4,0,30.6,0
			c-0.1,0.1-0.2,0.2-0.3,0.2c0.2,0.2,0.3,0.3,0.5,0.5c0,10.6-0.2,21.2,0,31.8c0.1,3.4-0.8,4.6-4.4,4.5
			C1481.1,1675.3,1471.8,1675.5,1462.5,1675.5c0,0,0-0.2,0-0.2L1462.5,1675.5z"/>
		<path fill="#030201" d="M1385,1711.7c-1,8.4-0.3,16.9-0.4,25.3c-0.1,11.7,0,11.7-12,11.7c-8.1,0-16.3,0-24.4,0.1
			c0,0-0.3-0.1-0.3-0.1l0.1,0.1c-0.1-0.7-0.2-1.4-0.3-2.1c0-0.6,0-1.3,0-1.9c0-10.7,0.1-21.4,0.1-32.1c0.5-0.3,0.9-0.6,1.4-0.8
			c0.5,0,1,0,1.4,0c0.5,0.4,1,0.4,1.5,0C1363.2,1712,1374.1,1712.3,1385,1711.7L1385,1711.7z"/>
		<path fill="#030201" d="M211,1381.7c-11.3,0.1-22.5,0-33.8,0.2c-2.8,0.1-3.2-1.2-3.2-3.6c0.1-10.9,0.1-21.9,0.1-32.8l-0.1,0.1
			c12.3-0.4,24.6-0.9,36.9,0.3C210.9,1357.9,210.9,1369.8,211,1381.7C211,1381.7,211,1381.7,211,1381.7z"/>
		<path fill="#030201" d="M467.5,244.6c0,10.9-0.2,21.9-0.1,32.8c0,3.3-0.9,4.3-4.2,4.3c-10.9-0.1-21.9,0-32.8,0
			c1.1-10.8,0.4-21.6,0.4-32.4c0-3.9,1.2-4.7,4.8-4.6C446.2,244.9,456.9,244.7,467.5,244.6z"/>
		<path fill="#030201" d="M325,391.8c-1,0-2,0-3,0c-0.4-0.1-0.7-0.1-1.1-0.2c0,0,0.1,0.1,0.1,0.1c-0.1-11.1,0-22.3-0.2-33.4
			c-0.1-3.1,1.2-3.5,3.8-3.5c10.8,0.1,21.6-0.1,32.4-0.1c0.7,12.3,0.8,24.7,0,37C346.3,391.7,335.7,391.7,325,391.8z"/>
		<path fill="#030201" d="M1531,1600.6c0.1-10.1,0.3-20.3,0.1-30.4c-0.1-4.1,1.2-5,5.1-4.9c10.6,0.3,21.3,0.2,31.9,0.3
			c0,10.8-0.2,21.5,0,32.3c0.1,3.4-1,4.2-4.2,4.1c-9.1-0.2-18.2,0-27.3,0c0,0-0.1,0-0.1,0c-1.8,0-3.6-0.1-5.4-0.1
			c0.1-0.1,0.3-0.3,0.3-0.4C1531.3,1601.2,1531.1,1600.9,1531,1600.6z"/>
		<path fill="#030201" d="M1385,207.8c-11.4,0.1-22.9,0.1-34.3,0.2c-2.8,0-2.8-1.5-2.8-3.5c0.1-11,0.1-21.9,0.1-32.9
			c10.8,0,21.6,0.1,32.3-0.2c3.7-0.1,4.3,1.3,4.3,4.6C1384.7,186.6,1384.1,197.2,1385,207.8z"/>
		<path fill="#030201" d="M1495.2,1601.8c11.2,0,22.5,0,33.7-0.1c0.8,0.4,1.6,0.5,2.3,0c0,10.4-0.2,20.9,0.1,31.3
			c0.1,4.3-0.7,6-5.5,5.8c-9.9-0.4-19.9-0.1-29.8-0.1c-0.5-0.1-1-0.1-1.5-0.2c0-1.3,0-2.6-0.1-3.9c0.3-0.3,0.3-0.6,0-0.9
			c0.1-2.1,0.1-4.3,0.2-6.4C1495,1618.8,1494,1610.3,1495.2,1601.8L1495.2,1601.8z"/>
		<path fill="#030201" d="M1643,1455.2c11,0,22,0,33.1,0c0.7,0.2,1.3,0.3,2,0.5c0,0-0.1-0.1-0.1-0.1c0,10.8,0,21.6,0.1,32.4
			c0,2.9-0.5,4.1-3.7,4c-11.1-0.2-22.2-0.2-33.3-0.2c0-0.7,0.1-1.4,0.1-2c0.1-0.1,0.2-0.2,0.2-0.3c0-0.3-0.1-0.5-0.2-0.8
			c0-10.6,0-21.3,0-31.9c0.1-0.4,0.2-0.7,0.3-1.1c0.2,0,0.4-0.1,0.5-0.3C1642.3,1455.3,1642.6,1455.2,1643,1455.2z"/>
		<path fill="#030201" d="M394,318.1c0,11.1-0.1,22.2,0.1,33.3c0,3-1.2,3.5-3.9,3.5c-11.1-0.1-22.2-0.1-33.3-0.2
			c1.1-10.4,0.4-20.9,0.4-31.3c0-4.1,1-5.4,5.2-5.3C373.1,318.4,383.5,318.1,394,318.1z"/>
		<path fill="#D98929" d="M1494.5,1638.5c0.5,0.1,1,0.1,1.5,0.2c-0.4,0.2-0.9,0.3-1.3,0.5c-0.2-0.2-0.3-0.3-0.5-0.5
			C1494.4,1638.7,1494.5,1638.6,1494.5,1638.5C1494.6,1638.5,1494.5,1638.5,1494.5,1638.5z"/>
		<path fill="#D98929" d="M170.4,574.8c-0.2,0.4-0.4,0.4-0.5,0c0,0,0.3-0.2,0.3-0.2L170.4,574.8z"/>
		<path fill="#F3BC2E" d="M1274.6,129.9c-0.1,0-0.2,0-0.3,0c0.1-0.1,0.2-0.2,0.3-0.4c0,0,0.2,0.2,0.2,0.2L1274.6,129.9z"/>
		<path fill="#D98929" d="M1531.2,1601.7c-0.8,0.6-1.5,0.4-2.3,0c0.7,0,1.5,0,2.2-0.1C1531.1,1601.7,1531.2,1601.7,1531.2,1601.7z"
			/>
		<polygon fill="#D98929" points="1348,1748.6 1348.3,1748.8 1348.3,1749.1 1348,1749 1347.8,1748.8 		"/>
		<path fill="#D98929" d="M1531,1600.6c0.1,0.3,0.2,0.6,0.3,0.9c0,0.1-0.2,0.2-0.3,0.4c0,0,0-0.1,0-0.1
			C1531,1601.4,1531,1601,1531,1600.6z"/>
		<path fill="#D98929" d="M1536.5,1602C1536.5,1602,1536.5,1602,1536.5,1602C1536.5,1602,1536.5,1602,1536.5,1602z"/>
		<path fill="#D98929" d="M97.5,794.9c-0.1,0.1-0.1,0.1-0.2,0.2C97.4,795.1,97.4,795,97.5,794.9C97.5,794.9,97.5,794.9,97.5,794.9z"
			/>
		<polygon fill="#D98929" points="1458,1680.1 1457.7,1680.2 1458,1680.2 		"/>
		<polygon fill="#D98929" points="1462.5,1675.5 1462.5,1675.2 1462.5,1675.5 		"/>
		<path fill="#D98929" d="M1127.8,281.4c23.3,0.1,46.6,0.2,69.9,0.2c12,0,24,0.1,36-0.1c3.2,0,4.4,1,4.3,4.3
			c-0.2,9.2,0.1,18.3-0.1,27.5c-0.1,4.1,1,5.4,5.3,5.4c20.8-0.2,41.6,0,62.5-0.2c4.6-0.1,5.7,1.4,5.5,5.7c-0.3,8.7,0,17.3-0.2,26
			c-0.1,3.4,0.9,4.7,4.5,4.6c10.8-0.2,21.7,0,32.5,0c0,0,0,0,0,0c0,10.8,0.2,21.6,0,32.4c-0.1,3.5,1,4.6,4.5,4.5
			c9.1-0.2,18.3,0,27.4-0.1c2.8,0,4.2,0.6,4.2,3.8c0,9.4,1.5,18.9,0.8,28.3c-0.3,4.2,1.4,5,5.2,4.9c10.3-0.2,20.6-0.1,30.9-0.1
			c0,9.9,0.1,19.9,0.1,29.8c0,6.3,0,6.3,6.5,6.3c10.1,0,20.2,0.1,30.3,0.2c0,10.5,0.3,20.9,0,31.4c-0.1,4.6,1.4,5.6,5.7,5.5
			c9-0.3,17.9,0,26.9-0.2c3.5-0.1,4.6,1.1,4.5,4.5c-0.2,9.1,0,18.3-0.1,27.4c0,2.8,0.5,4.4,3.8,4.2c10.8-0.7,21.5,0.8,32.3,0.8
			c0,10.3,0.2,20.5,0,30.8c-0.1,4,0.8,5.5,5.1,5.4c10.6-0.3,21.2-0.1,31.8-0.1c0,10.8,0.1,21.7,0,32.5c-0.1,3.6,1.2,4.6,4.6,4.5
			c9.3-0.2,18.7,0.1,28-0.1c3.5-0.1,4.5,1.1,4.5,4.6c-0.1,21,0.1,42-0.2,63c0,4.3,1,5.8,5.5,5.6c8.5-0.4,17,0.1,25.5-0.2
			c4.3-0.2,5.3,1.3,5.3,5.4c-0.1,33,0,66-0.2,99c0,4.6,1.2,6,5.8,5.8c8.8-0.4,17.7,0,26.5-0.1c3.4,0,5.1,1,4.7,4.6c-0.1,1,0,2,0,3
			c0,105.3,0,210.6,0,315.9c0,6.6,0,6.3-6.8,6.7c-8.8,0.6-17.6,1.1-26.4,0.8c-3.3-0.1-3.8,1.5-3.8,4.3c0.1,10.7,0,21.3,0,32
			c0,22.8-0.1,45.7,0.1,68.5c0,4.1-1,5.5-5.3,5.4c-8.7-0.3-17.3,0.1-26-0.2c-4.1-0.2-5,1.4-5,5.2c0.2,20.8-0.1,41.7,0.2,62.5
			c0,4.4-1.2,5.7-5.6,5.6c-9.2-0.3-18.3,0-27.5-0.1c-3,0-4.1,0.9-4,4c0.2,8.8-0.2,17.7,0.2,26.5c0.2,4.9-1.2,6.8-6.4,6.6
			c-8.8-0.4-17.7,0-26.5-0.2c-3.3-0.1-4.3,1.1-4.2,4.3c0.2,8.8-0.1,17.7,0.1,26.5c0.1,4.1-1,5.6-5.2,5.4c-8.8-0.3-17.7,0.1-26.5-0.2
			c-3.6-0.1-4.6,1.2-4.5,4.6c0.2,9.2-0.1,18.3,0.1,27.5c0.1,3.6-1.2,5.1-4.9,5c-8.7-0.2-17.3,0.3-26-0.2c-5.4-0.3-6.4,1.6-6.2,6.5
			c0.4,8.5-0.1,17,0.1,25.5c0.1,4-1.3,5.3-5.2,5.2c-9-0.2-18,0.1-27-0.1c-3.6-0.1-5,0.9-4.9,4.7c0.3,9-0.1,18,0.2,27
			c0.1,3.6-1.2,4.6-4.6,4.5c-8.8-0.2-17.7,0.1-26.5-0.1c-3.8-0.1-5.3,0.9-5.2,5c0.3,10.7,0,21.3,0,32c-10.8,0-21.6,0.2-32.5,0
			c-3.6-0.1-4.6,1.2-4.5,4.6c0.2,9.3-0.1,18.7,0.1,28c0.1,3.5-1,4.6-4.5,4.6c-9.3-0.2-18.7,0.1-28-0.1c-3.4-0.1-4.7,0.9-4.6,4.5
			c0.2,8.7-0.2,17.3,0.2,26c0.2,4.8-1.5,5.8-6,5.7c-20.8-0.2-41.6,0-62.4-0.2c-3.7,0-4.9,1.1-4.8,4.8c0.2,8.8-0.2,17.7,0.2,26.5
			c0.2,4.5-1.1,5.9-5.8,5.9c-34.8-0.2-69.6-0.1-104.4,0c-95,0-190-0.1-285-0.1c-1.7,0-3.3-0.1-5,0c-3.2,0.3-4-1.1-3.9-4.1
			c0.1-8.8,0.1-17.7,0.1-26.5c0-6.4,0-6.4-6.6-6.4c-32.7,0-65.3-0.1-98,0.1c-4.5,0-5.7-1.2-5.5-5.6c0.3-8.3-0.1-16.7,0.2-25
			c0.2-4.3-1-5.7-5.5-5.7c-20.3,0.2-40.7,0.1-61,0.1c-6.6,0-6.6,0-6.6-6.8c0-7.7,0-15.3,0-23c0-7.1,0-7.1-6.9-7.1
			c-7.8,0-15.7,0-23.5,0c-6.6,0-6.6,0-6.6-6.4c0-8.3-0.3-16.7,0.1-25c0.2-4.8-1.6-5.9-6-5.7c-8.7,0.3-17.3,0-26,0.1
			c-3.3,0.1-4.3-1-4.3-4.3c0.2-8.8-0.1-17.7,0.1-26.5c0.1-4.2-1.5-5.5-5.6-5.4c-9.2,0.2-18.3,0-27.5,0.1c-3,0-4.1-1-4-4
			c0.1-9.5-0.1-19,0.1-28.5c0.1-3.5-1-4.6-4.5-4.6c-9.5,0.2-19,0-28.5,0.1c-3,0-4.1-0.9-4-4c0.2-9.5-0.1-19,0.1-28.5
			c0.1-3.5-1-4.7-4.5-4.6c-9.2,0.2-18.3,0-27.5,0.1c-2.9,0-4.2-0.7-4.2-3.9c0.2-9.1-1.6-18.2-0.8-27.4c0.4-4.2-1.5-5-5.2-4.9
			c-8.7,0.2-17.3-0.1-26,0.1c-3.7,0.1-5-1.2-5-4.9c0.2-8.8-0.2-17.7,0.1-26.5c0.1-4.3-0.9-5.9-5.5-5.7c-8.6,0.4-17.3-0.1-26,0.2
			c-4.3,0.2-5.9-0.9-5.7-5.5c0.4-8.8,0-17.7,0.2-26.5c0.1-4-1.4-5.2-5.3-5.2c-8.3,0.2-16.7-0.2-25,0.2c-5,0.2-6-1.5-6-6.2
			c0.3-19.8,0.1-39.7,0.1-59.5c0-7.3-0.1-7.4-7.1-7.4c-7.8,0-15.7,0-23.5,0c-6.4,0-6.4,0-6.4-6.6c0-32.7-0.1-65.3,0.1-98
			c0-4.5-1.3-5.7-5.7-5.5c-8.5,0.3-17-0.2-25.5,0.2c-4.9,0.2-6-1.4-6-6.1c0.2-66.5,0.1-133,0.1-199.5c0-15.5,0.1-31-0.1-46.5
			c-0.1-4,1.2-5.1,5.1-5c8.5,0.3,17,0.1,25.5,0.1c6.5,0,6.5,0,6.5-6.5c0-32.8,0.1-65.7-0.1-98.5c0-3.9,1-5.2,5-5.1
			c10,0.3,20,0.1,30,0.2c0,2.1,2,3.3,1.7,6c-1.1,8.7-1.1,17.5,0.1,26.3c0.6,4.2,2.5,4.7,5.9,4.6c8.3-0.1,16.7,0.1,25-0.1
			c4-0.1,5.6,0.9,5.4,5.2c-0.3,8.2-0.1,16.3-0.1,24.5c0,6.4,0,6.4,6.6,6.4c8.5,0,17,0.1,25.5-0.1c3.7-0.1,5,1.3,4.9,5
			c-0.2,9.2,0.1,18.3-0.1,27.5c-0.1,3.4,0.9,4.7,4.5,4.6c9-0.2,18-0.3,27,0c3.9,0.1,4.8-1.4,4.7-5c-0.2-9,0.1-18-0.2-27
			c-0.2-4.3,1.4-5.4,5.4-5.2c9,0.3,18-0.1,27,0.2c3.8,0.1,4.9-1.2,4.7-4.9c-0.2-8.3,0.3-16.7-0.2-25c-0.3-5.1,1.3-6.4,6.4-6.3
			c92.7,0.2,185.3,0.1,278,0.1c1.7,0,3.3,0.1,5-0.1c3.1-0.3,5-1.5,4.9-5.4c-0.3-9,0-18-0.2-27c-0.1-3.4,0.9-4.7,4.5-4.6
			c8.2,0.2,16.3,0.1,24.5,0.1c7.1,0,7.1,0,7.1-6.9c0-32.3,0.1-64.7-0.1-97c0-5.3,1.5-6.5,6.5-6.3c8.3,0.4,16.7-0.2,25,0.2
			c4.7,0.2,5.8-1.4,5.8-5.9c-0.2-33,0-66-0.2-99c0-4.2,1.2-5.5,5.3-5.3c8.2,0.3,16.3,0.1,24.5,0.1c7.2,0,7.2,0,7.2-7.1
			c0-19.8,0.1-39.7-0.1-59.5c-0.1-4.7,0.7-6.3,6.1-6.7c8.3-0.7,16.6-0.7,24.9-0.6c4.3,0.1,5.3-1.5,5.2-5.5c-0.3-8.5,0.1-17-0.1-25.5
			c-0.1-3.9,1.3-5.3,5.2-5.2c9,0.2,18,0.3,27,0c4.2-0.1,5,1.5,4.9,5.2c-0.2,10.7,0,21.3,0,32c0,12-0.1,24-0.1,36
			c-10.3,0-20.7,0.2-31-0.1c-4.6-0.1-6.1,1.3-6,5.9c0.2,20.8,0,41.7,0.1,62.5c0,3.2-0.7,4.3-4.3,4.9c-8.8,1.5-17.5,0.1-26.3,0.5
			c-4.8,0.2-5.7,1.7-5.7,6.1c0.2,26,0.1,52,0.1,78c0,7.3,0,14.7,0,22c0,1.8,0.3,3.8-2.8,3.5c-9.3-1.1-18.6,1.2-27.9,0.6
			c-5-0.3-6.5,1-6.4,6.2c0.3,32.7,0.1,65.3,0.2,98c0,4.7-1.4,6.1-6,6c-8.8-0.3-17.7,0-26.5-0.2c-3.4-0.1-4.7,0.9-4.6,4.5
			c0.2,8.8-0.1,17.7,0.2,26.5c0.1,4.3-1.3,5.3-5.4,5.3c-24.7-0.2-49.3-0.1-74-0.1c-69.5,0-139,0-208.5-0.1c-4.1,0-5.5,1-5.4,5.2
			c0.3,9.2,0.2,18.3,0,27.5c-0.1,3.3,1,4.3,4.3,4.3c8.8-0.2,17.7,0.2,26.5-0.2c5.2-0.2,6.6,1.7,6.4,6.6c-0.3,8.7,0.1,17.3-0.2,26
			c-0.1,3.5,1.1,4.6,4.6,4.5c8.7-0.2,17.3,0.1,26-0.2c4.3-0.2,5.9,0.9,5.7,5.5c-0.4,9,0,18-0.1,27c0,2.8,0.9,3.9,3.8,3.7
			c9.3-0.5,18.6,0.7,27.9,0.7c4,0,5.6,1,5.4,5.3c-0.3,9,0,18-0.2,27c-0.1,3.1,1,4,4,4c9.2-0.2,18.3,0.1,27.5-0.1
			c4.1-0.1,5.7,1.2,5.5,5.4c-0.2,8.8,0.1,17.7-0.2,26.5c-0.2,4.3,1.4,5.3,5.4,5.2c8.8-0.3,17.7,0,26.5-0.1c3.2-0.1,4.4,0.9,4.4,4.3
			c-0.2,9,0.2,18-0.1,27c-0.1,4.1,1.3,5.1,5.1,5c9-0.2,18,0,27-0.1c3.7-0.1,4.9,1.3,4.9,5c-0.1,33.8-0.1,67.7,0,101.5
			c0,3.5-1.3,4.7-4.7,4.7c-8.8-0.1-17.7,0.2-26.5-0.1c-4.5-0.2-5.9,1.1-5.9,5.8c0.2,32.8,0,65.7,0.2,98.5c0,4-1.1,5.2-5.1,5.1
			c-9.1-0.2-18.3-0.4-27.4,0.7c-1.9,0.2-3.6,0-3.7,2.8c-0.1,3.6-0.8,7.3-0.8,10.9c0,42.8-0.3,85.6,0.8,128.4c0.1,3.1,1,4,4.1,4
			c9.3-0.1,18.7-0.2,28,0c3.1,0.1,4-1,4-4c-0.2-8.5-0.1-17-0.1-25.5c0-6.6,0-6.6,6.4-6.6c8.2,0,16.3-0.3,24.5,0.1
			c4.7,0.2,6.5-0.9,6.2-6c-0.4-8.1-0.1-16.3-0.1-24.5c0-6.6,0-6.6,6.4-6.6c8.7,0,17.3-0.1,26,0.1c3.5,0.1,4.7-1.3,4.6-4.7
			c-0.1-9.2,0.1-18.3-0.1-27.5c-0.1-3.7,0.9-5,4.8-4.9c9,0.3,18-0.1,27,0.2c3.6,0.1,4.6-1.1,4.5-4.6c-0.2-8.5,0.2-17-0.2-25.5
			c-0.2-4.7,1-6.3,6-6.2c20.7,0.3,41.3,0,62,0.2c5,0.1,6.3-1.6,6.1-6.3c-0.3-8.8,0-17.7-0.2-26.5c-0.1-3.3,1.1-4.3,4.3-4.3
			c33.7,0.1,67.3,0.1,101,0c3.7,0,5,1.3,4.9,5c-0.2,8.8,0.2,17.7-0.1,26.5c-0.2,4.5,1.5,5.7,5.8,5.6c20.3-0.2,40.7,0.1,61-0.2
			c4.8-0.1,6.8,0.9,6.5,6.2c-0.5,8.6,0,17.3-0.2,26c-0.1,3,0.9,4.1,4,4c8.8-0.2,17.7,0.2,26.5-0.2c4.9-0.2,6.8,1.2,6.6,6.4
			c-0.4,8.8,0,17.7-0.2,26.5c-0.1,3.3,1.1,4.3,4.3,4.3c8.7-0.2,17.3,0.2,26-0.2c4.4-0.2,6.2,0.9,6,5.7c-0.4,8.6,0.1,17.3-0.2,26
			c-0.1,4.2,1.4,5.5,5.5,5.4c9-0.2,18,0.1,27-0.1c3.5-0.1,4.7,1,4.6,4.5c-0.2,9,0.1,18-0.2,27c-0.1,3.8,1.2,4.8,4.9,4.7
			c10.7-0.2,21.3,0,32,0c0.1,12.3,0.2,24.5,0.3,36.8c0,23,0,46-0.2,69c0,3.3,1.1,4.3,4.3,4.3c9-0.2,18,0,27-0.1c3,0,4.3,0.8,4.9,4.1
			c1.7,9.5,0.5,18.9,0.7,28.4c0.1,3.4,0.9,4.7,4.5,4.6c9-0.2,18-0.3,27,0c3.9,0.1,4.7-1.4,4.7-5c-0.2-9,0.1-18-0.1-27
			c-0.1-4,1.4-5.3,5.3-5.2c9,0.2,18-0.1,27,0.1c3.7,0.1,5-0.9,4.9-4.8c-0.3-8.7,0.1-17.3-0.2-26c-0.1-4,0.9-5.6,5.2-5.4
			c9,0.3,18,0,27,0.1c3.7,0.1,5-1.4,4.9-5c-0.2-9.2,0.1-18.3-0.1-27.5c-0.1-3.4,0.9-4.7,4.5-4.6c8.7,0.2,17.3-0.1,26,0.2
			c4.3,0.2,5.9-0.9,5.7-5.5c-0.4-8.8,0-17.7-0.2-26.5c-0.1-4,1.4-5.3,5.3-5.2c9,0.2,18-0.1,27,0.1c3.7,0.1,5-0.9,4.9-4.7
			c-0.3-8.5,0.1-17-0.2-25.5c-0.2-4.4,0.9-6.2,5.7-6c8.8,0.4,17.7,0,26.5,0.2c3.7,0.1,5-1.4,4.9-5c-0.2-9.2,0.1-18.3-0.1-27.5
			c-0.1-3.4,0.9-4.7,4.5-4.6c8.5,0.2,17-0.2,25.5,0.2c4.7,0.2,6.4-1,6.2-6c-0.4-8.6,0-17.3-0.2-26c-0.1-4,1.4-5.3,5.3-5.2
			c8.8,0.2,17.7-0.1,26.5,0.1c4.1,0.1,5.4-1,5.4-5.2c-0.2-20.5,0.1-41-0.2-61.5c-0.1-4.9,0.9-6.8,6.2-6.5c8.1,0.5,16.3,0.1,24.5,0.1
			c6.4,0,6.4,0,6.4-6.6c0-32.7,0.1-65.3-0.1-98c0-4.5,1.3-5.7,5.7-5.5c8.2,0.3,16.3-0.2,24.5,0.2c4.8,0.2,6.1-1.3,6.1-6.1
			c-0.2-61.8-0.1-123.6-0.1-185.5c0-20.3-0.1-40.7,0.1-61c0-3.4-1-4.7-4.5-4.6c-8.5,0.2-17-0.2-25.5,0.2c-4.7,0.2-6.2-1.1-6.2-6
			c0.2-32.5,0.1-65,0.1-97.5c0-6.6,0-6.6-6.8-6.6c-8,0-16-0.3-24,0.1c-4.9,0.2-6.3-1.5-6.2-6.3c0.2-20.3,0-40.7,0.2-61
			c0-4.4-0.9-6.2-5.7-6c-8.8,0.4-17.7,0-26.5,0.2c-3.7,0.1-5-1.4-4.9-5c0.2-9.2-0.1-18.3,0.1-27.5c0.1-3.4-0.9-4.7-4.5-4.6
			c-8.7,0.2-17.3-0.1-26,0.2c-4.3,0.2-5.9-0.9-5.7-5.5c0.4-8.8,0-17.7,0.2-26.5c0.1-4-1.4-5.3-5.3-5.2c-9,0.2-18-0.1-27,0.1
			c-3.7,0.1-5-0.9-4.9-4.8c0.3-9.2,0-18.3,0.1-27.5c0-2.7-0.7-3.9-3.7-3.9c-9.6,0.2-19.3,0-28.9-0.8c-3.4-0.3-4.6-1.1-4.6-4.6
			c0.2-9-0.1-18,0.1-27c0.1-3.4-0.9-4.7-4.5-4.6c-8.7,0.2-17.3-0.1-26,0.2c-4.3,0.2-5.9-0.9-5.7-5.5c0.4-8.8,0-17.7,0.2-26.5
			c0.1-4-1.4-5.3-5.3-5.2c-9,0.2-18-0.1-27,0.1c-3.7,0.1-5-0.9-4.9-4.8c0.3-8.5-0.1-17,0.2-25.5c0.2-4.4-0.9-6.2-5.7-6
			c-8.8,0.4-17.7,0-26.5,0.2c-3.7,0.1-5-1.4-4.9-5c0.2-9.2-0.1-18.3,0.1-27.5c0.1-3.4-0.9-4.7-4.5-4.6c-7.8,0.2-15.7,0.1-23.5,0.1
			c-9.2-0.1-7.9,1.1-8.1-7.9c-0.3-8.3,0.6-16.6-0.6-24.9c-0.6-3.9-2.3-4.3-5.5-4.3c-20.8,0.1-41.7,0-62.5,0.1c-4,0-5.6-0.9-5.4-5.2
			c0.3-8.5-0.2-17,0.2-25.5c0.2-4.6-1.4-5.6-5.7-5.5c-9.3,0.3-18.7,0.2-28,0.1c-24-0.3-47.9-0.7-71.9-0.9c-4,0-4.7-1.5-4.6-5
			c0.2-10.3,0.1-20.7,0.1-31C1103.3,281.6,1115.6,281.5,1127.8,281.4z"/>
		<path fill="#E4982B" d="M1127.9,1638.7c34.8,0,69.6-0.1,104.4,0c4.7,0,5.9-1.4,5.8-5.9c-0.3-8.8,0.1-17.7-0.2-26.5
			c-0.1-3.7,1.1-4.8,4.8-4.8c20.8,0.2,41.6,0,62.4,0.2c4.4,0,6.2-0.9,6-5.7c-0.4-8.6,0-17.3-0.2-26c-0.1-3.6,1.2-4.6,4.6-4.5
			c9.3,0.2,18.7-0.1,28,0.1c3.5,0.1,4.6-1.1,4.5-4.6c-0.2-9.3,0.1-18.7-0.1-28c-0.1-3.4,0.9-4.7,4.5-4.6c10.8,0.2,21.6,0,32.5,0
			c0,10.6,0.3,21.3,0,31.9c-0.1,4.3,1.4,5.3,5.4,5.2c10.2-0.3,20.5-0.1,30.7-0.1c0,0,0,0,0,0c0,10.6,0.1,21.2-0.1,31.8
			c0,3.2,1,4.3,4.3,4.3c10.9-0.2,21.9-0.1,32.8-0.1c0,0,0,0,0,0c0,12.4,0,24.7,0.1,37.1c0,0,0.1,0,0.1,0c-0.2,0-0.4,0.1-0.4,0.1
			c0,0.3,0.1,0.5,0.1,0.8c0,11,0,22,0,33c-0.1,0.1-0.3,0.2-0.3,0.3c0.1,0.2,0.2,0.5,0.3,0.7c0.1,0.7,0.2,1.4,0.2,2
			c-24.4,0-48.8,0-73.2,0c-0.8,0.4-1,1.1-0.5,1.8c0.1,9.6,0.2,19.2,0.3,28.8c0,1.8,0.2,3.6,0.4,5.4c-10.9,0.6-21.8,0.4-32.8,0.1
			c-0.5,0-1,0-1.5,0c-0.5,0-1,0-1.4,0c-0.5,0.2-1.8-0.8-1.4,0.8c0,10.7-0.1,21.4-0.1,32.1c-0.8,0.6-0.8,1.3,0,1.9
			c0.1,0.7,0.2,1.4,0.3,2.1c-24.3,0-48.7,0-73,0c-10.9,0-21.9,0.1-32.8-0.1c-3.3,0-4.3,1.1-4.2,4.3c0.2,10.8,0,21.6,0,32.3
			c-12.3,0.1-24.6,0.2-36.8,0.2c-24.1,0-48.1-0.1-72.2-0.2c-0.5-0.4-0.8-0.2-1,0.3c0,0,0,0,0,0c-10.8,0-21.5,0.2-32.3-0.1
			c-3.8-0.1-4.8,1.2-4.7,4.9c0.2,10.4,0.1,20.9,0.1,31.3c-1.3,0.1-2.6,0.2-4,0.2c-70.7,0-141.4,0-212.1,0c-1.3,0-2.6-0.2-4-0.3
			c0-10.5-0.1-21,0.1-31.5c0-3.3-0.7-4.7-4.4-4.7c-23,0.2-45.9,0.1-68.9,0.2c-0.3,0-0.6-0.1-0.8-0.4c-0.3-0.4-0.6-0.5-0.9-0.1
			c-27.2,0.1-54.4,0.2-81.6,0.2c-8.8,0-17.6-0.1-26.4-0.2c0-10.6-0.2-21.3,0-31.9c0.1-3.8-1.2-4.8-4.8-4.8
			c-10.8,0.3-21.6,0.2-32.4,0.2c0,0,0.1,0.1,0.1,0.1c-0.4-1.2-1.1-1.2-1.9-0.3c-11.7,0-23.3,0-35,0c0-10.7-0.1-21.3,0-32
			c0.1-3.7-1.3-5.1-5-4.9c-4.2,0.2-8.3,0.2-12.5,0c-5.9-0.2-13.6,2.5-17.4-1c-3.8-3.6-0.9-11.3-1.2-17.3c-0.2-4.2-0.2-8.3,0-12.5
			c0.2-3.9-1.2-5.3-5.2-5.3c-10.6,0.2-21.3,0.1-32,0.1c-12.3-0.2-24.6-0.3-36.9-0.5c0-10.8-0.1-21.5,0-32.3c0-3.2-1-4.4-4.2-4.3
			c-10.8,0.2-21.5,0.2-32.3,0.2c-0.5-0.1-1-0.2-1.5-0.3c-0.3-0.5-0.7-0.5-1,0c-11.3,0.1-22.7,0.1-34,0.2c0-10.6-0.2-21.2,0-31.9
			c0.1-3.7-0.9-4.9-4.7-4.8c-10.8,0.1-21.6-0.2-32.3-0.3c0-12,0.1-24.1,0.1-36.1c10.7,0,21.5-0.1,32.2,0.2c3.7,0.1,5-0.9,4.9-4.8
			c-0.3-9,0.1-18-0.2-27c-0.1-4,0.9-5.6,5.2-5.4c8.5,0.3,17-0.2,25.5,0.2c4.9,0.2,6.8-0.9,6.5-6.2c-0.5-8.6,0-17.3-0.2-26
			c-0.1-3.6,0.7-5,4.7-5c21.2,0.2,42.3,0.2,63.5,0.1c3.7,0,5,1.3,4.9,5c-0.2,9,0.1,18-0.1,27c-0.1,3.8,0.9,5.3,5,5.2
			c8.8-0.3,17.7,0.1,26.5-0.2c4.5-0.1,5.8,1.5,5.7,5.8c-0.3,9,0,18-0.1,27c-0.1,3.2,1,4.4,4.3,4.3c9-0.2,18,0.1,27-0.1
			c3.6-0.1,5,0.9,4.9,4.7c-0.3,8.5,0.2,17-0.2,25.5c-0.2,5,1.5,6,6.2,6c20.8-0.2,41.7,0,62.5-0.2c4.2,0,5.6,1.4,5.5,5.5
			c-0.2,8.3-0.1,16.7-0.1,25c0,6.6,0,6.6,6.4,6.6c32.5,0,65,0.1,97.5-0.1c4.9,0,6.4,1.5,6.2,6.3c-0.3,8.2,0.2,16.3-0.2,24.5
			c-0.3,5,1.2,6.4,6.3,6.4c78.2-0.2,156.3-0.1,234.5-0.1c27.8,0,55.7-0.1,83.5,0.1c4.7,0,6.1-1.5,6-6
			C1127.8,1659.4,1128,1649.1,1127.9,1638.7z"/>
		<path fill="#F7D476" d="M1568,574.7c-10.6,0-21.2-0.2-31.8,0.1c-4.3,0.1-5.2-1.4-5.1-5.4c0.2-10.3,0-20.5,0-30.8
			c0-11,0.1-21.9-0.1-32.9c0-3,0.9-4.1,4-4c9,0.1,18-0.2,26.9,0.1c4.7,0.2,6.4-1,6.2-6c-0.4-9,0-17.9-0.2-26.9
			c-0.1-3.3,1.1-4.3,4.3-4.2c9.1,0.2,18.3-0.1,27.4,0.1c4,0.1,5.5-1,5.4-5.2c-0.2-10.5,0.1-20.9,0.2-31.4c10.3,0,20.6,0.4,30.8,0
			c4.6-0.2,5.4,1.3,5.3,5.6c-0.3,10.3-0.1,20.5-0.1,30.8c-0.1,10.8-0.3,21.6-0.1,32.4c0.1,3.7-1.1,4.9-4.8,4.8
			c-9-0.2-18,0.1-26.9-0.2c-3.6-0.1-4.6,1.2-4.5,4.6c0.2,8.8-0.2,17.6,0.2,26.4c0.2,5-1.6,6.3-6.3,6.1c-8.6-0.3-17.3,0.1-25.9-0.2
			c-3.7-0.1-4.9,1-4.9,4.8C1568.2,553.7,1568,564.2,1568,574.7z"/>
		<path fill="#E4982B" d="M1421,1565.7c0-10.8,0.1-21.6,0-32.4c0-3.3,0.6-4.8,4.3-4.7c9.5,0.2,18.9,0.2,28.4,0
			c3.7-0.1,4.4,1.5,4.4,4.7c-0.1,10.8-0.1,21.6-0.1,32.4l0,0C1445.7,1565.7,1433.3,1565.7,1421,1565.7L1421,1565.7z"/>
		<path fill="#E4982B" d="M1458,1565.7c10.3,0,20.6,0.2,30.9-0.1c5-0.2,6.3,1.7,6.2,6.3c-0.2,10,0,19.9,0.1,29.9c0,0,0-0.1,0-0.1
			c-12.4,0-24.8-0.1-37.2-0.1c0,0,0,0,0,0C1458,1589.7,1458,1577.7,1458,1565.7L1458,1565.7z"/>
		<path fill="#D98929" d="M1678,1455.7c-0.7-0.2-1.3-0.3-2-0.5c0.6-0.5,1.2-1,1.8-1.5C1677.9,1454.4,1678,1455,1678,1455.7z"/>
		<path fill="#D98929" d="M1714.6,1376.7c0,1,0,1.9,0,2.9C1713.7,1378.6,1713.7,1377.7,1714.6,1376.7z"/>
		<path fill="#D98929" d="M1680,1381.7c-0.7,0.3-1.3,0.5-2,0.8C1678.4,1381.6,1679.1,1381.5,1680,1381.7z"/>
		<path fill="#D98929" d="M1604.5,1528c-0.6,1.1-1.5,0.7-2.4,0.5C1602.7,1527.7,1603.5,1527.7,1604.5,1528z"/>
		<path fill="#D98929" d="M1608,1491.7c-0.4,0-0.8,0-1.1,0C1607.3,1491.7,1607.7,1491.7,1608,1491.7z"/>
		<path fill="#D98929" d="M1641.1,1488.6c0.1,0.3,0.2,0.5,0.2,0.8c0,0.1-0.1,0.2-0.2,0.3C1641.1,1489.3,1641.1,1489,1641.1,1488.6z"
			/>
		<path fill="#D98929" d="M1641.4,1455.6c-0.1,0.4-0.2,0.7-0.3,1.1C1641.2,1456.4,1641.3,1456,1641.4,1455.6z"/>
		<path fill="#D98929" d="M1643,1455.2c-0.3,0.1-0.7,0.1-1,0.2C1642.2,1454.9,1642.5,1454.7,1643,1455.2z"/>
		<path fill="#D98929" d="M1714.6,1346.7c0.2,0.3,0.2,0.6,0,0.9c-0.1-0.2-0.2-0.4-0.3-0.7
			C1714.2,1346.9,1714.5,1346.8,1714.6,1346.7z"/>
		<path fill="#D98929" d="M1713.7,1381.7l-0.4,0.2c0,0-0.4-0.2-0.4-0.2C1713.2,1381.6,1713.5,1381.5,1713.7,1381.7z"/>
		<path fill="#E4982B" d="M211,1381.7c0-11.9,0-23.9-0.1-35.8c0-10.8-0.1-21.7,0.2-32.5c0.1-3.7-1-4.9-4.8-4.9
			c-10.7,0.2-21.3,0.1-32,0c0-12,0-24-0.1-36.1c-0.1-11.1-0.3-22.2-0.2-33.4c0-3.4-0.9-4.7-4.5-4.6c-8,0.2-16,0.1-24,0.1
			c-6.6,0-6.6,0-6.6-6.4c0-24.8-0.4-49.7,0.1-74.5c0.5-20.6-3.5-41-2.1-61.6c0.2-3-1.4-3.6-4-3.6c-10.7,0.1-21.3,0-32,0
			c-0.1-1.3-0.2-2.7-0.2-4c0-83,0-166,0-249c0-1.3,0.1-2.7,0.2-4c10.6,0,21.3-0.1,31.9,0c2.5,0,4.2-0.4,4-3.5
			c-1.5-20.3,2.5-40.3,2.1-60.6c-0.5-25.6,0-51.2-0.2-76.9c0-4.7,1.7-6.2,6.1-6.1c8.2,0.2,16.3-0.1,24.5,0.1
			c3.4,0.1,4.7-0.9,4.6-4.5c-0.2-10.8,0-21.6,0-32.4c0.1-12,0.2-24.1,0.3-36.1c10.5,0,21-0.1,31.5,0c3.9,0.1,5.4-1.2,5.3-5.2
			c-0.2-8.5,0.1-17-0.2-25.5c-0.1-2.2,1.9-4.4-0.1-6.5c0.1-10.6,0.2-21.3,0.3-31.9c1.4-1.1,0.8-2.6,0.9-4
			c10.3-0.1,20.6-0.4,30.9-0.3c3.8,0.1,4.8-1.2,4.7-4.9c-0.2-21.1,0-42.2-0.2-63.4c0-4.2,1.1-5.4,5.3-5.3c9.1,0.3,18.3,0,27.4,0.2
			c3,0.1,4-0.8,3.9-3.9c-0.2-9.3-0.1-18.6,0-27.9c0-1.5-0.9-3.3,0.9-4.5c0,10.4,0.2,20.9,0,31.3c-0.1,3.7,1,4.9,4.7,4.8
			c10.4-0.2,20.9-0.1,31.3-0.1l0,0c0,10.5,0.2,21-0.1,31.4c-0.1,4.3,0.9,5.9,5.5,5.7c8.8-0.4,17.6,0,26.4-0.2
			c3.3-0.1,4.3,1.1,4.2,4.3c-0.2,8.6-0.1,17.3-0.1,26c0,6.7,0,6.8,6.5,6.8c10.1,0,20.3,0,30.4,0c0,12-0.1,24-0.1,36
			c-10.7,0-21.3,0.1-32,0c-3.7-0.1-5,1.3-5,5c0.2,8.8-0.2,17.7,0.1,26.5c0.1,4.3-0.9,5.9-5.5,5.7c-8.5-0.4-17,0.1-25.5-0.2
			c-4.3-0.2-5.3,1.4-5.2,5.4c0.2,21,0,42,0.2,63c0,3.8-1.1,4.9-4.8,4.8c-8.3-0.2-16.7-0.1-25-0.1c-7.2,0-7.2,0-7.2,7.1
			c0,32.5-0.1,65,0.1,97.5c0,4.5-1.3,5.7-5.6,5.5c-8-0.3-16-0.1-24-0.1c-7.4,0-7.4,0-7.4,7.4c0,105.2,0,210.3,0,315.5c0,1,0,2,0,3
			c-0.1,3.7,1.4,5.4,5.4,5.3c7.5-0.2,15-0.1,22.5-0.1c9.1,0,9.1,0,9.1,8.9c0,31.8,0.1,63.7-0.1,95.5c0,4.4,1.4,5.9,5.7,5.7
			c8.3-0.3,16.7,0.2,25-0.2c4.9-0.2,6.6,0.9,6.5,6.2c-0.3,20.3,0,40.7-0.3,61c-0.1,4.9,1.5,6.2,6.2,6c7.8-0.4,15.7-0.1,23.5-0.1
			c6.7,0,7.3,0.4,7.4,7.3c0.1,7.7,0,15.3,0,23c0,5.9,0.5,6.5,6.6,6.6c8.3,0.1,16.7,0.2,25,0c3.5-0.1,4.6,1.1,4.5,4.6
			c-0.2,10.5-0.1,21-0.1,31.5c0,0,0,0,0,0c-10,0-20,0-30,0c-6.4,0-7,0.5-7,7.2c-0.1,8-0.2,16,0.1,24c0.2,4.4-0.9,6.2-5.7,6
			c-8.5-0.4-17,0.1-25.5-0.2c-4.1-0.1-5.1,1.3-5,5.1c0.2,10.7,0.1,21.3,0.1,32l0,0c-8.8,0-17.6,0-26.4,0c-9.6,0-9.4,0-9.6,9.8
			c-0.2,8.1,0.9,16.2-0.7,24.2c-0.1-10-0.3-20-0.2-30c0-3.3-0.9-4.3-4.2-4.2c-9,0.1-18-0.3-27,0c-4.3,0.1-5.7-1.1-5.6-5.5
			c0.2-20.8,0-41.7,0.2-62.5c0.1-4.5-1.3-5.6-5.6-5.5C231.6,1382.1,221.3,1381.8,211,1381.7z"/>
		<path fill="#F7D476" d="M393.9,574.6c0-12,0.1-24,0.1-36c10.2,0,20.3-0.3,30.5,0c4.9,0.2,6.8-1.2,6.6-6.4
			c-0.4-8.6,0.1-17.3-0.2-26c-0.1-3.8,1.2-4.9,4.9-4.8c8.8,0.2,17.7-0.1,26.5,0.2c3.7,0.1,4.8-1,4.9-4.8c0.3-9.5,1.1-18.9,0.7-28.4
			c-0.1-3.2,1.2-4,4.1-3.9c9.2,0.1,18.3-0.1,27.5,0.1c3.4,0.1,4.7-1,4.6-4.5c-0.2-9,0.1-18-0.1-27c-0.1-3.9,1.3-4.8,4.9-4.7
			c9.2,0.2,18.3,0,27.5,0.1c3.5,0.1,4.7-1.2,4.7-4.7c-0.1-8.7,0.2-17.3-0.1-26c-0.2-4.9,0.9-6.8,6.2-6.5c8.6,0.5,17.3,0,26,0.2
			c3.7,0.1,5-1.3,4.9-5c-0.2-9,0.1-18-0.1-27c-0.1-3.8,0.9-5.3,5-5.1c9,0.3,18,0,27,0.2c3.3,0.1,4.3-1.1,4.3-4.3
			c-0.2-8.7,0.2-17.3-0.1-26c-0.2-4.5,1-6,5.7-6c20.7,0.3,41.3,0,62,0.2c5.2,0.1,6.6-1.6,6.4-6.6c-0.4-8.5,0.1-17-0.2-25.5
			c-0.1-4,1.1-5.1,5.1-5.1c32.5,0.1,65,0.1,97.5,0.1c7.6,0,7.6,0,7.6-7.4c0-8.5,0.1-17,0-25.5c-0.1-3,0.9-4.4,4-4
			c0.8,0.1,1.7,0,2.5,0c105.8,0,211.6,0,317.3-0.1c5.1,0,6.5,1.3,6.3,6.4c-0.4,10.1-0.2,20.3-0.3,30.5c-12.3,0.1-24.5,0.2-36.8,0.4
			c-0.8,0-1.7-0.1-2.5-0.1c-52.8,0-105.6,0-158.4,0c-30.3,0-60.6,0.1-91-0.1c-3.8,0-5.3,0.9-5.1,5c0.3,8.5,0.1,17,0.1,25.5
			c0,6.5,0,6.5-6.7,6.5c-32.5,0-65,0.1-97.5-0.1c-4.4,0-6.2,0.9-6,5.7c0.4,8.3-0.1,16.7,0.2,25c0.2,4.3-1,5.7-5.5,5.7
			c-20.8-0.2-41.7,0-62.5-0.2c-4.3,0-5.4,1.3-5.3,5.4c0.3,9,0,18,0.1,27c0.1,3.5-1.2,4.7-4.7,4.7c-9.2-0.1-18.3,0.1-27.5-0.1
			c-3.7-0.1-5,0.9-4.9,4.7c0.3,9.2,0,18.3,0.1,27.5c0,3.1-1,4.2-4.1,4c-9.3-0.6-18.6,1-27.9,0.7c-3.3-0.1-4.4,1-4.3,4.3
			c0.2,9-0.1,18,0.1,27c0.1,3.6-1.1,5.1-4.9,5c-9-0.2-18,0.2-27-0.2c-4.3-0.2-5.3,1.4-5.2,5.4c0.3,8.8-0.2,17.7,0.2,26.5
			c0.2,4.3-1.4,5.3-5.4,5.2c-8.7-0.3-17.3,0.2-26-0.2c-4.8-0.2-5.9,1.5-5.7,6c0.3,8.7,0,17.3,0.1,26c0.1,3.2-0.9,4.5-4.2,4.3
			c-9.3-0.4-18.6,0.3-27.9,0.7c-3,0.1-4.3,0.9-4.1,4c0.6,9.2-0.8,18.3-0.7,27.4c0.1,3.6-0.9,5-4.7,4.9c-9.2-0.3-18.3,0-27.5-0.1
			c-3.1-0.1-4.1,1-4,4c0.1,9.3-0.2,18.7,0.1,28c0.1,4-1.1,5.1-5.1,5.1c-10.7-0.2-21.3,0.1-32,0.2C394,599.5,393.9,587.1,393.9,574.6
			z"/>
		<path fill="#F7D476" d="M1348,354.7c0-10.6,0.1-21.3,0-31.9c0-3.3,1.1-4.3,4.3-4.3c9.6,0.1,19.2,0,28.7-0.3c2.1,0,3.6-0.3,3.4-3.8
			c-0.6-9.3-0.2-18.6-0.3-27.9c0-3.9,1.8-5.1,5.6-5c10.5,0.2,20.9,0.1,31.4,0.1c0,0,0,0,0,0c0,10.6-0.1,21.3,0.1,31.9
			c0.1,3.9-1,5.3-5,5.1c-9-0.3-18,0-26.9-0.2c-3.3-0.1-4.3,1.1-4.3,4.3c0.2,9.1-0.1,18.3,0.1,27.4c0.1,3.6-1.2,4.5-4.6,4.5
			C1369.6,354.6,1358.8,354.7,1348,354.7L1348,354.7z"/>
		<path fill="#F7D476" d="M1458.1,244.6c0,12.3,0,24.6,0,36.9c-12.4,0-24.7,0.1-37.1,0.1c0,0,0,0,0,0c0.1-12.2,0.1-24.4,0.2-36.6
			C1433.5,244.9,1445.8,244.7,1458.1,244.6z"/>
		<path fill="#E4982B" d="M394,482.9c0,5-0.1,10,0,15c0.1,2.8-0.9,3.8-3.7,3.8c-9.3-0.1-18.6-0.1-27.9,0c-3.3,0-4.4-1.4-4.4-4.5
			c0.1-9.5,0.1-19,0-28.4c0-2.9,0.8-4.2,3.9-4.1c9.5,0.2,19,0.1,28.4,0c2.9,0,3.8,1.1,3.7,3.8C393.9,473.3,394,478.1,394,482.9z"/>
		<path fill="#E4982B" d="M319.9,428.4c0.3-0.3,0.6-0.5,0.9-0.8c1.8,1.1,3.8,1.1,5.8,1.1c8.7,0,17.3,0.1,26-0.1
			c3.1-0.1,4.5,0.6,4.5,4.1c-0.2,9.3-0.2,18.7,0,28c0.1,3.1-1.1,4-4.1,4c-10.7-0.1-21.3,0-32,0c0,0,0,0,0,0c0-10,0-20,0-30
			C321,432.5,321.1,430.4,319.9,428.4z"/>
		<path fill="#E4982B" d="M325,391.8c10.7,0,21.3-0.1,32-0.1c0.1,0.2,0.1,0.3,0.2,0.5C346.4,392.8,335.7,393.4,325,391.8z"/>
		<path fill="#E4982B" d="M321,391.6c0.4,0.1,0.7,0.1,1.1,0.2c0,6.8,0,13.5-0.1,20.3c0,1.6,0.5,3.3-1,4.6
			C320.3,408.3,320.9,400,321,391.6z"/>
		<path fill="#E4982B" d="M321,421.7c0-0.7,0-1.4,0-2C322,420.3,322,421,321,421.7z"/>
		<path fill="#D98929" d="M797.8,1785.8c23,0,45.9,0,68.9-0.2c3.7,0,4.4,1.4,4.4,4.7c-0.2,10.5-0.1,21-0.1,31.5
			c-23.3,0.1-46.5,0.1-69.8,0.3c-3,0-3.5-1.3-3.5-3.9C797.8,1807.4,797.8,1796.6,797.8,1785.8z"/>
		<path fill="#D98929" d="M650.8,1748.8c10.8,0,21.6,0.1,32.4-0.2c3.7-0.1,4.9,1,4.8,4.8c-0.2,10.6-0.1,21.3,0,31.9
			c-12.4,0.1-24.7,0.3-37.1,0.4C650.9,1773.4,650.9,1761.1,650.8,1748.8z"/>
		<path fill="#D98929" d="M1091,1821.8c0-10.4,0.1-20.9-0.1-31.3c-0.1-3.6,0.9-4.9,4.7-4.9c10.8,0.2,21.5,0.1,32.3,0.1
			c0,12,0.1,24,0.1,36C1115.7,1822.2,1103.4,1822,1091,1821.8z"/>
		<path fill="#D98929" d="M796,1785.3c0.3-0.4,0.7-0.4,0.9,0.1c0,0-0.5,0.1-0.5,0.1L796,1785.3z"/>
		<path fill="#D98929" d="M101.1,1088.7c10.7,0,21.3,0.1,32,0c2.6,0,4.2,0.5,4,3.6c-1.4,20.6,2.6,41,2.1,61.6
			c-0.6,24.8-0.1,49.7-0.1,74.5c0,6.4,0,6.4,6.6,6.4c8,0,16,0.2,24-0.1c3.6-0.1,4.5,1.2,4.5,4.6c-0.1,11.1,0.1,22.2,0.2,33.4
			c-3.8-1.6-7.9-0.6-11.8-0.7c-8.5-0.2-17-0.1-25.5-0.2c0.1-1.6,0.3-3.3,0.3-4.9c0-45.2-0.1-90.4,0.1-135.7c0-4.9-1.4-6.2-6.1-5.9
			c-10.1,0.6-20.2-0.5-30.3,0.6C101,1113.3,101,1101,101.1,1088.7z"/>
		<path fill="#D98929" d="M210.7,574.5c2,2.1,0.1,4.4,0.1,6.5c0.3,8.5,0,17,0.2,25.5c0.1,4-1.4,5.3-5.3,5.2c-10.5-0.2-21,0-31.5,0
			c-0.1-12.3-0.2-24.7-0.3-37C186.2,574.9,198.5,575.1,210.7,574.5z"/>
		<path fill="#F3BC2E" d="M319.9,428.4c1.2,1.9,1.1,4.1,1.1,6.3c0,10,0,20,0,30c-10.4,0-20.9-0.2-31.3,0.1c-3.8,0.1-4.8-1.2-4.7-4.8
			c0.2-10.4,0.1-20.9,0-31.3c9.3-0.5,18.7-0.4,28-0.1c0.3,0.8,0.7,0.8,1,0c0.7,0,1.3,0,2,0c0.7,1.1,1.4,1.1,2,0
			C318.6,428.5,319.3,428.5,319.9,428.4z"/>
		<path fill="#D98929" d="M212,538.6c-0.1,1.4,0.4,2.9-0.9,4C211.1,541.3,209.8,539.5,212,538.6z"/>
		<path fill="#E4982B" d="M318,428.5c-0.7,1.1-1.4,1.1-2,0C316.7,428.5,317.3,428.5,318,428.5z"/>
		<path fill="#E4982B" d="M314,428.5c-0.3,0.8-0.7,0.7-1,0C313.3,428.5,313.7,428.5,314,428.5z"/>
		<path fill="#D98929" d="M1128,1785.6c0.2-0.5,0.5-0.7,1-0.3C1128.6,1785.4,1128.3,1785.5,1128,1785.6z"/>
		<path fill="#F7D476" d="M1457.9,464.8c-10.1-0.1-20.2-0.1-30.3-0.2c-6.5,0-6.5,0-6.5-6.3c0-9.9-0.1-19.9-0.1-29.8
			c0-11,0.1-22,0-33c0-3,1-4.1,4-4c9,0.2,18-0.2,27,0.2c5,0.2,6.3-1.7,6.1-6.3c-0.3-8.8,0-17.6-0.1-26.5c-0.1-3.2,1-4.4,4.3-4.3
			c9.2,0.2,18.3-0.1,27.5,0.2c4.1,0.1,5.5-1,5.4-5.2c-0.2-10.5,0.1-21,0.1-31.4c10.7,0,21.3,0.2,32,0c3.3-0.1,4.2,1,4.1,4.2
			c-0.2,9.5,0,19-0.1,28.5c0,2.5,0.3,4,3.5,4c11.1-0.2,22.3-0.1,33.4-0.2c0,12.3,0,24.6,0,36.9c-10.2,0-20.3,0.1-30.5,0.1
			c-6.5,0-6.5,0-6.5,6.7c0,8.7-0.1,17.3,0.1,26c0.1,3.3-1.1,4.3-4.3,4.3c-8.8-0.2-17.7,0.1-26.5-0.1c-4-0.1-5.6,0.9-5.4,5.2
			c0.3,8.8-0.1,17.7,0.1,26.5c0.1,3.5-1.1,4.6-4.6,4.5C1479.6,464.6,1468.8,464.8,1457.9,464.8z"/>
		<path fill="#F3BC2E" d="M1457.9,464.8c10.8-0.1,21.7-0.2,32.5-0.1c3.4,0,4.7-1,4.6-4.5c-0.2-8.8,0.2-17.7-0.1-26.5
			c-0.1-4.3,1.4-5.4,5.4-5.2c8.8,0.3,17.7,0,26.5,0.1c3.2,0.1,4.4-1,4.3-4.3c-0.2-8.7-0.1-17.3-0.1-26c0-6.7,0-6.7,6.5-6.7
			c10.2,0,20.3-0.1,30.5-0.1c10.8,0,21.7,0.2,32.5,0c3.3-0.1,4.1,1,4.2,4.2c0.1,10.8-0.8,21.6,0.5,32.4c-0.1,10.5-0.4,20.9-0.2,31.4
			c0.1,4.3-1.4,5.4-5.4,5.2c-9.1-0.3-18.3,0-27.4-0.1c-3.2-0.1-4.4,1-4.3,4.2c0.2,9-0.2,18,0.2,26.9c0.2,5-1.5,6.2-6.2,6
			c-9-0.4-17.9,0-26.9-0.1c-3.1-0.1-4,1-4,4c0.1,11,0.1,21.9,0.1,32.9c-10.8,0-21.5-1.5-32.3-0.8c-3.3,0.2-3.8-1.4-3.8-4.2
			c0.1-9.1-0.1-18.3,0.1-27.4c0.1-3.5-1.1-4.6-4.5-4.5c-9,0.2-17.9-0.1-26.9,0.2c-4.3,0.1-5.8-0.9-5.7-5.5
			C1458.3,485.8,1458,475.3,1457.9,464.8z"/>
		<path fill="#D98929" d="M540.9,1675.7c10.7,0,21.3,0.1,32-0.1c4-0.1,5.4,1.4,5.2,5.3c-0.2,4.1-0.2,8.3,0,12.5
			c0.3,5.9-2.6,13.7,1.2,17.3c3.7,3.5,11.4,0.8,17.4,1c4.2,0.1,8.3,0.2,12.5,0c3.6-0.2,5.1,1.2,5,4.9c-0.2,10.6,0,21.3,0,32
			c-11,0.1-21.9,0-32.9,0.2c-3,0.1-3.5-1.2-3.5-3.8c0.1-9-0.2-18,0.2-26.9c0.2-4.7-1-6.3-5.9-6.2c-10.3,0.3-20.6,0-30.9-0.1
			C540.9,1699.7,540.9,1687.7,540.9,1675.7z"/>
		<path fill="#D98929" d="M649,1748.5c0.8-0.9,1.4-0.9,1.9,0.3C650.3,1748.8,649.6,1748.7,649,1748.5z"/>
		<path fill="#F3BC2E" d="M284.3,1489.6c1.6-8,0.5-16.1,0.7-24.2c0.2-9.8,0-9.8,9.6-9.8c8.8,0,17.6,0,26.4,0
			c-0.1,12.1-0.1,24.3-0.2,36.4c-12.3-0.1-24.6-0.2-36.9-0.4C284.1,1491,284.2,1490.3,284.3,1489.6z"/>
		<path fill="#D98929" d="M174.3,1308.6c10.7,0,21.3,0.2,32,0c3.8-0.1,4.9,1.2,4.8,4.9c-0.2,10.8-0.1,21.7-0.2,32.5
			c-12.3-1.2-24.6-0.6-36.9-0.3C174.1,1333.3,174.2,1321,174.3,1308.6z"/>
		<path fill="#F3BC2E" d="M1495.2,318.1c-0.1,10.5-0.4,21-0.1,31.4c0.1,4.3-1.3,5.4-5.4,5.2c-9.1-0.3-18.3,0-27.5-0.2
			c-3.3-0.1-4.3,1.1-4.3,4.3c0.2,8.8-0.2,17.6,0.1,26.5c0.2,4.7-1.1,6.5-6.1,6.3c-9-0.4-18,0-27-0.2c-3.1-0.1-4.1,1-4,4
			c0.1,11,0.1,22,0,33c-10.3,0-20.6-0.1-30.9,0.1c-3.7,0.1-5.5-0.7-5.2-4.9c0.7-9.5-0.7-18.9-0.8-28.3c0-3.2-1.4-3.9-4.2-3.8
			c-9.1,0.1-18.3-0.1-27.4,0.1c-3.5,0.1-4.6-1.1-4.5-4.5c0.2-10.8,0-21.6,0-32.4c10.8,0,21.6-0.1,32.4,0.1c3.4,0.1,4.7-0.9,4.6-4.5
			c-0.2-9.1,0-18.3-0.1-27.4c-0.1-3.2,1-4.4,4.3-4.3c9,0.2,18-0.1,26.9,0.2c4,0.1,5.1-1.3,5-5.1c-0.2-10.6-0.1-21.3-0.1-31.9
			c12.4,0,24.7-0.1,37.1-0.1c12.3,0,24.6,0.1,37,0.1C1494.5,293.8,1494.2,305.9,1495.2,318.1z"/>
		<path fill="#F3BC2E" d="M393.9,574.6c0,12.4,0.1,24.9,0.1,37.3c0,10.6-0.1,21.3,0.1,31.9c0.1,3.6-0.9,5-4.7,4.9
			c-9-0.3-18,0.2-26.9-0.2c-4.6-0.2-5.5,1.4-5.5,5.7c0.2,20.6,0.1,41.3,0.1,61.9c0,1.9,0.7,4-1,5.7c-10,0-20,0.1-30-0.2
			c-4-0.1-5.1,1.2-5,5.1c0.1,32.8,0.1,65.7,0.1,98.5c0,6.5,0,6.5-6.5,6.5c-8.5,0-17,0.2-25.5-0.1c-3.9-0.1-5.2,1-5.1,5
			c0.2,15.5,0.1,31,0.1,46.5c0,66.5,0.1,133-0.1,199.5c0,4.8,1.1,6.4,6,6.1c8.5-0.4,17,0.1,25.5-0.2c4.3-0.2,5.7,1,5.7,5.5
			c-0.2,32.7-0.1,65.3-0.1,98c0,6.6,0,6.6,6.4,6.6c7.8,0,15.7,0,23.5,0c7,0,7.1,0.1,7.1,7.4c0,19.8,0.1,39.7-0.1,59.5
			c-0.1,4.7,1,6.5,6,6.2c8.3-0.4,16.7,0,25-0.2c3.9-0.1,5.4,1.2,5.3,5.2c-0.2,8.8,0.2,17.7-0.2,26.5c-0.2,4.6,1.4,5.6,5.7,5.5
			c8.7-0.3,17.3,0.2,26-0.2c4.6-0.2,5.6,1.4,5.5,5.7c-0.3,8.8,0,17.7-0.1,26.5c-0.1,3.7,1.3,5,5,4.9c8.7-0.2,17.3,0.1,26-0.1
			c3.7-0.1,5.6,0.7,5.2,4.9c-0.8,9.1,1,18.2,0.8,27.4c-0.1,3.2,1.3,3.9,4.2,3.9c9.2-0.1,18.3,0.1,27.5-0.1c3.5-0.1,4.6,1.1,4.5,4.6
			c-0.2,9.5,0,19-0.1,28.5c0,3.1,1,4.1,4,4c9.5-0.1,19,0.1,28.5-0.1c3.5-0.1,4.6,1.1,4.5,4.6c-0.2,9.5,0,19-0.1,28.5
			c0,3.1,1,4.1,4,4c9.2-0.1,18.3,0.1,27.5-0.1c4.1-0.1,5.7,1.2,5.6,5.4c-0.2,8.8,0,17.7-0.1,26.5c-0.1,3.3,1,4.4,4.3,4.3
			c8.7-0.2,17.3,0.2,26-0.1c4.4-0.2,6.2,0.9,6,5.7c-0.4,8.3-0.1,16.7-0.1,25c0,6.3,0,6.4,6.6,6.4c7.8,0,15.7,0,23.5,0
			c6.9,0,6.9,0,6.9,7.1c0,7.7,0,15.3,0,23c0,6.8,0,6.8,6.6,6.8c20.3,0,40.7,0.1,61-0.1c4.5-0.1,5.7,1.3,5.5,5.7
			c-0.3,8.3,0.2,16.7-0.2,25c-0.2,4.4,1.1,5.7,5.5,5.6c32.7-0.2,65.3-0.1,98-0.1c6.6,0,6.6,0,6.6,6.4c0,8.8,0.1,17.7-0.1,26.5
			c0,2.9,0.8,4.4,3.9,4.1c1.6-0.2,3.3,0,5,0c95,0,190,0.1,285,0.1c0,10.3-0.1,20.7,0.2,31c0.1,4.6-1.3,6.1-6,6
			c-27.8-0.2-55.7-0.1-83.5-0.1c-78.2,0-156.3-0.1-234.5,0.1c-5.2,0-6.6-1.4-6.3-6.4c0.4-8.1-0.1-16.3,0.2-24.5
			c0.2-4.8-1.3-6.3-6.2-6.3c-32.5,0.2-65,0.1-97.5,0.1c-6.4,0-6.4,0-6.4-6.6c0-8.3-0.2-16.7,0.1-25c0.1-4.1-1.3-5.5-5.5-5.5
			c-20.8,0.2-41.7-0.1-62.5,0.2c-4.7,0.1-6.4-1-6.2-6c0.4-8.5-0.1-17,0.2-25.5c0.1-3.9-1.3-4.8-4.9-4.7c-9,0.2-18,0-27,0.1
			c-3.3,0.1-4.3-1.1-4.3-4.3c0.2-9-0.1-18,0.1-27c0.1-4.3-1.2-6-5.7-5.8c-8.8,0.3-17.7-0.1-26.5,0.2c-4.1,0.1-5.1-1.3-5-5.2
			c0.2-9,0-18,0.1-27c0.1-3.7-1.2-5-4.9-5c-21.2,0.1-42.3,0.1-63.5-0.1c-3.9,0-4.7,1.4-4.7,5c0.2,8.7-0.3,17.4,0.2,26
			c0.3,5.4-1.6,6.4-6.5,6.2c-8.5-0.4-17,0.1-25.5-0.2c-4.3-0.2-5.3,1.4-5.2,5.4c0.3,9-0.1,18,0.2,27c0.1,3.8-1.2,4.8-4.9,4.8
			c-10.7-0.2-21.4-0.1-32.2-0.2c-11.4-0.1-22.7-0.3-34.1-0.4c-0.5-0.1-1-0.1-1.5-0.2c-0.7-0.2-0.8-0.7-0.6-1.3c1.5-1,1.5-2,0-3
			c0-8.3,0-16.6,0-25c1.6-1.3,1.7-2.7,0-4c0-0.3,0-0.7,0-1c0.9-0.4,0.7-0.7-0.1-1c-0.3-0.2-0.4-0.4-0.4-0.8
			c10.8-0.1,21.6-0.3,32.5-0.2c3.2,0,4.4-1,4.3-4.3c-0.2-9.3,0.1-18.7-0.1-28c-0.1-3.6,0.9-5,4.7-4.9c9.2,0.3,18.3,0,27.5,0.1
			c3.7,0.1,5-1.4,4.9-5c-0.2-8.5,0.2-17-0.1-25.5c-0.2-4.3,0.9-5.9,5.5-5.7c8.6,0.4,17.3,0,26,0.2c3.3,0.1,4.8-0.6,4.7-4.4
			c-0.2-9.5-0.2-19,0-28.5c0.1-3.3-1.2-4.3-4.4-4.2c-9.2,0.2-18.3-0.1-27.5,0.1c-3.2,0.1-4.4-1-4.3-4.3c0.2-9-0.2-18,0.1-27
			c0.2-4.8-1.6-6-6.1-5.9c-10.3,0.3-20.6,0.1-31,0c0-10.5-0.1-21,0.1-31.5c0.1-3.5-1-4.7-4.5-4.6c-8.3,0.2-16.7,0.1-25,0
			c-6-0.1-6.6-0.7-6.6-6.6c0-7.7,0.1-15.3,0-23c-0.1-6.9-0.7-7.3-7.4-7.3c-7.8,0-15.7-0.3-23.5,0.1c-4.7,0.2-6.3-1.1-6.2-6
			c0.3-20.3-0.1-40.7,0.3-61c0.1-5.3-1.6-6.5-6.5-6.2c-8.3,0.4-16.7-0.1-25,0.2c-4.4,0.1-5.8-1.4-5.7-5.7
			c0.1-31.8,0.1-63.7,0.1-95.5c0-8.9,0-8.9-9.1-8.9c-7.5,0-15-0.2-22.5,0.1c-4,0.1-5.5-1.5-5.4-5.3c0-1,0-2,0-3
			c0-105.2,0-210.3,0-315.5c0-7.4,0-7.4,7.4-7.4c8,0,16-0.2,24,0.1c4.3,0.2,5.7-1,5.6-5.5c-0.2-32.5-0.1-65-0.1-97.5
			c0-7.1,0-7.1,7.2-7.1c8.3,0,16.7-0.2,25,0.1c3.7,0.1,4.9-1,4.8-4.8c-0.2-21,0-42-0.2-63c0-4,1-5.6,5.2-5.4
			c8.5,0.3,17-0.2,25.5,0.2c4.6,0.2,5.6-1.4,5.5-5.7c-0.3-8.8,0-17.7-0.1-26.5c-0.1-3.7,1.3-5,5-5
			C372.6,574.7,383.2,574.6,393.9,574.6z"/>
		<path fill="#E4982B" d="M394,1381.7c10.3,0,20.7,0.2,31,0c4.5-0.1,6.3,1.1,6.1,5.9c-0.3,9,0,18-0.1,27c-0.1,3.3,1.1,4.3,4.3,4.3
			c9.2-0.2,18.3,0,27.5-0.1c3.2-0.1,4.4,0.9,4.4,4.2c-0.2,9.5-0.2,19,0,28.5c0.1,3.7-1.5,4.4-4.7,4.4c-8.7-0.2-17.3,0.2-26-0.2
			c-4.6-0.2-5.6,1.4-5.5,5.7c0.3,8.5,0,17,0.1,25.5c0.1,3.6-1.2,5.1-4.9,5c-9.2-0.2-18.3,0.1-27.5-0.1c-3.8-0.1-4.8,1.3-4.7,4.9
			c0.2,9.3,0,18.7,0.1,28c0.1,3.3-1.1,4.3-4.3,4.3c-10.8-0.1-21.6,0.1-32.5,0.2c-12.1-0.1-24.2-0.1-36.3-0.2
			c0-12.2-0.1-24.4-0.1-36.6c0.1-12.1,0.1-24.3,0.2-36.4c0,0,0,0,0,0c10,0,19.9,0,29.9,0c6.5,0,6.7-0.7,6.3-7.1
			c-0.4-8.3-0.3-16.6-0.1-24.9c0.1-3.4,1.6-5.2,5.6-5.1c8.5,0.3,17-0.1,25.4,0.2c4.4,0.2,6.1-0.9,6-5.7
			C393.8,1402.6,394,1392.1,394,1381.7L394,1381.7z"/>
		<path fill="#E4982B" d="M357.8,1531.6c1.7,1.3,1.6,2.7,0,4C357.3,1534.3,357.4,1533,357.8,1531.6z"/>
		<path fill="#E4982B" d="M357.8,1560.6c1.5,1,1.5,2,0,3C357.4,1562.7,357.4,1561.7,357.8,1560.6z"/>
		<path fill="#E4982B" d="M358.4,1565c0.5,0.1,1,0.1,1.5,0.2C359.4,1565.1,358.9,1565.1,358.4,1565z"/>
		<path fill="#E4982B" d="M357.7,1529.7c0.9,0.2,1,0.5,0.1,1C357.8,1530.3,357.7,1530,357.7,1529.7z"/>
		<path fill="#D98929" d="M467.5,1638.9c10.8-0.1,21.5,0,32.3-0.2c3.3-0.1,4.3,1.1,4.2,4.3c-0.1,10.8,0,21.5,0,32.3
			c-12,0.2-24,0.3-36.1,0.5C467.8,1663.4,467.7,1651.1,467.5,1638.9z"/>
		<path fill="#D98929" d="M1384.3,1677.5c-0.5-0.8-0.3-1.4,0.5-1.8C1384.7,1676.3,1384.5,1676.9,1384.3,1677.5z"/>
		<path fill="#D98929" d="M465,1638.5c0.3-0.5,0.6-0.5,1,0C465.7,1638.5,465.3,1638.5,465,1638.5z"/>
		<path fill="#F3BC2E" d="M1458,1601.7c12.4,0,24.8,0.1,37.2,0.1c-1.2,8.5-0.2,17-0.5,25.5c-0.1,2.1-0.1,4.3-0.2,6.4
			c-0.1,0.1-0.3,0.2-0.2,0.3c0,0.2,0.2,0.4,0.2,0.6c0,1.3,0,2.6,0.1,3.9c0,0,0.1,0,0.1,0c-10.2,0-20.4,0-30.6,0
			c-0.3-0.5-0.6-0.5-0.9,0c-1.7,0.1-3.3,0.2-5,0.2C1458,1626.4,1458,1614,1458,1601.7z"/>
		<path fill="#D98929" d="M1463,1638.5c0.3-0.5,0.6-0.5,0.9,0C1463.7,1638.5,1463.3,1638.5,1463,1638.5z"/>
		<path fill="#D98929" d="M1457.8,1673.6c-0.1-0.2-0.2-0.4-0.3-0.7c0-0.1,0.2-0.2,0.3-0.3C1457.8,1673,1457.8,1673.3,1457.8,1673.6z
			"/>
		<path fill="#D98929" d="M1457.8,1639.6c0-0.3-0.1-0.5-0.1-0.8c0,0,0.3-0.1,0.4-0.1C1458.1,1639.1,1458,1639.4,1457.8,1639.6z"/>
		<path fill="#D98929" d="M1347.8,1746.6c-0.8-0.6-0.8-1.3,0-1.9C1347.8,1745.3,1347.8,1746,1347.8,1746.6z"/>
		<path fill="#D98929" d="M1347.9,1712.6c-0.3-1.7,0.9-0.7,1.4-0.8C1348.9,1712.1,1348.4,1712.3,1347.9,1712.6z"/>
		<path fill="#D98929" d="M1350.8,1711.8c0.5,0,1,0,1.5,0C1351.8,1712.2,1351.3,1712.2,1350.8,1711.8z"/>
		<path fill="#D98929" d="M1494.4,1634.6c-0.1-0.2-0.2-0.4-0.2-0.6c0-0.1,0.2-0.2,0.2-0.3C1494.7,1634,1494.7,1634.3,1494.4,1634.6z
			"/>
		<path fill="#E4982B" d="M356,721.8c1.7-1.6,1-3.8,1-5.7c0.1-20.6,0.1-41.3-0.1-61.9c0-4.2,0.9-5.9,5.5-5.7c9,0.4,18-0.1,26.9,0.2
			c3.8,0.1,4.8-1.2,4.7-4.9c-0.2-10.6-0.1-21.3-0.1-31.9c10.7-0.1,21.3-0.4,32-0.2c3.9,0.1,5.2-1.1,5.1-5.1c-0.3-9.3,0-18.7-0.1-28
			c0-3,1-4.1,4-4c9.2,0.2,18.3-0.1,27.5,0.1c3.8,0.1,4.8-1.3,4.7-4.9c-0.1-9.1,1.3-18.3,0.7-27.4c-0.2-3.1,1.1-3.9,4.1-4
			c9.3-0.3,18.6-1.1,27.9-0.7c3.4,0.2,4.3-1.2,4.2-4.3c-0.2-8.7,0.2-17.3-0.1-26c-0.2-4.4,0.9-6.2,5.7-6c8.6,0.4,17.3-0.1,26,0.2
			c4,0.1,5.6-0.9,5.4-5.2c-0.3-8.8,0.1-17.7-0.2-26.5c-0.1-4,0.9-5.6,5.2-5.4c9,0.3,18,0,27,0.2c3.8,0.1,4.9-1.4,4.9-5
			c-0.2-9,0.1-18-0.1-27c-0.1-3.3,1-4.4,4.3-4.3c9.3,0.3,18.6-1.4,27.9-0.7c3,0.2,4.1-1,4.1-4c-0.1-9.2,0.1-18.3-0.1-27.5
			c-0.1-3.8,1.2-4.8,4.9-4.7c9.2,0.2,18.3,0,27.5,0.1c3.5,0.1,4.7-1.2,4.7-4.7c-0.2-9,0.1-18-0.1-27c-0.1-4.1,1-5.4,5.3-5.4
			c20.8,0.2,41.7,0,62.5,0.2c4.5,0.1,5.7-1.3,5.5-5.7c-0.3-8.3,0.2-16.7-0.2-25c-0.2-4.8,1.6-5.7,6-5.7c32.5,0.2,65,0.1,97.5,0.1
			c6.7,0,6.7,0,6.7-6.5c0-8.5,0.2-17-0.1-25.5c-0.1-4.1,1.3-5,5.1-5c30.3,0.1,60.6,0.1,91,0.1c52.8,0,105.6,0,158.4,0
			c0.8,0,1.7,0.1,2.5,0.1c0,10.3,0.1,20.7-0.1,31c-0.1,3.5,0.6,5,4.6,5c24,0.1,47.9,0.6,71.9,0.9c9.3,0.1,18.7,0.2,28-0.1
			c4.3-0.1,5.9,0.9,5.7,5.5c-0.4,8.5,0.1,17-0.2,25.5c-0.2,4.3,1.4,5.3,5.4,5.2c20.8-0.2,41.7,0,62.5-0.1c3.2,0,5,0.3,5.5,4.3
			c1.2,8.3,0.3,16.6,0.6,24.9c0.3,9-1,7.8,8.1,7.9c7.8,0.1,15.7,0.2,23.5-0.1c3.6-0.1,4.6,1.2,4.5,4.6c-0.2,9.2,0,18.3-0.1,27.5
			c-0.1,3.6,1.2,5.1,4.9,5c8.8-0.2,17.7,0.2,26.5-0.2c4.8-0.2,5.9,1.5,5.7,6c-0.3,8.5,0.1,17-0.2,25.5c-0.1,3.8,1.2,4.8,4.9,4.8
			c9-0.2,18,0.1,27-0.1c3.9-0.1,5.4,1.2,5.3,5.2c-0.2,8.8,0.2,17.7-0.2,26.5c-0.2,4.6,1.4,5.6,5.7,5.5c8.7-0.3,17.3,0.1,26-0.2
			c3.6-0.1,4.6,1.2,4.5,4.6c-0.2,9,0.1,18-0.1,27c-0.1,3.5,1.1,4.3,4.6,4.6c9.6,0.8,19.2,1,28.9,0.8c2.9,0,3.7,1.2,3.7,3.9
			c-0.1,9.2,0.1,18.3-0.1,27.5c-0.1,3.8,1.2,4.8,4.9,4.8c9-0.2,18,0.1,27-0.1c3.9-0.1,5.4,1.2,5.3,5.2c-0.2,8.8,0.2,17.7-0.2,26.5
			c-0.2,4.6,1.4,5.6,5.7,5.5c8.7-0.3,17.3,0.1,26-0.2c3.6-0.1,4.6,1.2,4.5,4.6c-0.2,9.2,0,18.3-0.1,27.5c-0.1,3.6,1.2,5.1,4.9,5
			c8.8-0.2,17.7,0.2,26.5-0.2c4.8-0.2,5.8,1.5,5.7,6c-0.2,20.3,0,40.7-0.2,61c-0.1,4.8,1.4,6.5,6.2,6.3c8-0.3,16-0.1,24-0.1
			c6.8,0,6.8,0,6.8,6.6c0,32.5,0.1,65-0.1,97.5c0,4.9,1.5,6.2,6.2,6c8.5-0.4,17,0,25.5-0.2c3.6-0.1,4.5,1.2,4.5,4.6
			c-0.1,20.3-0.1,40.7-0.1,61c0,61.8-0.1,123.7,0.1,185.5c0,4.8-1.2,6.3-6.1,6.1c-8.1-0.4-16.3,0.1-24.5-0.2c-4.3-0.2-5.7,1-5.7,5.5
			c0.2,32.7,0.1,65.3,0.1,98c0,6.6,0,6.6-6.4,6.6c-8.2,0-16.4,0.4-24.5-0.1c-5.4-0.3-6.3,1.6-6.2,6.5c0.3,20.5,0,41,0.2,61.5
			c0,4.3-1.3,5.4-5.4,5.2c-8.8-0.3-17.7,0.1-26.5-0.1c-3.9-0.1-5.4,1.2-5.3,5.2c0.2,8.7-0.2,17.3,0.2,26c0.2,5-1.5,6.2-6.2,6
			c-8.5-0.4-17,0.1-25.5-0.2c-3.6-0.1-4.6,1.2-4.5,4.6c0.2,9.2-0.1,18.3,0.1,27.5c0.1,3.6-1.2,5.1-4.9,5c-8.8-0.2-17.7,0.2-26.5-0.2
			c-4.8-0.2-5.9,1.5-5.7,6c0.3,8.5-0.1,17,0.2,25.5c0.1,3.8-1.2,4.8-4.9,4.7c-9-0.2-18,0.1-27-0.1c-3.9-0.1-5.4,1.2-5.3,5.2
			c0.2,8.8-0.2,17.7,0.2,26.5c0.2,4.6-1.4,5.6-5.7,5.5c-8.7-0.3-17.3,0.1-26-0.2c-3.6-0.1-4.6,1.2-4.5,4.6c0.2,9.2,0,18.3,0.1,27.5
			c0.1,3.6-1.2,5.1-4.9,5c-9-0.2-18,0.2-27-0.1c-4.3-0.2-5.4,1.4-5.2,5.4c0.3,8.7-0.1,17.3,0.2,26c0.1,3.8-1.2,4.9-4.9,4.8
			c-9-0.2-18,0.1-27-0.1c-3.9-0.1-5.4,1.2-5.3,5.2c0.2,9-0.1,18,0.1,27c0.1,3.5-0.7,5.1-4.7,5c-9-0.3-18-0.2-27,0
			c-3.6,0.1-4.4-1.2-4.5-4.6c-0.2-9.5,0.9-18.9-0.7-28.4c-0.6-3.3-1.9-4.1-4.9-4.1c-9,0.1-18-0.1-27,0.1c-3.2,0.1-4.4-0.9-4.3-4.3
			c0.2-23,0.2-46,0.2-69c10.2,0.1,20.3-0.2,30.5,0.3c5.2,0.2,6.4-1.7,6.4-6.6c-0.1-68-0.1-136-0.1-204c0-1.5,0-3-0.1-4.5
			c-0.3-3.6-1.7-5.4-5.9-5.2c-8.5,0.4-17-0.2-25.5,0.2c-4.6,0.2-5.5-1.5-5.5-5.7c0.3-13.7,0.1-27.3,0.1-41c0-43.7,0.1-87.3-0.1-131
			c0-4.4,1.1-5.7,5.6-5.6c8.8,0.1,17.6-0.6,26.4-0.6c4.1,0,5.2-1.6,5.1-5.3c-0.2-8.7,0.2-17.3-0.1-26c-0.1-4.1,1.4-5.1,5.2-5
			c8.5,0.2,17-0.2,25.5,0.2c4.3,0.2,5.9-0.9,5.7-5.5c-0.4-8.8,0-17.7-0.2-26.5c-0.1-4,1.4-5.2,5.2-5.1c9.2,0.2,18.3-0.1,27.5,0.1
			c3.2,0.1,4.4-0.9,4.3-4.2c-0.2-9.2,0.1-18.3-0.1-27.5c0-3,0.6-4.6,4.1-4.5c9.5,0.2,18.9,0,28.4-0.6c3.5-0.2,4.6-1.1,4.5-4.6
			c-0.2-8.8,0.2-17.7-0.1-26.5c-0.2-4.3,1.4-5.4,5.4-5.2c8.5,0.3,17-0.1,25.5,0.2c4,0.1,5.6-0.9,5.4-5.2c-0.3-8.8,0.1-17.7-0.2-26.5
			c-0.1-4.2,1.4-5.5,5.5-5.4c9.2,0.2,18.3,0,27.5,0.1c3,0,4.1-1,4-4c-0.1-9.3-0.2-18.7,0-28c0.1-4.1-1.6-5.1-5.3-5
			c-9.2,0.2-18.3-0.1-27.5,0.1c-3.3,0.1-4.3-1.1-4.2-4.3c0.2-8.3,0.1-16.7,0.1-25c0-6.9,0-6.9-7.1-6.9c-81.3,0-162.6,0-243.9,0
			c-12.2,0-24.3-0.2-36.5,0.1c-4.5,0.1-5.8-1.5-5.6-5.8c0.3-9,0-18,0.1-27c0.1-3.3-0.9-4.4-4.2-4.3c-8.7,0.2-17.3,0.1-26,0.1
			c-6.7,0-6.7,0-6.7-6.5c0-32.8-0.1-65.7,0-98.5c0-3.9-1.1-5.2-5.1-5.1c-8.7,0.3-17.3-0.1-26,0.2c-4.3,0.2-5.3-1.4-5.2-5.4
			c0.7-33.1-1-66.3-0.7-99.4c0-0.3,0-0.7,0-1c0.4-3.2-0.9-4.4-4.2-4.3c-8.7,0.2-17.3-0.2-26,0.2c-4.9,0.2-6.1-1.4-6.1-6.1
			c0.3-20.8,0.1-41.7,0.2-62.5c0-2.9-0.2-4.7-3.9-4.6c-11,0.2-22,0.2-33,0.3c0-10.7-0.2-21.3,0-32c0.1-3.7-0.7-5.4-4.9-5.2
			c-9,0.3-18,0.2-27,0c-3.9-0.1-5.3,1.3-5.2,5.2c0.2,8.5-0.1,17,0.1,25.5c0.1,4-0.9,5.5-5.2,5.5c-8.3-0.1-16.6-0.1-24.9,0.6
			c-5.4,0.4-6.1,2.1-6.1,6.7c0.2,19.8,0.1,39.7,0.1,59.5c0,7.1,0,7.1-7.2,7.1c-8.2,0-16.3,0.2-24.5-0.1c-4.2-0.2-5.4,1.1-5.3,5.3
			c0.2,33,0,66,0.2,99c0,4.5-1,6.1-5.8,5.9c-8.3-0.4-16.7,0.2-25-0.2c-4.9-0.2-6.5,1-6.5,6.3c0.3,32.3,0.1,64.7,0.1,97
			c0,6.9,0,6.9-7.1,6.9c-8.2,0-16.3,0.2-24.5-0.1c-3.6-0.1-4.6,1.2-4.5,4.6c0.2,9-0.1,18,0.2,27c0.1,3.8-1.7,5-4.9,5.4
			c-1.6,0.2-3.3,0.1-5,0.1c-92.7,0-185.3,0-278-0.1c-5.1,0-6.6,1.2-6.4,6.3c0.5,8.3,0,16.7,0.2,25c0.1,3.7-0.9,5-4.7,4.9
			c-9-0.3-18,0.1-27-0.2c-4-0.1-5.6,0.9-5.4,5.2c0.3,9,0,18,0.2,27c0.1,3.6-0.8,5.1-4.7,5c-9-0.3-18-0.2-27,0
			c-3.6,0.1-4.5-1.3-4.5-4.6c0.2-9.2,0-18.3,0.1-27.5c0.1-3.7-1.3-5.1-4.9-5c-8.5,0.2-17,0.1-25.5,0.1c-6.6,0-6.6,0-6.6-6.4
			c0-8.2-0.2-16.3,0.1-24.5c0.2-4.3-1.4-5.4-5.4-5.2c-8.3,0.3-16.7,0-25,0.1c-3.4,0.1-5.4-0.4-5.9-4.6c-1.2-8.8-1.1-17.6-0.1-26.3
			C358,725.1,356,723.9,356,721.8z"/>
		<path fill="#F3BC2E" d="M1237.9,1381.7c-10.7,0-21.3-0.2-32,0c-3.7,0.1-5-0.9-4.9-4.7c0.3-9-0.1-18,0.2-27
			c0.1-3.5-1.1-4.6-4.6-4.5c-9,0.2-18-0.1-27,0.1c-4.1,0.1-5.6-1.1-5.5-5.4c0.3-8.7-0.2-17.3,0.2-26c0.2-4.8-1.5-5.9-6-5.7
			c-8.7,0.3-17.3,0-26,0.2c-3.2,0.1-4.4-0.9-4.3-4.3c0.2-8.8-0.2-17.7,0.2-26.5c0.2-5.2-1.7-6.6-6.6-6.4c-8.8,0.4-17.7,0-26.5,0.2
			c-3.1,0.1-4.1-1-4-4c0.2-8.7-0.3-17.3,0.2-26c0.3-5.4-1.7-6.3-6.5-6.2c-20.3,0.2-40.7,0-61,0.2c-4.3,0-6-1.1-5.8-5.6
			c0.3-8.8,0-17.7,0.1-26.5c0.1-3.6-1.2-5-4.9-5c-33.7,0.1-67.3,0.1-101,0c-3.2,0-4.4,1-4.3,4.3c0.2,8.8-0.2,17.7,0.2,26.5
			c0.2,4.7-1.2,6.4-6.1,6.3c-20.7-0.3-41.3,0.1-62-0.2c-5-0.1-6.2,1.5-6,6.2c0.4,8.5-0.1,17,0.2,25.5c0.1,3.4-0.9,4.7-4.5,4.6
			c-9-0.2-18,0.1-27-0.2c-3.8-0.1-4.8,1.2-4.8,4.9c0.2,9.2,0,18.3,0.1,27.5c0.1,3.4-1.1,4.8-4.6,4.7c-8.7-0.2-17.3-0.1-26-0.1
			c-6.4,0-6.4,0-6.4,6.6c0,8.2-0.3,16.3,0.1,24.5c0.3,5-1.5,6.2-6.2,6c-8.1-0.4-16.3-0.1-24.5-0.1c-6.4,0-6.4,0-6.4,6.6
			c0,8.5-0.1,17,0.1,25.5c0.1,3-0.9,4.1-4,4c-9.3-0.2-18.7-0.2-28,0c-3,0-4-0.9-4.1-4c-1.1-42.8-0.8-85.6-0.8-128.4
			c0-3.6,0.7-7.3,0.8-10.9c0.1-2.7,1.8-2.5,3.7-2.8c9.1-1.1,18.3-1,27.4-0.7c4,0.1,5.1-1.1,5.1-5.1c-0.1-32.8,0-65.7-0.2-98.5
			c0-4.7,1.4-5.9,5.9-5.8c8.8,0.3,17.7,0,26.5,0.1c3.4,0.1,4.7-1.2,4.7-4.7c-0.1-33.8-0.1-67.7,0-101.5c0-3.7-1.2-5-4.9-5
			c-9,0.2-18-0.1-27,0.1c-3.8,0.1-5.3-0.9-5.1-5c0.3-9,0-18,0.1-27c0.1-3.3-1.1-4.3-4.4-4.3c-8.8,0.2-17.7-0.1-26.5,0.1
			c-4,0.1-5.6-0.9-5.4-5.2c0.3-8.8-0.1-17.7,0.2-26.5c0.1-4.2-1.5-5.5-5.5-5.4c-9.2,0.2-18.3,0-27.5,0.1c-3,0-4.1-0.9-4-4
			c0.2-9-0.2-18,0.2-27c0.1-4.3-1.4-5.3-5.4-5.3c-9.3,0-18.6-1.2-27.9-0.7c-2.8,0.2-3.8-0.9-3.8-3.7c0.1-9-0.2-18,0.1-27
			c0.2-4.6-1.4-5.6-5.7-5.5c-8.7,0.3-17.3,0-26,0.2c-3.5,0.1-4.7-1-4.6-4.5c0.2-8.7-0.2-17.3,0.2-26c0.2-4.9-1.2-6.9-6.4-6.6
			c-8.8,0.4-17.7,0-26.5,0.2c-3.3,0.1-4.3-1-4.3-4.3c0.2-9.2,0.3-18.3,0-27.5c-0.1-4.3,1.3-5.2,5.4-5.2c69.5,0.1,139,0.1,208.5,0.1
			c24.7,0,49.3-0.1,74,0.1c4.1,0,5.6-1,5.4-5.3c-0.3-8.8,0.1-17.7-0.2-26.5c-0.1-3.6,1.2-4.6,4.6-4.5c8.8,0.2,17.7-0.1,26.5,0.2
			c4.6,0.2,6-1.3,6-6c-0.2-32.7,0-65.3-0.2-98c0-5.2,1.5-6.5,6.4-6.2c9.3,0.6,18.6-1.7,27.9-0.6c3.1,0.4,2.7-1.7,2.8-3.5
			c0-7.3,0-14.7,0-22c0-26,0.1-52-0.1-78c0-4.4,0.9-5.8,5.7-6.1c8.7-0.4,17.5,1,26.3-0.5c3.6-0.6,4.3-1.7,4.3-4.9
			c-0.1-20.8,0.1-41.7-0.1-62.5c0-4.7,1.4-6.1,6-5.9c10.3,0.3,20.7,0.1,31,0.1c0,12.8,0,25.7,0,38.5c0,10.3,0,20.7,0,31
			c0,1.9-0.4,4.4,2.9,4c9.5-1.1,18.9,0.1,28.4,0.3c4.6,0.1,5.8,1.4,5.8,5.9c-0.2,33,0,66-0.2,99c0,4.2,1.1,5.5,5.3,5.3
			c8.3-0.3,16.7,0.2,25-0.2c5-0.2,6,1.5,6,6.2c-0.2,32.8,0,65.7-0.2,98.5c0,4.1,1.2,5.6,5.4,5.5c8.7-0.3,17.3,0.1,26-0.2
			c4.3-0.2,5.9,0.9,5.7,5.5c-0.4,8-0.1,16-0.1,24c0,6.7,0,6.7,6.7,6.7c65.8,0,131.7,0,197.5,0c28,0,56,0.1,84-0.1
			c4.3,0,5.9,1.1,5.8,5.6c-0.3,8.8-0.2,17.7,0,26.5c0.1,3.7-1.2,5-4.9,4.9c-9-0.2-18,0.1-27-0.1c-4-0.1-5.3,1.4-5.2,5.3
			c0.2,8.5-0.2,17,0.2,25.5c0.2,4.7-1.1,6.6-6.1,6.3c-8.8-0.4-17.7,0-26.5-0.2c-3.6-0.1-4.6,1.2-4.5,4.6c0.2,9-0.1,18,0.1,27
			c0.1,3.4-0.9,4.7-4.5,4.6c-9-0.2-18,0.1-27-0.2c-4.5-0.2-5.8,1.5-5.6,5.8c0.3,9,0,18,0.1,27c0.1,3.3-1,4.4-4.3,4.3
			c-8.8-0.2-17.7,0.1-26.5-0.1c-4.2-0.1-5.5,1.4-5.4,5.5c0.2,8.7-0.1,17.3,0.1,26c0.1,4.1-1.1,5.7-5.4,5.6c-9-0.3-18,0.1-27-0.2
			c-3.8-0.1-4.9,1.2-4.8,4.9c0.2,8.7-0.1,17.3,0.2,26c0.1,4-0.9,5.6-5.2,5.4c-8.7-0.3-17.3,0-26-0.1c-4.3-0.1-5.9,1.8-5.9,6
			c0.4,33.3-0.8,66.6,0.8,99.9c0.2,3.3,1.2,4.3,4.4,4.2c8.7-0.2,17.3,0.2,26-0.2c4.6-0.2,5.9,1.2,5.8,5.8c-0.2,33,0,66-0.2,99
			c0,4.1,1,5.5,5.3,5.4c9-0.3,18,0,27-0.1c3.3,0,4.8,0.9,4.8,4.5C1237.9,1286.7,1237.9,1334.2,1237.9,1381.7z"/>
		<path fill="#F7D476" d="M1237.9,1381.7c0-47.5,0-95,0.2-142.5c0-3.6-1.5-4.6-4.8-4.5c-9,0.1-18-0.2-27,0.1
			c-4.2,0.1-5.3-1.3-5.3-5.4c0.1-33,0-66,0.2-99c0-4.6-1.2-6-5.8-5.8c-8.7,0.4-17.3,0-26,0.2c-3.2,0.1-4.3-0.9-4.4-4.2
			c-1.6-33.3-0.4-66.6-0.8-99.9c-0.1-4.2,1.5-6.1,5.9-6c8.7,0.2,17.3-0.2,26,0.1c4.3,0.2,5.4-1.4,5.2-5.4c-0.3-8.7,0.1-17.3-0.2-26
			c-0.1-3.7,0.9-5,4.8-4.9c9,0.3,18-0.1,27,0.2c4.3,0.1,5.5-1.5,5.4-5.6c-0.2-8.7,0.1-17.3-0.1-26c-0.1-4.1,1.2-5.6,5.4-5.5
			c8.8,0.2,17.7-0.1,26.5,0.1c3.3,0.1,4.4-1,4.3-4.3c-0.2-9,0.1-18-0.1-27c-0.1-4.3,1.1-6,5.6-5.8c9,0.3,18-0.1,27,0.2
			c3.6,0.1,4.6-1.2,4.5-4.6c-0.2-9,0.1-18-0.1-27c-0.1-3.4,0.9-4.7,4.5-4.6c8.8,0.2,17.7-0.2,26.5,0.2c5,0.2,6.3-1.7,6.1-6.3
			c-0.3-8.5,0.1-17-0.2-25.5c-0.1-3.9,1.2-5.4,5.2-5.3c9,0.2,18-0.1,27,0.1c3.7,0.1,5-1.3,4.9-4.9c-0.2-8.8-0.3-17.7,0-26.5
			c0.2-4.5-1.5-5.7-5.8-5.6c-28,0.2-56,0.1-84,0.1c-65.8,0-131.7,0-197.5,0c-6.7,0-6.7,0-6.7-6.7c0-8-0.3-16,0.1-24
			c0.2-4.6-1.4-5.6-5.7-5.5c-8.7,0.3-17.3-0.1-26,0.2c-4.2,0.1-5.5-1.4-5.4-5.5c0.1-32.8,0-65.7,0.2-98.5c0-4.7-1-6.4-6-6.2
			c-8.3,0.4-16.7-0.1-25,0.2c-4.2,0.1-5.3-1.2-5.3-5.3c0.2-33,0-66,0.2-99c0-4.6-1.1-5.8-5.8-5.9c-9.5-0.2-18.9-1.4-28.4-0.3
			c-3.3,0.4-2.9-2.1-2.9-4c0-10.3,0-20.7,0-31c0-12.8,0-25.7,0-38.5c0-12,0.1-24,0.1-36c11-0.1,22,0,33-0.3c3.7-0.1,3.9,1.8,3.9,4.6
			c-0.1,20.8,0.1,41.7-0.2,62.5c-0.1,4.8,1.2,6.3,6.1,6.1c8.6-0.4,17.3,0,26-0.2c3.3-0.1,4.6,1.1,4.2,4.3c0,0.3,0,0.7,0,1
			c-0.2,33.1,1.5,66.3,0.7,99.4c-0.1,4.1,1,5.6,5.2,5.4c8.7-0.3,17.3,0.1,26-0.2c4-0.1,5.1,1.2,5.1,5.1c-0.1,32.8-0.1,65.7,0,98.5
			c0,6.5,0,6.5,6.7,6.5c8.7,0,17.3,0.1,26-0.1c3.3-0.1,4.3,1,4.2,4.3c-0.2,9,0.1,18-0.1,27c-0.1,4.3,1.2,5.9,5.6,5.8
			c12.2-0.3,24.3-0.1,36.5-0.1c81.3,0,162.6,0,243.9,0c7.1,0,7.1,0,7.1,6.9c0,8.3,0.1,16.7-0.1,25c-0.1,3.2,0.9,4.4,4.2,4.3
			c9.2-0.2,18.3,0.1,27.5-0.1c3.8-0.1,5.4,0.9,5.3,5c-0.2,9.3-0.2,18.7,0,28c0,3.1-1,4.1-4,4c-9.2-0.1-18.3,0.1-27.5-0.1
			c-4.1-0.1-5.7,1.1-5.5,5.4c0.3,8.8-0.1,17.7,0.2,26.5c0.2,4.3-1.4,5.4-5.4,5.2c-8.5-0.3-17,0.1-25.5-0.2c-4.1-0.1-5.6,0.9-5.4,5.2
			c0.3,8.8-0.1,17.7,0.1,26.5c0.1,3.5-1,4.4-4.5,4.6c-9.5,0.6-18.9,0.8-28.4,0.6c-3.5-0.1-4.1,1.5-4.1,4.5
			c0.1,9.2-0.1,18.3,0.1,27.5c0.1,3.3-1.1,4.3-4.3,4.2c-9.2-0.2-18.3,0.1-27.5-0.1c-3.9-0.1-5.3,1.2-5.2,5.1
			c0.2,8.8-0.2,17.7,0.2,26.5c0.2,4.6-1.4,5.6-5.7,5.5c-8.5-0.3-17,0.1-25.5-0.2c-3.8-0.1-5.3,0.8-5.2,5c0.3,8.7,0,17.3,0.1,26
			c0.1,3.8-1,5.4-5.1,5.3c-8.8,0-17.6,0.7-26.4,0.6c-4.4-0.1-5.6,1.2-5.6,5.6c0.2,43.7,0.1,87.3,0.1,131c0,13.7,0.2,27.3-0.1,41
			c-0.1,4.2,0.9,5.9,5.5,5.7c8.5-0.4,17,0.2,25.5-0.2c4.2-0.2,5.6,1.6,5.9,5.2c0.1,1.5,0.1,3,0.1,4.5c0,68,0,136,0.1,204
			c0,4.9-1.1,6.8-6.4,6.6c-10.1-0.4-20.3-0.2-30.5-0.3C1238,1406.2,1238,1394,1237.9,1381.7z"/>
		<path fill="#F3BC2E" d="M1458,1565.7c0,12,0,24,0,36c-10.9,0-21.9-0.1-32.8,0.1c-3.3,0-4.3-1-4.3-4.3c0.2-10.6,0.1-21.2,0.1-31.8
			C1433.3,1565.7,1445.7,1565.7,1458,1565.7z"/>
		<path fill="#F3BC2E" d="M394,1381.7c0,10.5-0.3,21,0.1,31.4c0.2,4.8-1.6,5.9-6,5.7c-8.5-0.3-17,0.1-25.4-0.2
			c-4-0.2-5.6,1.6-5.6,5.1c-0.1,8.3-0.3,16.6,0.1,24.9c0.3,6.4,0.1,7.1-6.3,7.1c-10,0-19.9,0-29.9,0c0-10.7,0.1-21.3-0.1-32
			c-0.1-3.8,0.9-5.3,5-5.1c8.5,0.3,17-0.2,25.5,0.2c4.8,0.2,5.9-1.5,5.7-6c-0.3-8-0.1-16-0.1-24c0-6.7,0.6-7.2,7-7.2
			C374,1381.6,384,1381.7,394,1381.7z"/>
	</g>
</g>
</svg>
