
    <svg id="danceOmatic_logo" data-name="Lag 1" xmlns="http://www.w3.org/2000/svg" viewBox="0 0 597.2 709.48">
      <defs>

 
      </defs>
      <title>danceOmatic_logo</title>
      <!-- rest of code -->
    <g>
      <g id="Explotion">
        <path id="RedBang" class="cls-1" d="M833,656l-23-6.93-.05,0c-1.09-.42-24.62-9.51-42.27-18.79-3.4-1.88-6.78-3.83-10.12-5.82a44.54,44.54,0,0,1-6.39-4.83,13.87,13.87,0,0,1-3.53-9.44,29.33,29.33,0,0,0-.55-4,54.35,54.35,0,0,1-.55-9.33,81.87,81.87,0,0,1,4.26-18c4.08-9.24,10.13-17.27,16.59-25l35.65-42s.59-.46-.21-.48l0-.09a5.57,5.57,0,0,0-1.67.32c-3.07.64-59.6,32.15-59.65,32.18-2.62,1.19-5.28,2.3-8,3.3a100,100,0,0,1-17.59,5c-25.3,4.07-58.91-4.11-48.88-81.77.09-.57.18-1.14.28-1.7.74-4.62,1.45-9.25,2.3-14.65a19.54,19.54,0,0,0-2.45,1.8c-6.47,7-13,14-19.35,21l-13.13,13.74a94.19,94.19,0,0,1-22,16c-.28.15-.57.28-.85.42-2.37,1-5,2-7.85,3.09l-2.43.91C560.32,526.16,547.16,428,547.16,428s-40.88,68.88-57.88,76.08c-15.87,6.72-22.86,9.46-30.22,11.1-.53.11-1.06.23-1.6.33-3.2.59-6.38,1.3-9.58,1.9a67.41,67.41,0,0,1-26.68-.52,41.34,41.34,0,0,1-6.21-2.39,28,28,0,0,1-9.5-7.23,37.28,37.28,0,0,1-2.55-3.78c-.14-.27-.3-.53-.44-.81-2.82-5.79-5.57-11.61-8.31-17.44l-4.08-8.7q-3.23-6.88-6.45-13.75a8,8,0,0,0-1.31-1.5,3.75,3.75,0,0,1-.24.36c-.38,0-.71.4-.82,1.55l0,.23c-.71,7-1.34,13.95-2,20.93-.36,4-.7,8-1,12.07-1,10.3-1.92,19.93-2.42,23.73A99.74,99.74,0,0,1,368,546.82a60.81,60.81,0,0,1-11.67,17.43c-12.45,12-33.12,21.3-67.69,18.81-11.4-.71-22.81-1.32-34.22-2-.8,0-1.62,0-2.43,0l-.52,1a9.92,9.92,0,0,1,1.28.49L267,590.66c5.58,3.18,11.19,6.29,16.71,9.55,3,1.75,6.12,3.41,8.64,5.7,5.19,4.7,8.85,10.62,12.07,16.78,2.48,19.2,8.74,21.6-.25,36.34a100.18,100.18,0,0,0-5.09,9.38,65.7,65.7,0,0,1-14.36,15.72l-.45.34c-.41.31-.82.62-1.24.92l-.07.06c-.58.41-1.16.81-1.76,1.21-9.07,6-18.61,11.29-27.94,16.91-1.38.82-2.74,1.68-4.41,2.7,3.76,1.1,7,2.14,10.28,3,4.13,1.06,8.31,1.94,12.46,2.93,2.16.52,4.31,1.12,6.46,1.68,2.58.67,5.14,1.42,7.74,2,3.11.69,6.28,1.14,9.37,1.89,0,0,8.35,2.15,14.81,4.27,2.08.72,4.14,1.49,6.14,2.36,2.62,1.35,4.08,2.08,5.05,2.67a15.2,15.2,0,0,1,1.83,1.49,18.69,18.69,0,0,1,2.35,3.1,12,12,0,0,1,.66,1.47c.16.54.32,1.09.46,1.65a13.76,13.76,0,0,1,.27,3.55c-.19,1.77-.79,4.91-1,5.81a78.53,78.53,0,0,1-2,7.88c-.76,2.2-1.51,4.22-2.11,5.79-.33.81-.65,1.63-1,2.43-1.49,3.09-26.46,50.83-27,52.41-.05.15.22.13.57,0a1.87,1.87,0,0,0,1.22-.41q5.07-4,10.1-8.09,4.26-3.45,8.49-6.92l32.13-26,4-3.07.54-.41,1.24-.94,2.2-1.64,1-.71.12-.08.31-.23c1.24-.87,6.93-4.77,10.47-7,.71-.43,1.42-.84,2.13-1.25,2.17-1.19,5.94-3.17,9.72-4.82,2.07-.87,4.19-1.66,6.36-2.35s3.72-1.06,5.2-1.44c.66-.16,1.33-.32,2-.46a29.33,29.33,0,0,1,3.6-.5,34.63,34.63,0,0,1,5.6.27,20.08,20.08,0,0,1,2.2.51,30.94,30.94,0,0,1,5.77,2.77l.46.31,0,0c.5.36,1,.75,1.47,1.16a47.36,47.36,0,0,1,4.65,5l.28.35.24.32a38.91,38.91,0,0,1,2.44,3.8,98.33,98.33,0,0,1,7,18.58,155.78,155.78,0,0,1,3.86,22c1.46,18.22,2.54,34.5,2.85,39.27,0,.47.05.94.09,1.41a4.54,4.54,0,0,0,.61,1.43c.48-.3,1.12-.48,1.41-.91s.55-.81.83-1.22l.12-.16.37-.56q2.55-3.76,5.05-7.55,5.89-8.87,11.78-17.73c2.53-3.49,4.1-5.72,5.33-7.39,1.61-2.07,3.29-4.07,5.07-6,1.09-1.12,2.1-2.16,3.05-3.1a66,66,0,0,1,7.29-6.1,12,12,0,0,1,4-2c2.54-.88,52.91-18.61,80.25,9.63l15.39,15.9c3.24,3.77,6.46,7.56,9.73,11.31.49.56,1.46.69,2.22,1a8.24,8.24,0,0,0,.72-1.89c.34-2.68.5-5.39.87-8.06,1.23-9,2.62-18,3.78-27a80.05,80.05,0,0,1,5.38-21.32c2.84-6.71,5.7-13.31,13.28-16.41,3.93-1.62,7.79-3.24,12.08-3a73.25,73.25,0,0,1,22.38,4.79c1.23.49,2.48.91,3.74,1.32,18.89,8.21,34.86,15.56,44.23,19.95l2.76,1.36c1.86.9,3.74,1.74,6.2,2.88a26.43,26.43,0,0,0-.64-3.43c-1.43-4-2.92-8-4.37-12.08l-7.19-22.22s-9.29-59,74.25-71.45c4.16-.58,8.33-1.06,12.47-1.76,1.24-.21,2.47-.43,3.71-.66l67.35-10.07c.23,0,.43-.35.67-.57Z" transform="translate(-248.89 -306.48)"/>
        <path id="OrangeBang" class="cls-2" d="M344.38,735.42a9.94,9.94,0,0,0-1.5-10.2c-4-5-9.74-11.9-24.3-15.41S286.47,702,286.47,702s15.64-9.56,22.41-18.2,11.18-15.62,13-19.5,9.29-32.47-2.32-47.64l-11.61-15.17s14.38-.51,24.15-3.48,23.4-7.79,30.71-14.62S377.94,568.75,382,558.8s6.17-16.34,7-20.21,3.33-20.08,3.33-20.08.11-.75.66.25a28.59,28.59,0,0,0,6.08,8.4c3.58,3.19,9.31,8.74,22.56,11s28.6-.67,28.6-.67a131.32,131.32,0,0,0,18-4.54c8-2.82,49.83-25.3,59.14-40.09l9.3-14.8a179.63,179.63,0,0,0,10.84,30.83c7.78,17.26,10.88,29,30.11,30.54s39.39-2.59,60.65-20.88c0,0,.24,23.67,11.59,34.57s14.41,14.57,23.29,16.4,25.14,4.57,41.6-2,26.68-11.09,26.68-11.09-7.33,9.62-9.76,15.07-6,15.18-6.32,21.54,0,9,.4,17.45,4.59,26.48,25.38,38.23l20.79,11.76-13.57,3.28s-111.06,23-93.58,90.25c0,0-48.65-23.4-63.74-14.1s-27.09,26.11-29.5,40.84L569.1,795.5,564.4,791s-31.66-30.39-78.86-20.38h0s-11.4,3.55-17.7,8.1S453.13,791,451,793.58s-8.57,10.85-8.57,10.85-2.47-36.95-10.79-49.19-9.69-15.75-16.54-18.2-14.16-4.77-23-2.22-19.86,5-36.23,17.13-21,15.36-21,15.36A68,68,0,0,0,340,755.09c2.87-8.37,4.36-19.67,4.36-19.67" transform="translate(-248.89 -306.48)"/>
        <path id="GulBang" class="cls-3" d="M334,611.43s.36.93.93,2.55c3.47,9.77,14.87,45,3.54,56.9-13.21,13.88-19.3,18.76-26.13,22.6l-6.84,3.85s-.48,1.39,5.17.92l33.5-2.36a25.44,25.44,0,0,1,14.67,1.46c8.08,3.21,1.56,29.63,1.56,29.63L352,743.71s.21,2,3.19-.53,14.11-12,21.57-16.36,19.11-10.11,24.51-10.58a52.2,52.2,0,0,1,18.95,1.52c6.83,2,16.73,13.1,21.41,27.72a153.9,153.9,0,0,1,6,28.83l1.5,17.05a78.54,78.54,0,0,1,8.4-10.76c5.71-6.32,7.76-8.59,10.58-11.35s14-18.15,33.87-20.68,55.25,20,55.25,20,7-44.56,44.92-44.93c0,0,10.6-3.63,30.38,5.41l19.78,9L648,718.44c-1.24-4.41-4.61-15.17.84-25.9,13.81-27.21,65.43-32.06,66.81-32.29l15.47-2.42C701.69,623.05,694.74,604,722.93,573c-6.64,8-78.63,41.86-93.26-21h0S522.6,594.88,529.18,518.3c0,0-25.81,24-56.13,35.67-33,12.58-68.83,18-75.94-13.32,0,0,7.86,71.23-66.41,63.5,0,0-3.93.24-1.39,3.07A26.24,26.24,0,0,0,334,611.43Z" transform="translate(-248.89 -306.48)"/>
      </g>
      <g id="Lyn">
        <polygon id="OrangeShadownLyn" class="cls-4" points="444.7 16.96 311.63 27.36 242.39 246.9 238.8 261.07 318.17 256.77 212.47 459.89 260.36 459.89 152.95 709.48 357.43 424.03 294.68 423.84 412.55 225.32 341.9 225.18 444.7 16.96"/>
        <path id="GultLyn" class="cls-5" d="M681.22,309.33c-.92,0-1.45,0-2,0l-33.71,2.83q-48.64,4.08-97.3,8.1c-2.07.17-2.78.93-3.28,2.8q-28.5,105-57.1,210.06c-1.21,4.45-2.4,8.91-3.65,13.56,1,.1,1.65.21,2.34.23,8.63.33,17.26.66,25.89.94l33.38,1.29a7.84,7.84,0,0,0,2-.43L481.53,696.27,467.27,727q-3.74,8-7.45,16c-.32.68-2,4.47-2.53,5.61l45-3.09Q453.92,861,405.92,975.63c.25.14,3,4.06,3.29,4.2,61.7-86.56,125.3-177.33,187.2-264.17-1,0-6,.4-6.57.43q-25.65,1.27-51.28,2.58c-2.21.12-3.4.19-4.2.66L606.05,587q20.07-34.1,40.28-68.11c.34-.59.64-1.21,1.12-2.13l-70.59,1.7C611.73,448.62,646.41,379.1,681.22,309.33Z" transform="translate(-248.89 -306.48)"/>
        <path id="Lynkurve" class="cls-6" d="M548.28,547.7l-64.08-1,60.74-223.62a3.34,3.34,0,0,1,3.29-2.8l133-10.94L576.86,518.5l70.59-1.69L535.25,717.49l63.94-3.33-198.08,277,99.2-244-43,1.49Z" transform="translate(-248.89 -306.48)"/>
      </g>
      <g id="Pil_Bogstaver" data-name="Pil&amp;Bogstaver">
        <g id="Pil">
          <path id="PilCurve" class="cls-14" d="M768.74,661c-8-19.72-19.3-37.53-32.26-54.27-5.86-7.57-12.44-14.58-18.8-21.76a33.29,33.29,0,0,0-4.46-3.58c2.1,12.22,2.22,24.11,1.67,36.27-1-.29-1.6-.44-2.19-.64-12.55-4.31-25-8.89-37.66-12.89-28.57-9-57.12-18.24-87.17-21.22-1.66-.17-2.08-1-1.36-2.45a21.34,21.34,0,0,1,1.14-1.82l7.21-6.79,3.31-3c-6-4.15-12.1-2.42-18.68-.88.94-1.23,1.48-2,2-2.68l4.52-5.42a43.12,43.12,0,0,0,3-4.55c1-2.07.47-2.89-1.82-2.71a35.78,35.78,0,0,0-16.91,5.31h-2.26c.12-1.72.25-3.44.37-5.17.18-2.77.56-5.55.49-8.31-.09-3.19-1.76-4-4.06-1.81-3,2.91-5.47,6.35-8.16,9.56l-1.76,2.26-1.43-2.18c-2.11-4.24-4.22-8.49-6.5-13.06-3.88,3.85-5.26,8.38-6.31,13.06l-.12.77-.24.62c-.31,1.62-.61,3.24-.92,4.86-1.28,2.4-1.41-.49-2.18-.48l-8.46-12.43-.59.22q-.24,6.34-.47,12.69c0,1.6-.07,3.2-.11,4.8-.15.92-.3,1.83-.5,3l-12.66-7.1-.55-.12.15.55,2.67,9.91.12,2-15.72-.9,2.46,7.08c-1.79,3.16-5,3.17-8,3.41-17.52,1.42-35.11,2.29-52.56,4.3a446.47,446.47,0,0,0-103.34,24.43c-20.84,7.67-41,16.81-59.63,29-.76.5-1.49,1.06-2.17,1.54.13.35.15.47.2.49l4.61,1.26c21.31,5.71,42.66,11.28,63.33,19.08,4,1.52,7.84,3.57,11.7,5.49a3.76,3.76,0,0,1,2.18,3.91q-1.57,27.3-3,54.6c-.06,1.05,0,2.1,0,3.27,5.78-3,31.94-16.08,37.2-18.4,27.07-11.92,54.88-21.46,84.33-25.52,3.68-.5,7.38-.8,11.07-1.2l.55.66c-1.22,2.33-2.43,4.66-3.65,7a17,17,0,0,0,2.27-.3c4.15-1.1,8.27-2.28,12.43-3.34a6.24,6.24,0,0,1,2.17.3l-6.95,10.42-.22.53.59-.08,11.15-4.63c1-.41,1.75-.66,1.46.9l-1.74,6.78c-.83,3.32-1.66,6.63-2.59,10.37l16.95-8.47c.53,1.5.94,2.68,1.35,3.86.78,3.44,1.56,6.89,2.47,10.93l6.63-10.91,2.61-3.59,2,4.59c1.62,4.26,3.24,8.52,5.1,13.45l4.39-12.85,2.74-7.38c.34-.92.67-1.84,1-2.74l3,.88c.21.5.3,1.14.66,1.47,1.43,1.26,2.94,2.44,4.43,3.64l7.81,6.31c-.74-5.25-1.37-9.81-2-14.37.5-.38,1-1,1.5-1.09,1.41-.22,2.86-.21,4.29-.29l15.11-.88-5.91-6.91c-1.19-1.79-2.47-3.53-3.53-5.4a8.51,8.51,0,0,1-.5-2.68,9.29,9.29,0,0,1,2.46-.37c8.78,1.14,17.64,1.91,26.33,3.6,26.71,5.18,53.35,10.7,80,16.12,3.31.67,6.58,1.56,10.12,2.41-.6,1-1,1.74-1.37,2.41l-14.37,23.77-.28.3.55,0a1.8,1.8,0,0,0,.46-.1Q726.35,705,773.63,682.4a1.73,1.73,0,0,0,1.06-2.45C772.73,673.62,771.21,667.12,768.74,661Z" transform="translate(-248.89 -306.48)"/>
          <path id="OrangePil" class="cls-7" d="M768.74,661c-8-19.72-19.3-37.53-32.26-54.27-5.86-7.57-12.44-14.58-18.8-21.76a33.29,33.29,0,0,0-4.46-3.58c2.1,12.22,2.22,24.11,1.67,36.27-1-.29-1.6-.44-2.19-.64-12.55-4.31-25-8.89-37.66-12.89-28.57-9-57.12-18.24-87.17-21.22-1.66-.17-2.08-1-1.36-2.45a21.34,21.34,0,0,1,1.14-1.82l7.21-6.79,3.31-3c-6-4.15-12.1-2.42-18.68-.88.94-1.23,1.48-2,2-2.68l4.52-5.42a43.12,43.12,0,0,0,3-4.55c1-2.07.47-2.89-1.82-2.71a35.78,35.78,0,0,0-16.91,5.31h-2.26c.12-1.72.25-3.44.37-5.17.18-2.77.56-5.55.49-8.31-.09-3.19-1.76-4-4.06-1.81-3,2.91-5.47,6.35-8.16,9.56l-1.76,2.26-1.43-2.18c-2.11-4.24-4.22-8.49-6.5-13.06-3.88,3.85-5.26,8.38-6.31,13.06l-.12.77-.24.62c-.31,1.62-.61,3.24-.92,4.86-1.28,2.4-1.41-.49-2.18-.48l-8.46-12.43-.59.22q-.24,6.34-.47,12.69c0,1.6-.07,3.2-.11,4.8-.15.92-.3,1.83-.5,3l-12.66-7.1-.55-.12.15.55,2.67,9.91.12,2-15.72-.9,2.46,7.08c-1.79,3.16-5,3.17-8,3.41-17.52,1.42-35.11,2.29-52.56,4.3a446.47,446.47,0,0,0-103.34,24.43c-20.84,7.67-41,16.81-59.63,29-.76.5-1.49,1.06-2.17,1.54.13.35.15.47.2.49l4.61,1.26c21.31,5.71,42.66,11.28,63.33,19.08,4,1.52,7.84,3.57,11.7,5.49a3.76,3.76,0,0,1,2.18,3.91q-1.57,27.3-3,54.6c-.06,1.05,0,2.1,0,3.27l16.69-8.66,2.4-1.45.49-.5,0,0a13.27,13.27,0,0,0,2-.57c5.22-2.41,10.39-5,15.65-7.27,27.07-11.92,54.88-21.46,84.33-25.52,3.68-.5,7.38-.8,11.07-1.2l.55.66c-1.22,2.33-2.43,4.66-3.65,7a17,17,0,0,0,2.27-.3c4.15-1.1,8.27-2.28,12.43-3.34a6.24,6.24,0,0,1,2.17.3l-6.95,10.42-.22.53.59-.08,11.15-4.63c1-.41,1.75-.66,1.46.9l-1.74,6.78c-.83,3.32-1.66,6.63-2.59,10.37l16.95-8.47c.53,1.5.94,2.68,1.35,3.86.78,3.44,1.56,6.89,2.47,10.93l6.63-10.91,2.61-3.59,2,4.59c1.62,4.26,3.24,8.52,5.1,13.45l4.39-12.85,2.74-7.38c.34-.92.67-1.84,1-2.74l3,.88c.21.5.3,1.14.66,1.47,1.43,1.26,2.94,2.44,4.43,3.64l7.81,6.31c-.74-5.25-1.37-9.81-2-14.37.5-.38,1-1,1.5-1.09,1.41-.22,2.86-.21,4.29-.29l15.11-.88-5.91-6.91c-1.19-1.79-2.47-3.53-3.53-5.4a8.51,8.51,0,0,1-.5-2.68,9.29,9.29,0,0,1,2.46-.37c8.78,1.14,17.64,1.91,26.33,3.6,26.71,5.18,53.35,10.7,80,16.12,3.31.67,6.58,1.56,10.12,2.41-.6,1-1,1.74-1.37,2.41l-14.37,23.77-.28.3.55,0a1.8,1.8,0,0,0,.46-.1Q726.35,705,773.63,682.4a1.73,1.73,0,0,0,1.06-2.45C772.73,673.62,771.21,667.12,768.74,661Z" transform="translate(-248.89 -306.48)"/>
        </g>
        <g id="Font_pink">
          <g id="shadeEffect">
            <path id="O_inside_Shade" class="cls-17" d="M563.2,620.77c-.64-3.92-1.53-8.15-2.38-12A25.13,25.13,0,0,0,554,597.16c-2.64-2.62-3.63-2.63-6,.3-6.66,8.29-10.7,17.93-13.91,27.94a71.15,71.15,0,0,0-3.6,23.58c.19,7.7,5.41,17.84,12.05,22.54-1.87-1-7.06-2.73-8.61-4.06-5-4.29-7.26-12.4-7.51-18.79-.8-19.69,5.69-37.23,16.3-53.48.48-.73,1.17-1.32,1.67-2,3.13-4.46,6.32-4.35,10.25.25a35,35,0,0,1,7.78,18.77A82,82,0,0,1,563.2,620.77Z" transform="translate(-248.89 -306.48)"/>
            <path class="cls-15" d="M574.36,570.42l4.95,6.66c6,10.76,8.65,22.41,9.1,34.64a9,9,0,0,0,.43,1.81,9.22,9.22,0,0,1,0,2.41q-3.24,11.61-6.61,23.19c-.84,2.87-1.91,5.68-2.88,8.52h0c.36-2.43.62-4.88,1.1-7.28a131.13,131.13,0,0,0,2.85-32.84,74.34,74.34,0,0,0-5.64-25.93c-1.22-2.82-3.33-5.25-5-7.86l-1.45-1.92c-.14-.33-.29-.65-.44-1-1.28-2.13-2.62-4.21-5.31-4.77a10,10,0,0,0-1.58-1.82c-1.67-1.19-3.42-2.25-5.15-3.36l9.15,3.72Z" transform="translate(-248.89 -306.48)"/>
            <path class="cls-16" d="M453.65,604.42c4.2-.35,8.68,1.78,10.68,5.05a70.48,70.48,0,0,0,4.24,6.77c-.24-2.36-.47-4.72-.73-7.08a42.58,42.58,0,0,1-.66-5.91c0-1.31.83-2.59,1.28-3.89,1.2,9.91,2.28,21,3.5,31.08-.86-.36-1.27-1.78-1.81-2l.09-.11-.9-1.51,0,0a59.93,59.93,0,0,0-3.21-5.54c-1.45-2.6-2.89-5.91-4.5-8.41l0,0-2-3.36h0l-.63-1.38h0l-.87-1.08-.85-.82C456.77,605.6,454.28,605.12,453.65,604.42Z" transform="translate(-248.89 -306.48)"/>
            <path class="cls-16" d="M489.5,597c2,.09,3.34.54,3.83,2.49s-.41,3.53-2,4.76c-1.92,1.48-3.77,3.05-5.65,4.58l0,0-1.71,1,.06,1.14-.14,0-1.06.81,0,0c-.3.2-.59.41-.88.62v0c-.65.09-.68,1.27-1.61,1.4-.29-2.77-1.2-6.62-1.49-9.4v0l2.27-1.6,0,0,1.92-1.37v0l1.08-.83,0,0,3.37-2.44h0C488.82,598.4,489.58,598.47,489.5,597Z" transform="translate(-248.89 -306.48)"/>
            <path class="cls-15" d="M438,646.58c.16.32.79,1.76,1,2.08-.48.61-1.34.47-2,.66a53.19,53.19,0,0,1-5.69,1.08c1-3.57,2-6.87,3-10.42C435.65,642.36,436.83,644.47,438,646.58Z" transform="translate(-248.89 -306.48)"/>
            <path class="cls-18" d="M646.09,643.41c2.59-.58,3-.21,2.4,2.28-.66,2.91-1.3,5.82-1.94,8.73-4.86,0-5-.17-3.27-4.76C644.1,647.53,645.15,645.49,646.09,643.41Z" transform="translate(-248.89 -306.48)"/>
            <path id="Shadow6" class="cls-15" d="M378.31,695c-.45-7.43-1.07-14.85-1.32-22.28-.24-7-3.51-12.33-8.22-17-5.35-5.25-10.83-10.36-16.22-15.58-1-1-1.8-.86-3-.4-2.74,1-4.44,2.74-4.89,5.73a17.57,17.57,0,0,1-1.05,3.52c-1.22,3.16-5,4-7,1.26a125.43,125.43,0,0,1-7.85-12c-.56-.95.73-3.5.89-4.87.75.76.68.79,1.42,1.58,1,1.12,1.55,2.41,2.58,3.54l-.06.11.93,1.48-.08.17.09-.17.87,1.59,0,0,1,1.53,0-.05,1.41,3a9,9,0,0,0,1.92-4.08c.52-4.39,3.07-6.77,7-8.29,1.85-.71,3.44-1.59,5.32-.39l-.05,0,.54.54,0-.06,1.13.84-.18.11.19-.1.86.66,0,0L357,637.6l0,.06,1.86,1.61,0,0,.54.53,0,0a9.71,9.71,0,0,0,1.17,2q4.47,4.62,9.06,9.14a9.62,9.62,0,0,0,2,1.19l0,0,1.11,1.39h0l1.33,1.59,0,0,2.49,4,0-.05.53,1,0-.05.91,3a1,1,0,0,1,0,.39c0,.82,0,1.64,0,2.45.61,9,1.28,18,1.8,27C379.68,693.51,378.78,694.26,378.31,695Z" transform="translate(-248.89 -306.48)"/>
            <path id="Shadow7" class="cls-15" d="M391.42,634.72l.47.48c.17.31.33.63.49.95a28.36,28.36,0,0,1,3.83,17.16c-.23,2.92-.63,5.83-.95,8.74l-3.06,9.4-.56.11c-5.61-13.24-11-27.57-16.73-41.07a16.41,16.41,0,0,1,13.31,1.79c.75.43,1.94,1.59,2.72,2Zm-10.3,2.48,12.06,28.53c1.53-6.62,2.24-12.6,1-18.64C392.75,640.36,388.11,636.76,381.12,637.2Z" transform="translate(-248.89 -306.48)"/>
            <path id="Shadow5" class="cls-15" d="M601.63,595.72c4.93.25,8.17,3.3,8.16,8.17,0,4,2.19,8.86,4.36,12,0,.62-1.09,1.29-1.09,1.29-1.34,1-4.76-4.54-5-5a20.42,20.42,0,0,1-3.14-11.06c0-1-1-2-1.53-3.06l0,0-.49-.47-.17.1Z" transform="translate(-248.89 -306.48)"/>
            <path id="Shadow4" class="cls-16" d="M736.66,639.05a19,19,0,0,1,5.26,1.7c3.06,1.68,3.66,2.49,6.5,4.55a4.27,4.27,0,0,1,1.56,5.3c-1.25,3.62-2.38,7.28-3.6,10.91-.76,2.23-2.59,3.51-4.51,3.12a4.18,4.18,0,0,1-3.57-4.19c0-.24,0-.48,0-.72-.37-6.43-3.18-8.4-9.38-6.26a31.09,31.09,0,0,0-13.81,10,10.09,10.09,0,0,0-2.08,8.6c.29,1.36,1.65,2.58,2.72,3.67a10,10,0,0,0,2.49,1.37c-.54.09-1.19.42-1.62.24-2.22-.94-4.38-2-6.57-3l-.48-.48-1-.93c-.2-2-.83-4.1-.51-6a67.06,67.06,0,0,1,2.46-8.37l1.42-1.94.47-.48.48-.48,2-1.41.47-.49,1-1,.47-.48,3.87-2.38.44-.51,2.89-1.44c1.17-.19,2.35-.35,3.51-.58,3.27-.63,6.48-.85,9.44,1.1l.48.48.49.48A14.92,14.92,0,0,1,741,661c.43-.27.17,1.85.22,1.69,1.71-5,2.39-11.35,4-16.33.06-.18-.48-.56-.74-.85l-.46-.48-1.92-1.44-4.32-2.88C736.55,639.84,737.94,639.94,736.66,639.05Z" transform="translate(-248.89 -306.48)"/>
            <path id="Shadow2" class="cls-15" d="M373.12,718.46c-3.25-1.34-4.15-4.25-4.62-7.5-.23-1.57-.94-3.12-.93-4.68,0-1.21,2.22-4,2.68-4.79.73,3.2,1.66,5.8,2.51,9.52h0l.48-.48.48-.48.48-.48.48-.48.48-.48.48-.48.48-.48.48-.48.48-.48c1-1,2-2,2.91-3l4.41-3.91,3.21-2.29,3.36-2.4,3.36-2.4,3.36-2.4,5.79-3.81.93-1a7.09,7.09,0,0,0,2.21-1.06c1.91-2,3.68-4.06,5.5-6.11a14.21,14.21,0,0,0,.95-2.11c.74-2.75,1.43-5.52,2.09-8.3q4.35-18.26,8.66-36.52c.69-2.89-.66-5.09-3-6.92L419,622.74c-5.06-5.22-11.22-8.38-17.79-11.38-2.36-1.08-3.92-2-6.24-3.2a25.22,25.22,0,0,1,4.48.41c8.88,3.48,15.95,6.77,23.08,13.21a77.15,77.15,0,0,1,5.4,6,26.69,26.69,0,0,0-1.84,4.1q-4.35,16.57-8.53,33.21c-.85,3.37-1.51,6.8-2.05,10.24-.09.6,1,2,1.33,1.95,2.93-.45,5.81-1.16,8.7-1.79l2.37-2c.8-1.17.73-2.85,1.09-4.15,1-3.65,1.52-7.11,2.39-10.8.14-.6,1.92-1,2.43-1.26,1.5-.65,3.11-1.06,4.49-1.51,1.43,2,2.73,3.88,4,5.72l.92,2,1.92,2.88a2.86,2.86,0,0,0,3.4,2.27,39.13,39.13,0,0,0,4.66-.91c2.22-.51,1.38-3.22.68-5.44-2.13-6.74-3.93-12.78-6.43-19.37-2.38-6.29-5.3-10.66-8-16.82a18.4,18.4,0,0,0,2.55.12,1.31,1.31,0,0,0,1-1.72c-.91-2.75-2.2-6.39-2.82-8.68s1-5.5,2.71-7.35c.38,2-.51,4.72.13,6.66,3.69,11.11,12.21,36.22,12.33,36.69.36,4.81,5.74,9.39,2.25,14.77-.6.92,0,2.28,1.38,1.43s3.25-.44,4.91-.94c2.48-.76,4.91-1.13,7.36-2l.38-2c-1-.94-2.54.09-3-1.07-1.54-4.14-3.43-10.38-4.64-14.63-.09-.31-.94-2.13-.72-2.52.52-.11,2.44,1.47,3,1.36l2,1.47h0l2.77,2.33,1.53,1,1.41,1.47,2.91,1.89.94,1c.33.15,1.28,1,1.61,1.18-.16.94-.92,1.15-1.12,2.08-.61,2.76,0,3,2.82,2.86a27.77,27.77,0,0,0,12.06-3.68,1.57,1.57,0,0,0,0-1.49c-.51-.49-1.56-.38-2.09-.85a7.94,7.94,0,0,1-1.66-1.8c-.71-1.88-.89-2.85-1.67-5.29,6.63,2.78,13.16,1.73,19.34-1.16,0,1.44,0,2.47,0,3.5a66.86,66.86,0,0,0,2.49,20.06c.85,2.82,2.49,5.39,3.78,8.08.32.64.64,1.28,1,1.92l.47.48.48.95,1,1,3.06,3.64.26.23,1.47.93.93,1c9.17,7.44,21.72,8.53,31.61,2.37.28-.17.38-.63.57-1l4.31-3.37.48-.47.48-.48c.31-.31.61-.62.92-.92l0,0,2.4-2.88,1.44-1.91,1-.94,1-1.44a10.37,10.37,0,0,0,1-1.25c4.68-7.71,7.6-16.12,10-24.76.39-1.44.93-2.84,1.41-4.25h0c0,5,1.61,7,5.8,7.15l0,0,2,.53a.77.77,0,0,1,.39.07l2.45.4,0,0,2.44.52,0,0,2,.51h.19l.18,0,2,.45,0,0,2,.51h.19l.18,0,1.54.45h.19l.19,0,1.55.45H602l.18,0c.5.15-4.09-5.86-4.4-6.15-2.21-2-.53-4.89,1.38-6.86.79-.82,2.71-2.41,3.24-3.48h.06c.2-.3.4-.59.61-.88h0l2.61-.46,0,0,1,1.49,0,0c.3,3.31,1.46,5.21,3.44,5.63l0,0c2,1.89,3.75.38,5.49-.4a29.67,29.67,0,0,0,3.52-2.17c-.16,3.61-.31,6.83-.45,10a.73.73,0,0,1-.08.38L616.08,662c.38-2.49.75-5,1.13-7.53-7.79.15-8,.06-11.26-5.12-2.22,2.2-1.62,1.6,1.09,5.55a44,44,0,0,0,3,3.74c1.52,1.78,2,3.69.66,5.64-1.21,1.78-3,1.84-4.92,1.38-6.21-1.45-12.46-2.78-18.68-4.23-2-.47-3.94-1.19-6.14-1.87a92.3,92.3,0,0,1-12.15,26.29l-12.25,11-3.08,1.67-3.17.24c-.33.9-.54.7-.88,1.62a31.27,31.27,0,0,1-19.23-1.21,87.93,87.93,0,0,1-12.58-8.54l-4-4.24c-6.06-9.65-7.58-20.49-8-31.68-1.53.24-2.78.52-4,.61s-2.63,0-4.17,0c3,5.16,2.48,6.94-2.56,9.6a3.42,3.42,0,0,1-.42.23c-5.51,1.82-10.95,4.68-17,1.28-.27,2.36-1.34,4.18-3.63,4.94-2.73.89-5.49,1.76-8.29,2.38-2.14.48-4.64,1.31-6.49.64a11.56,11.56,0,0,0-6.88-.12c-3.2.7-5.9-.11-7.76-2.92-1.67-2.53-3.21-5.15-4.85-7.7a6.65,6.65,0,0,0-1.3-1.17,5.16,5.16,0,0,0-1,1.49c-.59,2.48-1.17,5-1.57,7.5-1.62,10.06-8.86,11.39-17.23,11.91-1.33.08-2.23.16-3,1.12-4,4.86-9.13,8.44-14.26,12-8.73,6.07-17.55,12-24.56,20.2l0,0L375.38,718Zm98.68-61.7c.33,3.19,1.34,5.64,4.49,6.58C477.22,660.35,478.2,661.1,471.8,656.76Z" transform="translate(-248.89 -306.48)"/>
            <path id="Shadow1" class="cls-16" d="M692.12,645.56c.92.1,3.53-.29,4.56-.18V637.6c-3.86-1.22-8-2.56-12.1-3.84-1.81-.55-3-.11-3.47,2-2.74,11.57-5.63,23.11-8.37,34.68a4.52,4.52,0,0,0,.56,3c1.31,2.26,1.23,4.16-.64,6.88s-3.64,3.52-6.24,2.87c-3.64-.91-7.25-1.91-10.9-2.8a2.58,2.58,0,0,0-1.91.19c-5.57,4.06-9.38,3.24-12.31-2.72-3.35,3.6-6.34,4.29-10.71,2.46-3.08-1.28-4.41-3.77-4.09-8l-10,7.15c-.72.51-1.46,1-2.16,1.53-3.17,2.46-4.44-2.74-4.16-6.38,1.38-1.15,0,.73,1.41-.42l0,0,3.39-2.41,0,0,3.37-2.44v0l.88-.62v0l1.06-.84,0,0,2.44-1.92,0,0a34.93,34.93,0,0,0,5.16-4.92l0,0,2.8-3.79.08-.06a22.89,22.89,0,0,0,2.25-2.48c3.54-5.23,5-11.3,6.73-17.24,2.43-8.22,4-16.54,1.73-25.06a30,30,0,0,0-2.55-5.23l.08-.11-.1.09-.82-1h.06l-.52-.53,0,0-.54-.51,0,.06a17.35,17.35,0,0,0-1.65-1.67c-.81-.63-2.66-.43-3.53-1,5.44.64,10.68,2.22,13,7.46.17.38,3.12.76,3.44,1.08a29.32,29.32,0,0,0,.16,4c.64.64.87,1.31,1.51,2,.65.31.34.52,1,.83A98.84,98.84,0,0,0,663.58,623c.16.16,1.28.44,1.44.6,2.24,3.1,2,7.58,1.15,11.32a24.59,24.59,0,0,1-1.19,4c.13-2-1-5.61-.9-7.67a3.05,3.05,0,0,0-2.59-3.27c-4.82-1-9.58-2.17-13.37-5.12-.77,4.57-1.53,9-2.29,13.48,0,.35,0,.71,0,1.07-.16.16-5.58,11.68-5.74,12l-.48,1-.49.94c-.32.32-8.27,15.41-9.07,16.85l-.51.94c-.17.15.81,1.1.15.78,0,1.76-1,2.18.25,2.86,2.62,1.43,5.67,1.76,6.42,1.1a52.31,52.31,0,0,0,2.75-5.25,5.29,5.29,0,0,0,1-1.24,4,4,0,0,1,4.75-2c0,.68-.19,2.09-.15,2.79-.16,1.87-.36,3.54-.34,5.4,0,1,.18,2.14.53,2.15a13.45,13.45,0,0,0,3.75.08,12.15,12.15,0,0,0,1.41-2.69c.88-3.76,1.39-7.63,2.47-11.34,2-6.85,4.3-13.61,6.38-20.43.53-1.74.27-3.44-1.62-4.41a13.39,13.39,0,0,0-1.76-1.77,22.13,22.13,0,0,0-2.64-1.4,12.93,12.93,0,0,1,8.78,3.45c.52.47,3.17,2,3,2.63-1.78,6.19-3.48,12.47-5.39,18.63-2.08,7.08-2.42,7.75-6.3,10.15-.15.16,1.14-1.25,1-1.09a3.35,3.35,0,0,0,1,5.22c4.15,2.6,8,2.63,12.64,3.23,1.92.25,1.84-2.08.89-3.81a6.77,6.77,0,0,1-.8-4.38c2.7-11.69,5.57-23.35,8.42-35,1.12-4.59,2.75-5.69,7.33-4.91a25.33,25.33,0,0,1,2.93,1c2.5.76,5,1.86,7.53,2.08,1.5.13,3.78.53,4.72-1.71l1-.45,3.27-5.88c-2.69-.7-4.83-1.24-7-1.82-13.34-3.6-26.69-7.19-40-10.87a20.09,20.09,0,0,1-3.84-2c4.2,1.22,8.38,2.53,12.61,3.66q19,5.05,38,10c4.46,1.17,5.45,3,3.75,7.33-.35.87-.67,1.77-1,2.67,6.79,1.37,9.29,4.88,8.53,11.8a4.25,4.25,0,0,0,.1.92c-.11,0,.2,1,.21,1.21-.17.15-6.41,7.61-6.56,7.93l-1.73,0h-2.68c-2.6,3.58-5.16,7-7.61,10.53-2.68,3.84-1.77,8.64,3,11.58.54-2.5,1.74-7.2,2.3-9.81a12.47,12.47,0,0,1,.14,2.78c-.51,3.78-.25,7.25,2.5,10,1.13,1,1.75,1.55,2.88,2.5.63.48,1.65,1.18,2.28,1.66,3.19,2.72,6,3.59,10.18,3.84,8.37.51,15.82-1.8,23.16-5.38.49-.24.8-.86,1.19-1.31l3.36-2.4,1-.45.48-.48c3-2.53,3.2-7.63,3.32-11,3.11-.12,4.38,3,4.38,6.07,0,5-1.55,9.12-5.83,12.19a48.55,48.55,0,0,1-25.54,9.31c-11.15.68-19.81-4.27-25.68-13.84-2.73,4.12-6.65,5.19-11.45,3a49,49,0,0,0-4.75-2.26c-6.3-2.07-7-11.89-4-18.38a13.38,13.38,0,0,1-.06,2.76c-.37,3-.25,5.37,1.66,6.32a10.11,10.11,0,0,0,1.57,1.39,30.52,30.52,0,0,0,6,3,10.92,10.92,0,0,0,4.61.44c.47,0,1.31.36,1.22.13a5.5,5.5,0,0,0-1.33-1.55l-.85-.85-.52-.6,0,.05-.52-.53,0,0c0-.31.1-.69,0-.93-2.38-4-1.83-7.82.66-11.55a4.3,4.3,0,0,0,.31-1.57h0l.82-1.06h0l1.57-2.3h0l2.33-3h0l.47-.5v0c2-1.22,2.15-2.48.58-3.59l.06,0-.54-.51,0,.06C695.65,646.73,693,646.39,692.12,645.56Zm11.92-11c-3.45,0-5.79,1-5.36,4.4a20.16,20.16,0,0,0,2.21,6.48c1,1.9,2.6,2.12,3.84.48a18.8,18.8,0,0,0,3.45-6.4C709.06,636.14,706.91,634.54,704,634.54Z" transform="translate(-248.89 -306.48)"/>
            <path id="Shadow3" class="cls-15" d="M489.24,639.61l-.48-.48c-3.27-5.3-5-11-3.83-17.25l1-1,.48-1,2.87-2.88,1-.48,1-1c1.85-.64,4.61-2.2,6.51-2.55,2.91-.53,4.92,0,7.87-.33l1,1.44.48.48.48,1,.48.48.48,1,.48.95c.16.17.92,3.29,1.08,3.45-.16,2-.21,1.06-.43,3.07-.61,5.41-1.21,9.51-1.93,14.91a10.8,10.8,0,0,1-1.95,2.59c0-.63.05-1.26.12-1.89q.61-6,1.24-12l.35-.61-.24-.12-.18.67c-1.94,2.34-4.83,2.58-7.48,3.23-5.52,1.34-8-.95-7.39-6.55,0-.1-.15-.22-.74-1-.67,2-1.65,3.56-1.62,5.1.09,6,1.68,11.36,8.14,13.68-1.52-.21-3.05-.37-4.55-.66a22.17,22.17,0,0,1-2.63-.81Zm7.68-18.21-1.43.49c-1.8-.39-1.26.3-1.3,1.6,0,.53.14,1.11.48,1,2.45-.41,6.93.76,7-1.7.05-1.05.06-.66-.49-1.44l-.48-.48c-.33-.44-.59-.25-.93-.69-.45.44-1,.25-1.45.69ZM502,619l5.88,4.74A4.65,4.65,0,0,0,502,619Z" transform="translate(-248.89 -306.48)"/>
            <path id="shadeA2" class="cls-16" d="M648.59,645c2.58-.57,3-.21,2.39,2.29-.66,2.91-1.29,5.82-1.94,8.73-4.86,0-5-.18-3.27-4.76C646.6,649.09,647.64,647.05,648.59,645Z" transform="translate(-248.89 -306.48)"/>
            <path id="Penetrating_0" class="cls-20" d="M314.3 323.3 L314.14 326.89 L311.91 340.92 L308.23 352.25 L303.34 360.31 L297.48 364.57 L296.31 364.88 L294.99 365.03 L293.68 365.04 L292.51 364.88 L290 364.04 L287.44 362.69 L285.06 360.98 L283.06 359.04 L280.99 356.21 L279.35 353.02 L278.13 349.41 L277.28 345.32 L277.05 342.51 L276.99 338.83 L277.1 335.02 L277.38 331.8 L278.22 326.67 L279.38 321.47 L280.85 316.23 L282.62 310.98 L286.61 301.47 L291.01 293.27 L295.37 287.16 L299.19 283.89 L299.45 283.77 L299.71 283.65 L299.97 283.53 L300.23 283.4 L300.53 283.49 L300.83 283.58 L301.13 283.67 L301.43 283.76 L302.65 284.19 L303.77 284.76 L304.85 285.5 L305.92 286.44 L308.84 290.19 L311.19 295.31 L312.96 301.77 L314.14 309.56 L314.3 312.98 L314.35 318.11 L314.3 323.3 Z"/>
          </g>
          <!-- letters -->
          <g class="letter">
            <path class="cls-19" d="M583.25,607.52l0-3.28-.09-2-.17-1.63-1.92-10-3-8.86-4.14-7.63-5.21-6.35L566,565.32l-2.76-2-2.72-1.5L558,560.9l-2.31-.2-3.87-.06-3.94.07-2.52.2-4.63,1.4-4.36,2.23-4.09,3.05-3.82,3.88L522,581l-5.37,12.53L512.34,609l-3.28,18.29-.78,5.94-.43,4.71-.19,5.07,0,7v5.39l0,3.29.1,2,.17,1.63,1.19,6.61,1.78,5.87,2.38,5.13,3,4.43,1,1.15,1.25,1.28,1.3,1.21,1.15,1,2.89,2,3.3,1.8,3.42,1.51,3.21,1.05,1.07.26,1,.14,1.52,0H540l3,0,2.06-.14,1.69-.34,1.91-.6,6.41-3.18,5.92-5,5.37-6.69,4.74-8.33,3.61-8.68,3.16-10,2.6-10.92,1.93-11.46.48-3.9.27-3.3.11-4.1,0-6.28Zm-20.06,22.26-.16,3.59-2.23,14-3.68,11.33-4.89,8.06-5.85,4.26-1.18.3-1.32.16h-1.31l-1.17-.16-2.51-.85-2.55-1.34L534,667.46l-2-1.94-2.08-2.83-1.64-3.19L527,655.89l-.84-4.09-.24-2.81-.06-3.68.11-3.81.28-3.23.84-5.12,1.16-5.2,1.47-5.24,1.77-5.26,4-9.5,4.41-8.2,4.35-6.11,3.82-3.27.26-.12.26-.12.26-.12.26-.13.3.09.3.09.3.09.31.09,1.21.43,1.12.57,1.08.74,1.07.93,2.93,3.76,2.35,5.12,1.76,6.46L563,616l.16,3.42,0,5.13Z" transform="translate(-248.89 -306.48)"/>
          </g>
          <g class="letter">
            <polyline id="letter_c2" class="cls-19 " points="467.48 379.95 466.81 379.76 466.1 379.53 465.36 379.26 464.61 378.96 463.83 378.62 463.05 378.25 462.27 377.86 461.5 377.45 459.82 376.45 458.31 375.41 456.95 374.32 455.76 373.19 454.73 372.01 453.86 370.79 453.16 369.52 452.62 368.22 452.53 367.93 452.45 367.63 452.4 367.3 452.36 366.88 452.34 366.37 452.32 365.71 452.31 364.87 452.31 363.83 452.32 362.58 452.34 361.57 452.38 360.74 452.45 360.03 452.55 359.38 452.7 358.75 452.91 358.06 453.17 357.25 453.88 355.44 454.81 353.5 455.94 351.47 457.26 349.37 458.75 347.25 460.37 345.12 462.12 343.03 463.96 341 464.55 340.39 465.16 339.8 465.77 339.22 466.38 338.68 466.96 338.19 467.5 337.74 468 337.37 468.44 337.07 469.15 336.7 470.2 336.25 471.49 335.74 472.95 335.22 474.49 334.7 476.03 334.22 477.49 333.8 478.79 333.48 479.33 333.36 479.81 333.27 480.29 333.2 480.81 333.15 481.41 333.12 482.15 333.1 483.08 333.1 484.23 333.09 484.7 333.09 485.17 333.09 485.63 333.09 486.1 333.09 486.57 333.09 487.04 333.09 487.51 333.09 487.97 333.09 488.18 333.2 488.38 333.3 488.59 333.41 488.79 333.51 489 333.62 489.2 333.73 489.4 333.83 489.61 333.94 490.82 334.61 492.16 335.43 493.55 336.34 494.89 337.27 496.11 338.16 497.11 338.95 497.8 339.58 498.1 339.98 498.08 340.18 497.97 340.61 497.79 341.27 497.54 342.14 497.21 343.2 496.81 344.46 496.36 345.88 495.84 347.47 494.86 350.47 494.12 352.7 493.6 354.26 493.23 355.29 492.99 355.88 492.82 356.16 492.68 356.25 492.53 356.25 492.36 356.23 492.23 356.18 492.14 356.07 492.08 355.91 492.05 355.69 492.05 355.39 492.08 355.01 492.14 354.55 492.27 353.12 492.31 351.69 492.24 350.29 492.09 348.94 491.84 347.67 491.51 346.5 491.1 345.46 490.61 344.56 490.02 343.75 489.39 343.06 488.69 342.5 487.93 342.04 487.1 341.7 486.17 341.46 485.15 341.32 484.02 341.27 483.03 341.3 482.06 341.39 481.11 341.54 480.15 341.76 479.17 342.04 478.16 342.4 477.12 342.84 476.01 343.35 474.76 344 473.54 344.71 472.33 345.49 471.13 346.35 469.91 347.3 468.67 348.35 467.4 349.5 466.09 350.77 465.33 351.53 464.75 352.12 464.3 352.6 463.96 353.01 463.69 353.38 463.45 353.76 463.23 354.19 462.97 354.72 462.11 356.78 461.52 358.75 461.2 360.61 461.16 362.36 461.39 363.99 461.9 365.48 462.67 366.83 463.72 368.02 464.64 368.8 465.66 369.49 466.8 370.08 468.06 370.59 469.47 371.01 471.03 371.36 472.77 371.64 474.7 371.86 475.85 371.93 477.19 371.97 478.64 371.98 480.14 371.95 481.62 371.89 483.02 371.81 484.26 371.69 485.27 371.55 488.07 370.95 490.63 370.16 492.96 369.17 495.05 367.98 496.9 366.59 498.51 365 499.89 363.21 501.04 361.23 501.26 360.78 501.46 360.4 501.63 360.1 501.77 359.87 501.9 359.7 502.01 359.58 502.1 359.51 502.19 359.49 502.29 359.5 502.36 359.56 502.41 359.7 502.44 359.95 502.47 360.35 502.48 360.92 502.49 361.7 502.49 362.72 502.48 363.68 502.48 364.46 502.46 365.08 502.43 365.58 502.39 365.99 502.33 366.34 502.26 366.67 502.16 367 501.87 367.85 501.56 368.59 501.2 369.24 500.76 369.85 500.21 370.44 499.53 371.06 498.68 371.73 497.63 372.49 496.76 373.11 496 373.62 495.32 374.06 494.67 374.45 494.02 374.82 493.31 375.18 492.5 375.57 491.56 376 490.02 376.68 488.49 377.31 486.97 377.88 485.47 378.4 483.99 378.87 482.53 379.28 481.08 379.63 479.66 379.94 479.01 380.06 478.43 380.16 477.88 380.23 477.28 380.27 476.58 380.3 475.71 380.32 474.63 380.33 473.27 380.33 471.9 380.32 470.83 380.31 470 380.3 469.35 380.26 468.82 380.22 468.38 380.15 467.95 380.07 467.48 379.95"/>
          </g> 
          <g class="letter">
            <path id="letter_i" class="cls-19" d="M452.68 341.55 451.43 340.28 450.34 338.27 449.57 335.88 449.28 333.48 449.47 331.84 450.01 330.42 450.89 329.28 452.09 328.44 452.56 328.23 453.06 328.12 453.85 328.07 455.15 328.06 455.72 328.06 456.3 328.06 456.88 328.06 457.45 328.06 457.61 328.21 457.77 328.36 457.93 328.5 458.09 328.65 458.37 328.95 458.66 329.32 458.92 329.73 459.14 330.14 459.38 330.7 459.51 331.25 459.57 332.05 459.61 333.34 459.62 333.91 459.63 334.48 459.64 335.05 459.65 335.62 459.54 335.9 459.42 336.19 459.3 336.47 459.18 336.75 458.63 337.87 457.9 339.08 457.15 340.15 456.5 340.88 455.53 341.55 454.55 341.88 453.58 341.89 452.68 341.55 M436.16 367.59 433.83 366.43 432.4 365.59 431.51 364.8 430.77 363.78 430.15 362.7 429.8 361.63 429.64 360.22 429.6 358.13 429.61 356.41 429.66 355.37 429.79 354.64 430.04 353.83 431.63 350.29 433.96 346.52 436.57 343.17 438.99 340.9 440.22 340.19 441.46 339.74 442.7 339.54 443.92 339.6 445.08 339.86 446.44 340.27 447.71 340.75 448.6 341.18 449.12 341.59 449.47 342.04 449.66 342.59 449.72 343.26 449.63 343.99 449.37 344.73 448.93 345.49 448.29 346.29 447.72 346.99 446.8 348.22 445.35 350.23 443.19 353.26 442.28 354.74 441.62 356.27 441.2 357.83 441.06 359.34 441.19 360.91 441.65 362.33 442.52 363.73 443.84 365.27 444.69 366.18 445.19 366.84 445.43 367.36 445.49 367.89 445.36 368.63 444.86 369.06 443.8 369.27 442.04 369.31 441.46 369.31 440.88 369.31 440.31 369.31 439.73 369.3 438.84 368.87 437.95 368.44 437.05 368.02 436.16 367.59"/>
          </g>  
          <g class="letter">
            <polyline id="letter_T" class="cls-19" points="415.85 369.16 415.27 368.99 414.36 368.75 413.24 368.47 412.05 368.18 409.48 367.54 407.66 366.98 406.35 366.42 405.34 365.79 404.78 365.28 404.46 364.73 404.34 364.06 404.41 363.2 404.68 361.88 405.1 361.02 405.81 360.42 406.98 359.88 407.29 359.75 407.6 359.63 407.91 359.51 408.22 359.38 408.33 359.04 408.45 358.69 408.56 358.34 408.67 358 409.08 356.61 409.88 353.87 410.94 350.17 412.15 345.9 413.4 341.52 414.56 337.52 415.5 334.34 416.09 332.43 417.04 329.37 417.64 326.97 417.96 324.94 418.05 322.98 418.01 321.63 417.88 320.54 417.65 319.6 417.27 318.67 416.79 317.84 416.13 317.09 415.34 316.43 414.45 315.91 413.99 315.72 413.34 315.51 412.59 315.31 411.84 315.14 409.43 314.61 407.46 314.06 405.77 313.45 404.18 312.72 402.75 311.91 401.57 311.05 400.62 310.13 399.86 309.11 399.6 308.66 399.47 308.19 399.42 307.45 399.41 306.17 399.44 304.7 399.56 303.78 399.83 303.18 400.32 302.68 400.63 302.45 401.02 302.33 401.73 302.28 402.99 302.28 404.22 302.29 405.03 302.34 405.65 302.48 406.35 302.73 407.56 303.14 410 303.94 413.31 304.99 417.14 306.2 422.89 307.99 427.24 309.25 432.28 310.57 440.1 312.5 443.43 313.32 446.77 314.14 450.1 314.96 453.44 315.78 453.43 316.03 453.43 316.28 453.43 316.52 453.42 316.77 453.39 317.36 453.26 317.94 453 318.69 452.56 319.75 451.9 321.18 451.3 322.12 450.6 322.77 449.65 323.33 448.63 323.76 447.62 324.02 446.5 324.13 445.18 324.11 443.56 323.94 441.93 323.57 440.02 322.93 437.59 321.95 436.26 321.43 435.13 321.11 434.08 320.96 432.96 320.96 432.2 321 431.68 321.08 431.27 321.23 430.85 321.47 430.17 321.98 429.64 322.57 429.24 323.27 428.94 324.11 427.73 328.86 425.6 337.46 423.39 346.5 421.94 352.6 421.19 355.9 420.56 358.82 420.08 361.19 419.79 362.81 419.76 362.97 419.74 363.13 419.72 363.3 419.69 363.46 419.9 363.59 420.11 363.73 420.32 363.87 420.53 364 421.16 364.46 421.56 364.87 421.77 365.29 421.83 365.78 421.76 366.33 421.53 366.96 421.13 367.68 420.57 368.52 420.39 368.76 420.22 369 420.04 369.24 419.87 369.48 419.48 369.48 419.09 369.47 418.7 369.47 418.31 369.47 417.57 369.44 416.92 369.39 416.35 369.29 415.85 369.16"/>
          </g>  
          <g class="letter">  
            <path id="letter_a2" class="cls-19" d="M659.69,637.39l-.12-.18-.11-.18-.12-.18-.54-.62-.76-.63-.92-.58-1-.47-.55-.18-.62-.12-.89-.06-1.34,0-.62,0h-1.26l-.62,0-.27.14-.26.14-.27.14-.26.14-.9.57-.94.77-.88.86-.69.86-.63,1.25-1.07,2.38-1.24,2.89L641.7,647l-.75,1.67-1.45,2.83L637.08,656l-3.64,6.66-1,1.71-.94,1.71-.94,1.71-.94,1.71v2.12l.05.51.07.35.12.24.74.66,1.15.56,1.38.39,1.43.16,1.25-.11,1-.39.83-.71.74-1.09.32-.55.53-.92.69-1.16.75-1.27.47-.78.46-.77.46-.78.47-.78h.83l.32,0,.34,0,.31,0,.17,0,.17,0,.17,0,.17,0,0,.39,0,.39-.05.4,0,.39-.2,2.12-.17,2.41-.1,2.07,0,1.11.05.22.08.23.1.22.1.17.18.2.34.11.74,0h2.72l.76-.05.41-.12.32-.23.43-.42.29-.49.21-.65.15-.9.12-.76.18-1.15.23-1.4.25-1.47.39-2.17.45-1.86.81-2.57,1.44-4.3,1-3.12,1-3.06.88-2.66.62-1.89.27-.85.27-.85.27-.85.27-.85v-5.6Zm-8.82,9.88-.67,3-.74,3-.53,1.8-.1.21-.12.21-.13.19-.12.14-.19.13-.3.08-.46,0h-1.43l-.46,0-.29-.1-.22-.18-.17-.2-.09-.22,0-.32,0-.47.07-.43.12-.53.15-.55.16-.52.75-1.75,1-2.09,1.12-2,1-1.51.09-.12.09-.12.1-.13.09-.12.19.08.19.08.2.09.19.08.35.16.24.16.14.15,0,.15Z" transform="translate(-248.89 -306.48)"/>
          </g>
          <g class="letter">
            <polygon id="letter_m" class="cls-19" points="393.43 311.79 393.16 309.91 392.75 307.77 392.29 305.7 391.82 304.02 390.42 300.82 388.43 298.57 385.59 297.08 381.65 296.15 379.78 295.99 377.53 295.95 375.41 296.05 373.91 296.26 373.71 296.31 373.52 296.37 373.32 296.42 373.12 296.47 372.05 298.25 370.98 300.02 369.92 301.8 368.85 303.58 366.61 307.28 365.25 309.45 364.53 310.46 364.17 310.73 363.94 310.72 363.68 310.59 363.36 310.31 362.93 309.87 361.57 308.24 360.24 306.41 359.04 304.5 358.05 302.63 357.19 300.6 356.59 298.63 356.21 296.59 356.03 294.34 355.98 293.23 355.9 292.46 355.77 291.89 355.59 291.4 354.95 290.42 354.03 289.75 352.76 289.36 351.09 289.24 349.79 289.29 348.49 289.46 347.11 289.76 345.57 290.21 345.24 290.31 344.91 290.42 344.58 290.53 344.25 290.63 344.06 291.37 343.87 292.1 343.68 292.83 343.49 293.56 340.62 304.05 336.02 320.4 331.69 335.62 329.57 342.75 329.12 344.16 329.1 345.43 329.52 346.58 330.38 347.61 331.45 348.39 332.87 349.04 334.81 349.61 337.48 350.18 342.24 351.16 347.6 352.37 352.23 353.49 354.8 354.2 355.01 354.28 355.12 354.3 355.14 354.26 355.08 354.17 352.86 351.32 350.24 347.88 348.05 344.94 347.14 343.62 347.38 343.19 348.06 342.21 349.05 340.83 350.26 339.19 352.04 336.82 353.04 335.57 353.57 335.07 353.97 334.96 354.26 334.96 354.53 335 354.78 335.1 355.02 335.24 355.56 335.79 356.19 336.7 356.86 337.89 357.52 339.27 358.15 340.65 358.66 341.59 359.14 342.21 359.65 342.63 361.17 343.08 363.08 342.73 365.26 341.63 367.6 339.81 368.7 338.97 369.3 339.14 369.53 340.55 369.52 343.46 369.26 347.72 368.71 351.69 367.81 355.55 366.56 359.47 365.81 361.25 364.77 363.42 363.66 365.53 362.69 367.14 362.11 368.01 362.2 368.17 363.34 367.43 365.93 365.6 372.18 361.04 376.47 357.44 379.68 353.99 382.68 349.85 383.9 347.96 385.03 346.07 386 344.31 386.72 342.81 387.74 340.07 389.09 335.92 390.47 331.32 391.59 327.23 392.59 322.69 393.24 318.49 393.53 314.81 393.43 311.79"/>
          </g>  
          <g class="letter">
            <polyline id="letter_e" class="cls-19" points="245.3 316.66 245.31 316.31 245.32 315.96 245.33 315.61 245.34 315.26 245.8 315.11 246.26 314.95 246.72 314.81 247.18 314.65 247.91 314.41 248.56 314.18 249.05 314 249.3 313.89 249.48 313.83 249.75 313.78 250.08 313.75 250.43 313.73 250.92 313.75 251.27 313.82 251.61 314.01 252.08 314.36 252.28 314.51 252.48 314.67 252.68 314.82 252.88 314.98 252.88 315.16 252.88 315.34 252.88 315.52 252.88 315.7 252.82 316.36 252.63 316.85 252.3 317.2 251.81 317.41 251.52 317.49 251.13 317.59 250.71 317.7 250.29 317.81 249.74 317.93 249.12 318.01 248.34 318.05 247.3 318.06 246.79 318.06 246.28 318.06 245.78 318.06 245.27 318.06 245.28 317.71 245.28 317.36 245.29 317.01 245.3 316.66"/>
          </g>  
          <g class="letter">
            <polyline id="letter_c1" class="cls-19" points="241.68 342.84 238.91 341.86 236.52 340.64 234.36 339.12 232.31 337.2 230.43 335.06 228.93 332.98 227.74 330.86 226.81 328.6 226.69 328.24 226.56 327.87 226.43 327.5 226.31 327.14 226.29 326.01 226.28 324.89 226.27 323.76 226.25 322.63 226.23 320.02 226.26 318.5 226.37 317.5 226.61 316.48 227.42 313.85 228.51 311.6 229.99 309.51 232 307.38 236.38 304.02 242.1 300.99 248.92 298.39 256.58 296.36 258.23 296.08 259.69 295.96 260.76 296.01 261.22 296.24 261.29 296.75 261.44 297.92 261.64 299.6 261.87 301.59 262.19 304.46 262.36 306.55 262.44 308.5 262.46 310.98 262.46 312.06 262.46 313.13 262.46 314.21 262.47 315.29 262.32 315.3 262.18 315.31 262.04 315.32 261.89 315.33 261.5 315.35 261.09 315 260.3 313.85 258.76 311.46 258.01 310.3 257.25 309.15 256.58 308.16 256.08 307.44 255.85 307.13 255.62 306.81 255.39 306.49 255.16 306.17 254.75 306.14 254.33 306.12 253.92 306.09 253.5 306.06 252.04 306.05 250.51 306.23 248.78 306.61 246.69 307.24 244.38 308.1 242.4 309.12 240.6 310.38 238.86 311.96 237.69 313.2 236.75 314.35 236.07 315.38 235.66 316.28 235.45 317.44 235.38 319.03 235.45 320.74 235.66 322.29 235.97 323.59 236.38 325.05 236.84 326.5 237.32 327.81 239.1 330.89 241.7 333.24 245.07 334.85 249.2 335.7 251.02 335.82 252.56 335.7 254.37 335.25 256.98 334.38 258.45 333.87 259.7 333.45 260.6 333.17 261 333.06 261.12 333.08 261.24 333.12 261.34 333.18 261.42 333.26 261.73 333.97 262.1 335.18 262.41 336.45 262.54 337.35 262.54 337.54 262.54 337.73 262.54 337.93 262.54 338.12 262.32 338.26 262.1 338.4 261.88 338.54 261.66 338.68 259.92 339.65 257.49 340.87 255.07 342 253.38 342.69 253.04 342.8 252.69 342.92 252.35 343.03 252 343.15 250.87 343.15 249.73 343.16 248.59 343.17 247.46 343.18 244.87 343.19 243.37 343.16 242.47 343.05 241.68 342.84"/>
          </g>
          <g class="letter">
            <polyline id="letter_n" class="cls-19" points="208.78 361.61 208.68 361.3 208.67 360.75 208.75 360.11 208.9 359.51 209.04 359.17 209.25 358.74 209.51 358.29 209.77 357.86 209.93 357.62 210.09 357.38 210.24 357.13 210.4 356.89 208.3 350.68 206.2 344.47 204.1 338.25 202.01 332.04 198.73 322.33 196.03 314.25 194.17 308.65 193.44 306.37 193.3 305.48 193.28 304.65 193.37 303.91 193.56 303.29 193.96 302.69 194.66 302.11 195.78 301.46 197.45 300.66 198.36 300.24 199.28 299.81 200.11 299.41 200.73 299.11 201.93 298.55 202.91 298.19 203.82 298 204.76 297.94 205.39 297.96 205.89 298.02 206.35 298.16 206.87 298.38 207.72 298.91 208.57 299.66 209.35 300.56 209.97 301.53 212.32 305.82 216.77 313.91 221.1 321.75 223.06 325.3 223.09 325.32 223.13 325.32 223.16 325.31 223.19 325.29 223.07 323.97 222.68 320.4 222.08 315.15 221.34 308.74 220.61 302.34 220.02 297.07 219.64 293.5 219.53 292.15 220.3 292.07 222.34 291.94 225.32 291.77 228.96 291.58 232.68 291.39 235.92 291.22 238.33 291.09 239.57 291.02 240.26 290.98 240.65 290.99 240.81 291.06 240.84 291.21 240.54 291.55 239.63 292.3 238.12 293.44 236.01 294.99 234.13 296.35 232.58 297.49 231.52 298.27 231.11 298.59 231.21 299.58 231.52 302.18 232 306 232.6 310.65 232.99 313.63 233.38 316.62 233.77 319.6 234.16 322.59 234.67 324.67 235.17 326.74 235.68 328.82 236.18 330.89 238.31 339.53 239.66 344.56 240.57 347.15 241.4 348.46 241.61 348.68 241.82 348.83 242.03 348.92 242.24 348.95 243.1 349.09 243.85 349.46 244.38 349.98 244.58 350.59 244.52 350.97 244.32 351.29 243.99 351.55 243.51 351.77 243.24 351.88 242.9 352.04 242.53 352.24 242.16 352.45 240.28 353.29 237.7 354.06 234.88 354.66 232.27 354.97 231.1 354.99 230.3 354.9 229.81 354.7 229.57 354.36 229.52 353.91 229.6 353.25 229.8 352.39 230.12 351.36 230.23 351.03 230.34 350.7 230.46 350.36 230.57 350.03 229.53 349.23 228.49 348.43 227.46 347.62 226.42 346.82 224.51 345.34 222.37 343.68 220.28 342.06 218.48 340.67 216.99 339.52 215.73 338.56 214.85 337.91 214.46 337.64 214.35 337.61 214.29 337.64 214.28 337.71 214.31 337.85 214.45 338.31 214.75 339.36 215.17 340.83 215.66 342.57 217 347.22 218.08 350.81 218.9 353.31 219.44 354.7 219.56 354.96 219.69 355.21 219.81 355.46 219.93 355.71 220.21 355.78 220.48 355.85 220.75 355.91 221.02 355.98 221.82 356.24 222.38 356.57 222.7 356.99 222.81 357.5 222.72 357.91 222.47 358.26 222.04 358.54 221.44 358.75 220.97 358.88 220.22 359.1 219.29 359.39 218.3 359.7 217.23 360.03 216.1 360.34 215.03 360.6 214.18 360.78 213.42 360.92 212.61 361.07 211.84 361.21 211.22 361.33 210.13 361.54 209.4 361.65 208.97 361.67 208.78 361.61"/>
          </g>
          <g class="letter">
            <path id="letter_a1" class="cls-19" d="M454.58,664.75l-.35-1.4-.29-1.06-.39-1.45-.43-1.63-.43-1.64-.59-2.19-.62-2-.84-2.35-1.23-3.24-2.59-6.63-2.27-5.72-1.73-4.26-1-2.25-.86-1.55-.82-.79-1.12-.2-1.78.21-.93.15-1.05.16-1,.14-.91.13-1.35.2-1.08.26L430,628l-.88.45-1,.77-.83,1-.62,1.19-.37,1.3-.47,1.93-1.17,4.63-1.7,6.63-2,8-3.62,14-1.72,6.86-.43,2.35.23.55.39.31.76.08,1.35-.15,2.16-.38,1.89-.39,1.37-.36,1.05-.38.9-.46,1.06-.79.95-1,.77-1.16.48-1.18.18-.75.35-1.59.47-2.19.54-2.55.55-2.52.47-2.09.36-1.45.18-.59,1.08-.43,2.2-.71,2.25-.67,1.26-.29.23,0,.21.19.23.42.32.74L440.7,660l1.76,3.11,1.79,2.84,1.45,1.9.74.7.79.31h1.14l1.83-.3,1.59-.33,1.11-.33.74-.37.52-.47.39-.62.14-.71Zm-15.91-16-.79.17-1.15.24-1.4.29-1.41.28-1.16.24-.79.16-.32.06.42-1.65,1-3.62,1-3.65.51-1.7.19.35.48,1,.7,1.44.85,1.77.85,1.77.68,1.46.45,1,.16.37Z" transform="translate(-248.89 -306.48)"/>
          </g>
          <g class="letter">
            <path id="letter_D" class="cls-19" d="M423.52,629.28l0-.74-.12-.52-.21-.52L421.39,625l-3.1-3L414,618.69l-5.37-3.6-1.56-1-1.34-.73-2-.94-3.58-1.59-1.29-.57-1.3-.57-1.29-.58-1.3-.57-3.29.83-3.28.82-3.29.83-3.29.82-3.29.83-3.28.83-3.29.82-3.29.83-3.07,1.06-3.08,1.06-3.07,1.06-3.07,1.06-3.07,1.06-3.08,1.06-3.07,1.06L344,623.66l-1.74,1.2-1.73,1.2-1.73,1.2-1.73,1.2-3,2.07L332,632.09l-1.33,1-.45.42.24.46.64,1,.94,1.49,1.16,1.78,1.24,1.88,1.17,1.79,1,1.49.64,1,.42.63.37.52.29.35.16.13.18-.29.32-.84.45-1.37.58-1.87.33-1.09.33-1.1.33-1.09.33-1.09,1.06-.55,1.06-.55,1.06-.55,1.06-.55,1.66-.85,1.38-.7,1-.48.4-.17.76.55,1.74,1.46,2.39,2.08,2.67,2.39,5.22,4.86,4.48,4.45,3.67,4,2.78,3.39,1.44,2.08,1,1.91.75,2,.59,2.44.7,4.39.55,5.35.38,6.44.24,7.67,0,1.28,0,1.27,0,1.28,0,1.28-1.12,1-1.13,1-1.13,1-1.12,1-1.75,1.64-1.44,1.37-1,1-.35.42.07.43.21,1,.3,1.41.37,1.69.46,2,.34,1.33.23.73.15.22.48-.39,1.15-1.06,1.65-1.57,2-1.92,1.25-1.24,1.26-1.23,1.25-1.24,1.26-1.23,2.89-2.06,2.89-2.06,2.89-2.06,2.89-2.06,2.89-2.06,2.89-2.06,2.89-2.06,2.89-2.06.7-.71.69-.72.7-.72.7-.72,1.13-1.16,1-1,.75-.79.41-.44.38-.77.74-2.49,1.49-5.59,2.62-10.1,1.87-7.27,1.59-6.2,1.14-4.48.51-2.08.49-2.42.37-2.37.24-2.18.1-1.85Zm-27.87,24.31-.53,4.14-.91,4.34-1.3,4.66-.55,1.72-.4,1.13-.27.59-.14.08-2.7-6.32-5.77-13.64-5.73-13.59-2.58-6.18.14,0,.37-.07.54-.09.64-.1,4.15-.23,3.83.59,3.39,1.4,2.85,2.16,1.7,2,1.35,2.31,1,2.69.73,3.14.18,1.15.11,1.09.05,1.29v1.73Z" transform="translate(-248.89 -306.48)"/>
          </g>
        </g>
        
      <path id="O_inside_Shade-2" data-name="O_inside_Shade" class="cls-17" d="M563.2,620.77c-.64-3.92-1.53-8.15-2.38-12A25.13,25.13,0,0,0,554,597.16c-2.64-2.62-3.63-2.63-6,.3-6.66,8.29-10.7,17.93-13.91,27.94a71.15,71.15,0,0,0-3.6,23.58c.19,7.7,5.41,17.84,12.05,22.54-1.87-1-7.06-2.73-8.61-4.06-5-4.29-7.26-12.4-7.51-18.79-.8-19.69,5.69-37.23,16.3-53.48.48-.73,1.17-1.32,1.67-2,3.13-4.46,6.32-4.35,10.25.25a35,35,0,0,1,7.78,18.77A82,82,0,0,1,563.2,620.77Z" transform="translate(-248.89 -306.48)"/>
      </g>
    </g>
   
    </svg>
