<svg xmlns="http://www.w3.org/2000/svg" viewBox="0 0 326.67 333.5"><defs><style>.a{fill:#eb66a2;}</style></defs><title>pinkArrowUp</title><rect class="a" x="198.33" y="322" width="11.67" height="11.5"/><rect class="a" x="186.67" y="322" width="11.67" height="11.5"/><rect class="a" x="175" y="322" width="11.67" height="11.5"/><rect class="a" x="163.33" y="322" width="11.67" height="11.5"/><rect class="a" x="151.67" y="322" width="11.67" height="11.5"/><rect class="a" x="140" y="322" width="11.67" height="11.5"/><rect class="a" x="128.33" y="322" width="11.67" height="11.5"/><rect class="a" x="116.67" y="322" width="11.67" height="11.5"/><rect class="a" x="198.33" y="310.5" width="11.67" height="11.5"/><rect class="a" x="186.67" y="310.5" width="11.67" height="11.5"/><rect class="a" x="175" y="310.5" width="11.67" height="11.5"/><rect class="a" x="163.33" y="310.5" width="11.67" height="11.5"/><rect class="a" x="151.67" y="310.5" width="11.67" height="11.5"/><rect class="a" x="140" y="310.5" width="11.67" height="11.5"/><rect class="a" x="128.33" y="310.5" width="11.67" height="11.5"/><rect class="a" x="116.67" y="310.5" width="11.67" height="11.5"/><rect class="a" x="198.33" y="299" width="11.67" height="11.5"/><rect class="a" x="186.67" y="299" width="11.67" height="11.5"/><rect class="a" x="175" y="299" width="11.67" height="11.5"/><rect class="a" x="163.33" y="299" width="11.67" height="11.5"/><rect class="a" x="151.67" y="299" width="11.67" height="11.5"/><rect class="a" x="140" y="299" width="11.67" height="11.5"/><rect class="a" x="128.33" y="299" width="11.67" height="11.5"/><rect class="a" x="116.67" y="299" width="11.67" height="11.5"/><rect class="a" x="198.33" y="287.5" width="11.67" height="11.5"/><rect class="a" x="186.67" y="287.5" width="11.67" height="11.5"/><rect class="a" x="175" y="287.5" width="11.67" height="11.5"/><rect class="a" x="163.33" y="287.5" width="11.67" height="11.5"/><rect class="a" x="151.67" y="287.5" width="11.67" height="11.5"/><rect class="a" x="140" y="287.5" width="11.67" height="11.5"/><rect class="a" x="128.33" y="287.5" width="11.67" height="11.5"/><rect class="a" x="116.67" y="287.5" width="11.67" height="11.5"/><rect class="a" x="198.33" y="276" width="11.67" height="11.5"/><rect class="a" x="186.67" y="276" width="11.67" height="11.5"/><rect class="a" x="175" y="276" width="11.67" height="11.5"/><rect class="a" x="163.33" y="276" width="11.67" height="11.5"/><rect class="a" x="151.67" y="276" width="11.67" height="11.5"/><rect class="a" x="140" y="276" width="11.67" height="11.5"/><rect class="a" x="128.33" y="276" width="11.67" height="11.5"/><rect class="a" x="116.67" y="276" width="11.67" height="11.5"/><rect class="a" x="198.33" y="264.5" width="11.67" height="11.5"/><rect class="a" x="186.67" y="264.5" width="11.67" height="11.5"/><rect class="a" x="175" y="264.5" width="11.67" height="11.5"/><rect class="a" x="163.33" y="264.5" width="11.67" height="11.5"/><rect class="a" x="151.67" y="264.5" width="11.67" height="11.5"/><rect class="a" x="140" y="264.5" width="11.67" height="11.5"/><rect class="a" x="128.33" y="264.5" width="11.67" height="11.5"/><rect class="a" x="116.67" y="264.5" width="11.67" height="11.5"/><rect class="a" x="198.33" y="253" width="11.67" height="11.5"/><rect class="a" x="186.67" y="253" width="11.67" height="11.5"/><rect class="a" x="175" y="253" width="11.67" height="11.5"/><rect class="a" x="163.33" y="253" width="11.67" height="11.5"/><rect class="a" x="151.67" y="253" width="11.67" height="11.5"/><rect class="a" x="140" y="253" width="11.67" height="11.5"/><rect class="a" x="128.33" y="253" width="11.67" height="11.5"/><rect class="a" x="116.67" y="253" width="11.67" height="11.5"/><rect class="a" x="198.33" y="241.5" width="11.67" height="11.5"/><rect class="a" x="186.67" y="241.5" width="11.67" height="11.5"/><rect class="a" x="175" y="241.5" width="11.67" height="11.5"/><rect class="a" x="163.33" y="241.5" width="11.67" height="11.5"/><rect class="a" x="151.67" y="241.5" width="11.67" height="11.5"/><rect class="a" x="140" y="241.5" width="11.67" height="11.5"/><rect class="a" x="128.33" y="241.5" width="11.67" height="11.5"/><rect class="a" x="116.67" y="241.5" width="11.67" height="11.5"/><rect class="a" x="198.33" y="230" width="11.67" height="11.5"/><rect class="a" x="186.67" y="230" width="11.67" height="11.5"/><rect class="a" x="175" y="230" width="11.67" height="11.5"/><rect class="a" x="163.33" y="230" width="11.67" height="11.5"/><rect class="a" x="151.67" y="230" width="11.67" height="11.5"/><rect class="a" x="140" y="230" width="11.67" height="11.5"/><rect class="a" x="128.33" y="230" width="11.67" height="11.5"/><rect class="a" x="116.67" y="230" width="11.67" height="11.5"/><rect class="a" x="198.33" y="218.5" width="11.67" height="11.5"/><rect class="a" x="186.67" y="218.5" width="11.67" height="11.5"/><rect class="a" x="175" y="218.5" width="11.67" height="11.5"/><rect class="a" x="163.33" y="218.5" width="11.67" height="11.5"/><rect class="a" x="151.67" y="218.5" width="11.67" height="11.5"/><rect class="a" x="140" y="218.5" width="11.67" height="11.5"/><rect class="a" x="128.33" y="218.5" width="11.67" height="11.5"/><rect class="a" x="116.67" y="218.5" width="11.67" height="11.5"/><rect class="a" x="198.33" y="207" width="11.67" height="11.5"/><rect class="a" x="186.67" y="207" width="11.67" height="11.5"/><rect class="a" x="175" y="207" width="11.67" height="11.5"/><rect class="a" x="163.33" y="207" width="11.67" height="11.5"/><rect class="a" x="151.67" y="207" width="11.67" height="11.5"/><rect class="a" x="140" y="207" width="11.67" height="11.5"/><rect class="a" x="128.33" y="207" width="11.67" height="11.5"/><rect class="a" x="116.67" y="207" width="11.67" height="11.5"/><rect class="a" x="198.33" y="195.5" width="11.67" height="11.5"/><rect class="a" x="186.67" y="195.5" width="11.67" height="11.5"/><rect class="a" x="175" y="195.5" width="11.67" height="11.5"/><rect class="a" x="163.33" y="195.5" width="11.67" height="11.5"/><rect class="a" x="151.67" y="195.5" width="11.67" height="11.5"/><rect class="a" x="140" y="195.5" width="11.67" height="11.5"/><rect class="a" x="128.33" y="195.5" width="11.67" height="11.5"/><rect class="a" x="116.67" y="195.5" width="11.67" height="11.5"/><rect class="a" x="198.33" y="184" width="11.67" height="11.5"/><rect class="a" x="186.67" y="184" width="11.67" height="11.5"/><rect class="a" x="175" y="184" width="11.67" height="11.5"/><rect class="a" x="163.33" y="184" width="11.67" height="11.5"/><rect class="a" x="151.67" y="184" width="11.67" height="11.5"/><rect class="a" x="140" y="184" width="11.67" height="11.5"/><rect class="a" x="128.33" y="184" width="11.67" height="11.5"/><rect class="a" x="116.67" y="184" width="11.67" height="11.5"/><rect class="a" x="198.33" y="172.5" width="11.67" height="11.5"/><rect class="a" x="186.67" y="172.5" width="11.67" height="11.5"/><rect class="a" x="175" y="172.5" width="11.67" height="11.5"/><rect class="a" x="163.33" y="172.5" width="11.67" height="11.5"/><rect class="a" x="151.67" y="172.5" width="11.67" height="11.5"/><rect class="a" x="140" y="172.5" width="11.67" height="11.5"/><rect class="a" x="128.33" y="172.5" width="11.67" height="11.5"/><rect class="a" x="116.67" y="172.5" width="11.67" height="11.5"/><rect class="a" x="198.33" y="161" width="11.67" height="11.5"/><rect class="a" x="186.67" y="161" width="11.67" height="11.5"/><rect class="a" x="175" y="161" width="11.67" height="11.5"/><rect class="a" x="163.33" y="161" width="11.67" height="11.5"/><rect class="a" x="151.67" y="161" width="11.67" height="11.5"/><rect class="a" x="140" y="161" width="11.67" height="11.5"/><rect class="a" x="128.33" y="161" width="11.67" height="11.5"/><rect class="a" x="116.67" y="161" width="11.67" height="11.5"/><rect class="a" x="315" y="149.5" width="11.67" height="11.5"/><rect class="a" x="303.33" y="149.5" width="11.67" height="11.5"/><rect class="a" x="291.67" y="149.5" width="11.67" height="11.5"/><rect class="a" x="280" y="149.5" width="11.67" height="11.5"/><rect class="a" x="268.33" y="149.5" width="11.67" height="11.5"/><rect class="a" x="256.67" y="149.5" width="11.67" height="11.5"/><rect class="a" x="245" y="149.5" width="11.67" height="11.5"/><rect class="a" x="233.33" y="149.5" width="11.67" height="11.5"/><rect class="a" x="221.67" y="149.5" width="11.67" height="11.5"/><rect class="a" x="210" y="149.5" width="11.67" height="11.5"/><rect class="a" x="198.33" y="149.5" width="11.67" height="11.5"/><rect class="a" x="186.67" y="149.5" width="11.67" height="11.5"/><rect class="a" x="175" y="149.5" width="11.67" height="11.5"/><rect class="a" x="163.33" y="149.5" width="11.67" height="11.5"/><rect class="a" x="151.67" y="149.5" width="11.67" height="11.5"/><rect class="a" x="140" y="149.5" width="11.67" height="11.5"/><rect class="a" x="128.33" y="149.5" width="11.67" height="11.5"/><rect class="a" x="116.67" y="149.5" width="11.67" height="11.5"/><rect class="a" x="105" y="149.5" width="11.67" height="11.5"/><rect class="a" x="93.33" y="149.5" width="11.67" height="11.5"/><rect class="a" x="81.67" y="149.5" width="11.67" height="11.5"/><rect class="a" x="70" y="149.5" width="11.67" height="11.5"/><rect class="a" x="58.33" y="149.5" width="11.67" height="11.5"/><rect class="a" x="46.67" y="149.5" width="11.67" height="11.5"/><rect class="a" x="35" y="149.5" width="11.67" height="11.5"/><rect class="a" x="23.33" y="149.5" width="11.67" height="11.5"/><rect class="a" x="11.67" y="149.5" width="11.67" height="11.5"/><rect class="a" y="149.5" width="11.67" height="11.5"/><rect class="a" x="303.33" y="138" width="11.67" height="11.5"/><rect class="a" x="291.67" y="138" width="11.67" height="11.5"/><rect class="a" x="280" y="138" width="11.67" height="11.5"/><rect class="a" x="268.33" y="138" width="11.67" height="11.5"/><rect class="a" x="256.67" y="138" width="11.67" height="11.5"/><rect class="a" x="245" y="138" width="11.67" height="11.5"/><rect class="a" x="233.33" y="138" width="11.67" height="11.5"/><rect class="a" x="221.67" y="138" width="11.67" height="11.5"/><rect class="a" x="210" y="138" width="11.67" height="11.5"/><rect class="a" x="198.33" y="138" width="11.67" height="11.5"/><rect class="a" x="186.67" y="138" width="11.67" height="11.5"/><rect class="a" x="175" y="138" width="11.67" height="11.5"/><rect class="a" x="163.33" y="138" width="11.67" height="11.5"/><rect class="a" x="151.67" y="138" width="11.67" height="11.5"/><rect class="a" x="140" y="138" width="11.67" height="11.5"/><rect class="a" x="128.33" y="138" width="11.67" height="11.5"/><rect class="a" x="116.67" y="138" width="11.67" height="11.5"/><rect class="a" x="105" y="138" width="11.67" height="11.5"/><rect class="a" x="93.33" y="138" width="11.67" height="11.5"/><rect class="a" x="81.67" y="138" width="11.67" height="11.5"/><rect class="a" x="70" y="138" width="11.67" height="11.5"/><rect class="a" x="58.33" y="138" width="11.67" height="11.5"/><rect class="a" x="46.67" y="138" width="11.67" height="11.5"/><rect class="a" x="35" y="138" width="11.67" height="11.5"/><rect class="a" x="23.33" y="138" width="11.67" height="11.5"/><rect class="a" x="11.67" y="138" width="11.67" height="11.5"/><rect class="a" x="291.67" y="126.5" width="11.67" height="11.5"/><rect class="a" x="280" y="126.5" width="11.67" height="11.5"/><rect class="a" x="268.33" y="126.5" width="11.67" height="11.5"/><rect class="a" x="256.67" y="126.5" width="11.67" height="11.5"/><rect class="a" x="245" y="126.5" width="11.67" height="11.5"/><rect class="a" x="233.33" y="126.5" width="11.67" height="11.5"/><rect class="a" x="221.67" y="126.5" width="11.67" height="11.5"/><rect class="a" x="210" y="126.5" width="11.67" height="11.5"/><rect class="a" x="198.33" y="126.5" width="11.67" height="11.5"/><rect class="a" x="186.67" y="126.5" width="11.67" height="11.5"/><rect class="a" x="175" y="126.5" width="11.67" height="11.5"/><rect class="a" x="163.33" y="126.5" width="11.67" height="11.5"/><rect class="a" x="151.67" y="126.5" width="11.67" height="11.5"/><rect class="a" x="140" y="126.5" width="11.67" height="11.5"/><rect class="a" x="128.33" y="126.5" width="11.67" height="11.5"/><rect class="a" x="116.67" y="126.5" width="11.67" height="11.5"/><rect class="a" x="105" y="126.5" width="11.67" height="11.5"/><rect class="a" x="93.33" y="126.5" width="11.67" height="11.5"/><rect class="a" x="81.67" y="126.5" width="11.67" height="11.5"/><rect class="a" x="70" y="126.5" width="11.67" height="11.5"/><rect class="a" x="58.33" y="126.5" width="11.67" height="11.5"/><rect class="a" x="46.67" y="126.5" width="11.67" height="11.5"/><rect class="a" x="35" y="126.5" width="11.67" height="11.5"/><rect class="a" x="23.33" y="126.5" width="11.67" height="11.5"/><rect class="a" x="280" y="115" width="11.67" height="11.5"/><rect class="a" x="268.33" y="115" width="11.67" height="11.5"/><rect class="a" x="256.67" y="115" width="11.67" height="11.5"/><rect class="a" x="245" y="115" width="11.67" height="11.5"/><rect class="a" x="233.33" y="115" width="11.67" height="11.5"/><rect class="a" x="221.67" y="115" width="11.67" height="11.5"/><rect class="a" x="210" y="115" width="11.67" height="11.5"/><rect class="a" x="198.33" y="115" width="11.67" height="11.5"/><rect class="a" x="186.67" y="115" width="11.67" height="11.5"/><rect class="a" x="175" y="115" width="11.67" height="11.5"/><rect class="a" x="163.33" y="115" width="11.67" height="11.5"/><rect class="a" x="151.67" y="115" width="11.67" height="11.5"/><rect class="a" x="140" y="115" width="11.67" height="11.5"/><rect class="a" x="128.33" y="115" width="11.67" height="11.5"/><rect class="a" x="116.67" y="115" width="11.67" height="11.5"/><rect class="a" x="105" y="115" width="11.67" height="11.5"/><rect class="a" x="93.33" y="115" width="11.67" height="11.5"/><rect class="a" x="81.67" y="115" width="11.67" height="11.5"/><rect class="a" x="70" y="115" width="11.67" height="11.5"/><rect class="a" x="58.33" y="115" width="11.67" height="11.5"/><rect class="a" x="46.67" y="115" width="11.67" height="11.5"/><rect class="a" x="35" y="115" width="11.67" height="11.5"/><rect class="a" x="268.33" y="103.5" width="11.67" height="11.5"/><rect class="a" x="256.67" y="103.5" width="11.67" height="11.5"/><rect class="a" x="245" y="103.5" width="11.67" height="11.5"/><rect class="a" x="233.33" y="103.5" width="11.67" height="11.5"/><rect class="a" x="221.67" y="103.5" width="11.67" height="11.5"/><rect class="a" x="210" y="103.5" width="11.67" height="11.5"/><rect class="a" x="198.33" y="103.5" width="11.67" height="11.5"/><rect class="a" x="186.67" y="103.5" width="11.67" height="11.5"/><rect class="a" x="175" y="103.5" width="11.67" height="11.5"/><rect class="a" x="163.33" y="103.5" width="11.67" height="11.5"/><rect class="a" x="151.67" y="103.5" width="11.67" height="11.5"/><rect class="a" x="140" y="103.5" width="11.67" height="11.5"/><rect class="a" x="128.33" y="103.5" width="11.67" height="11.5"/><rect class="a" x="116.67" y="103.5" width="11.67" height="11.5"/><rect class="a" x="105" y="103.5" width="11.67" height="11.5"/><rect class="a" x="93.33" y="103.5" width="11.67" height="11.5"/><rect class="a" x="81.67" y="103.5" width="11.67" height="11.5"/><rect class="a" x="70" y="103.5" width="11.67" height="11.5"/><rect class="a" x="58.33" y="103.5" width="11.67" height="11.5"/><rect class="a" x="46.67" y="103.5" width="11.67" height="11.5"/><rect class="a" x="256.67" y="92" width="11.67" height="11.5"/><rect class="a" x="245" y="92" width="11.67" height="11.5"/><rect class="a" x="233.33" y="92" width="11.67" height="11.5"/><rect class="a" x="221.67" y="92" width="11.67" height="11.5"/><rect class="a" x="210" y="92" width="11.67" height="11.5"/><rect class="a" x="198.33" y="92" width="11.67" height="11.5"/><rect class="a" x="186.67" y="92" width="11.67" height="11.5"/><rect class="a" x="175" y="92" width="11.67" height="11.5"/><rect class="a" x="163.33" y="92" width="11.67" height="11.5"/><rect class="a" x="151.67" y="92" width="11.67" height="11.5"/><rect class="a" x="140" y="92" width="11.67" height="11.5"/><rect class="a" x="128.33" y="92" width="11.67" height="11.5"/><rect class="a" x="116.67" y="92" width="11.67" height="11.5"/><rect class="a" x="105" y="92" width="11.67" height="11.5"/><rect class="a" x="93.33" y="92" width="11.67" height="11.5"/><rect class="a" x="81.67" y="92" width="11.67" height="11.5"/><rect class="a" x="70" y="92" width="11.67" height="11.5"/><rect class="a" x="58.33" y="92" width="11.67" height="11.5"/><rect class="a" x="245" y="80.5" width="11.67" height="11.5"/><rect class="a" x="233.33" y="80.5" width="11.67" height="11.5"/><rect class="a" x="221.67" y="80.5" width="11.67" height="11.5"/><rect class="a" x="210" y="80.5" width="11.67" height="11.5"/><rect class="a" x="198.33" y="80.5" width="11.67" height="11.5"/><rect class="a" x="186.67" y="80.5" width="11.67" height="11.5"/><rect class="a" x="175" y="80.5" width="11.67" height="11.5"/><rect class="a" x="163.33" y="80.5" width="11.67" height="11.5"/><rect class="a" x="151.67" y="80.5" width="11.67" height="11.5"/><rect class="a" x="140" y="80.5" width="11.67" height="11.5"/><rect class="a" x="128.33" y="80.5" width="11.67" height="11.5"/><rect class="a" x="116.67" y="80.5" width="11.67" height="11.5"/><rect class="a" x="105" y="80.5" width="11.67" height="11.5"/><rect class="a" x="93.33" y="80.5" width="11.67" height="11.5"/><rect class="a" x="81.67" y="80.5" width="11.67" height="11.5"/><rect class="a" x="70" y="80.5" width="11.67" height="11.5"/><rect class="a" x="233.33" y="69" width="11.67" height="11.5"/><rect class="a" x="221.67" y="69" width="11.67" height="11.5"/><rect class="a" x="210" y="69" width="11.67" height="11.5"/><rect class="a" x="198.33" y="69" width="11.67" height="11.5"/><rect class="a" x="186.67" y="69" width="11.67" height="11.5"/><rect class="a" x="175" y="69" width="11.67" height="11.5"/><rect class="a" x="163.33" y="69" width="11.67" height="11.5"/><rect class="a" x="151.67" y="69" width="11.67" height="11.5"/><rect class="a" x="140" y="69" width="11.67" height="11.5"/><rect class="a" x="128.33" y="69" width="11.67" height="11.5"/><rect class="a" x="116.67" y="69" width="11.67" height="11.5"/><rect class="a" x="105" y="69" width="11.67" height="11.5"/><rect class="a" x="93.33" y="69" width="11.67" height="11.5"/><rect class="a" x="81.67" y="69" width="11.67" height="11.5"/><rect class="a" x="221.67" y="57.5" width="11.67" height="11.5"/><rect class="a" x="210" y="57.5" width="11.67" height="11.5"/><rect class="a" x="198.33" y="57.5" width="11.67" height="11.5"/><rect class="a" x="186.67" y="57.5" width="11.67" height="11.5"/><rect class="a" x="175" y="57.5" width="11.67" height="11.5"/><rect class="a" x="163.33" y="57.5" width="11.67" height="11.5"/><rect class="a" x="151.67" y="57.5" width="11.67" height="11.5"/><rect class="a" x="140" y="57.5" width="11.67" height="11.5"/><rect class="a" x="128.33" y="57.5" width="11.67" height="11.5"/><rect class="a" x="116.67" y="57.5" width="11.67" height="11.5"/><rect class="a" x="105" y="57.5" width="11.67" height="11.5"/><rect class="a" x="93.33" y="57.5" width="11.67" height="11.5"/><rect class="a" x="210" y="46" width="11.67" height="11.5"/><rect class="a" x="198.33" y="46" width="11.67" height="11.5"/><rect class="a" x="186.67" y="46" width="11.67" height="11.5"/><rect class="a" x="175" y="46" width="11.67" height="11.5"/><rect class="a" x="163.33" y="46" width="11.67" height="11.5"/><rect class="a" x="151.67" y="46" width="11.67" height="11.5"/><rect class="a" x="140" y="46" width="11.67" height="11.5"/><rect class="a" x="128.33" y="46" width="11.67" height="11.5"/><rect class="a" x="116.67" y="46" width="11.67" height="11.5"/><rect class="a" x="105" y="46" width="11.67" height="11.5"/><rect class="a" x="198.33" y="34.5" width="11.67" height="11.5"/><rect class="a" x="186.67" y="34.5" width="11.67" height="11.5"/><rect class="a" x="175" y="34.5" width="11.67" height="11.5"/><rect class="a" x="163.33" y="34.5" width="11.67" height="11.5"/><rect class="a" x="151.67" y="34.5" width="11.67" height="11.5"/><rect class="a" x="140" y="34.5" width="11.67" height="11.5"/><rect class="a" x="128.33" y="34.5" width="11.67" height="11.5"/><rect class="a" x="116.67" y="34.5" width="11.67" height="11.5"/><rect class="a" x="186.67" y="23" width="11.67" height="11.5"/><rect class="a" x="175" y="23" width="11.67" height="11.5"/><rect class="a" x="163.33" y="23" width="11.67" height="11.5"/><rect class="a" x="151.67" y="23" width="11.67" height="11.5"/><rect class="a" x="140" y="23" width="11.67" height="11.5"/><rect class="a" x="128.33" y="23" width="11.67" height="11.5"/><rect class="a" x="175" y="11.5" width="11.67" height="11.5"/><rect class="a" x="163.33" y="11.5" width="11.67" height="11.5"/><rect class="a" x="151.67" y="11.5" width="11.67" height="11.5"/><rect class="a" x="140" y="11.5" width="11.67" height="11.5"/><rect class="a" x="163.33" width="11.67" height="11.5"/><rect class="a" x="151.67" width="11.67" height="11.5"/></svg>