<svg id="Lag_1" data-name="Lag 1" xmlns="http://www.w3.org/2000/svg" viewBox="0 0 621.8 631.49">
  <defs>
    <style>
      .cls-1 {
        fill: #4ba2aa;
      }

      .cls-2 {
        fill: #fcfafa;
      }

      .cls-3 {
        fill: #ff1515;
      }

      .cls-4 {
        fill: none;
        stroke: #000;
        stroke-miterlimit: 10;
      }
    </style>
  </defs>
  <title>pointFinger</title>
  <g>
    <g>
    <!-- color of the svg -->
      <path class="cls-1" d="M1313.89,462.06c3.8-.54,7.78,1.75,10.07,4.94,2.57,3.58,3.5,8.05,4.37,12.37,1.37,6.85,2.65,14.36-.71,20.48a19.81,19.81,0,0,1-3.53,4.53l1.09.36c8.94-2.58,16.92,8.53,15.17,17.67s-9.3,15.87-16.4,21.88c-14.41,12.17-28.86,24.38-44.75,34.54-40.75,26.06-88.63,37.34-136.53,46-8.4,1.52-16.81,3-25.17,4.4l-.1-1a177.83,177.83,0,0,1-52.1-21c-5.63-3.38-11.16-7.16-15.29-12.26l-.37-.8a120.42,120.42,0,0,0,14.15-9.9c25.5-20.68,41.75-50.69,50.77-81.32,5.08-17.24,8.69-35.89,21.63-49.13,19.79-20.25,53.38-20.53,82.81-19.29l1.4,1.32A458.14,458.14,0,0,0,1281,355.36c3.4-5.75,6.72-11.64,11.32-16.5a47.47,47.47,0,0,1,11.23-8.63c12.35-7,27.93-8.86,40.89-3.1S1366.73,347,1365.11,361c-1.81,15.68-15.33,27-27.85,36.65q-27.46,21.13-55,42.18a190.63,190.63,0,0,1,28.87.69c4.82.48,10.86,2.35,11.23,7.19a9.72,9.72,0,0,1-1.81,5.55A55.19,55.19,0,0,1,1313.89,462.06Z" transform="translate(-744 -323.23)"/>
      <path class="cls-2" d="M1132.51,639.34c-9.09,11.54-20.32,21.19-34.42,20.69-6.92-.25-13.46-3-19.82-5.8-4.23-1.84-8.48-3.69-12.71-5.61-7.11-3.22-14.15-6.63-20.89-10.46-10.26-5.83-19.81-12.63-27.85-21.25a4.71,4.71,0,0,1-1.28-2c-.31-1.36.62-2.66,1.49-3.75,2.55-3.18,5.12-6.37,7.83-9.41a71.48,71.48,0,0,1,11.9-11c7.75-5.48,17.57-8.76,26.83-6.67l.2.24a120.42,120.42,0,0,1-14.15,9.9l.37.8c4.13,5.1,9.66,8.88,15.29,12.26a177.83,177.83,0,0,0,52.1,21l.1,1c8.36-1.43,16.77-2.88,25.17-4.4l-1.21,1.76C1138.73,630.86,1135.76,635.22,1132.51,639.34Z" transform="translate(-744 -323.23)"/>
      <path class="cls-3" d="M1139.5,641.5c4.41,3,2.3,13.52,2,15-6.26,31.21-30,53-30,53-56.1,51.48-46.59,71.15-216.92,206.93-6.46,5.15-30.17,20-63.08,32.07-71,26-87-45-87-45s4-60,45-89,142-136,142-136,36-53,93.36-76.75c-2.71,3-5.28,6.23-7.83,9.41-.87,1.09-1.8,2.39-1.49,3.75a4.71,4.71,0,0,0,1.28,2c8,8.62,17.59,15.42,27.85,21.25l-.67,1.18C924.93,780.43,862.55,831.46,827.52,848.07c-4.75,2.26-30.53,14.09-29.49,17.79,1.35,4.76,46.44-6.86,50.82-8,29.77-7.67,100.18-39,216.47-208.73l.24-.52c4.23,1.92,8.48,3.77,12.71,5.61,6.36,2.75,12.9,5.55,19.82,5.8,14.1.5,25.33-9.15,34.42-20.69C1138.88,641.08,1139.5,641.5,1139.5,641.5Z" transform="translate(-744 -323.23)"/>
      <path class="cls-2" d="M1065.56,648.62l-.24.52C949,818.84,878.62,850.2,848.85,857.87c-4.38,1.13-49.47,12.75-50.82,8-1-3.7,24.74-15.53,29.49-17.79,35-16.61,97.41-67.64,216.48-208.73l.67-1.18C1051.41,642,1058.45,645.4,1065.56,648.62Z" transform="translate(-744 -323.23)"/>
    </g>

    <g>
    <!-- Black lines in the svg -->
      <path class="cls-4" d="M1044,639.34C924.93,780.43,862.55,831.46,827.52,848.07c-4.75,2.26-30.53,14.09-29.49,17.79,1.35,4.76,46.44-6.86,50.82-8,29.77-7.67,100.18-39,216.47-208.73" transform="translate(-744 -323.23)"/>
      <path class="cls-4" d="M1063.59,584.11c-9.26-2.09-19.08,1.19-26.83,6.67a71.48,71.48,0,0,0-11.9,11c-2.71,3-5.28,6.23-7.83,9.41-.87,1.09-1.8,2.39-1.49,3.75a4.71,4.71,0,0,0,1.28,2c8,8.62,17.59,15.42,27.85,21.25,6.74,3.83,13.78,7.24,20.89,10.46,4.23,1.92,8.48,3.77,12.71,5.61,6.36,2.75,12.9,5.55,19.82,5.8,14.1.5,25.33-9.15,34.42-20.69,3.25-4.12,6.22-8.48,9-12.71l1.21-1.76" transform="translate(-744 -323.23)"/>
      <path class="cls-4" d="M1171.09,481.26a456,456,0,0,0,49.31-45.33A458.14,458.14,0,0,0,1281,355.36c3.4-5.75,6.72-11.64,11.32-16.5a47.47,47.47,0,0,1,11.23-8.63c12.35-7,27.93-8.86,40.89-3.1S1366.73,347,1365.11,361c-1.81,15.68-15.33,27-27.85,36.65q-27.46,21.13-55,42.18-27.84,21.28-55.72,42.51" transform="translate(-744 -323.23)"/>
      <path class="cls-4" d="M1313.87,462.07a144.6,144.6,0,0,1-12.94,12l-45.37,38.83" transform="translate(-744 -323.23)"/>
      <path class="cls-4" d="M1280.47,440l1.8-.1a190.63,190.63,0,0,1,28.87.69c4.82.48,10.86,2.35,11.23,7.19a9.72,9.72,0,0,1-1.81,5.55,55.19,55.19,0,0,1-6.67,8.76" transform="translate(-744 -323.23)"/>
      <path class="cls-4" d="M1312.51,462.39a7.25,7.25,0,0,1,1.36-.32h0c3.8-.54,7.78,1.75,10.07,4.94,2.57,3.58,3.5,8.05,4.37,12.37,1.37,6.85,2.65,14.36-.71,20.48a19.81,19.81,0,0,1-3.53,4.53c-1.38,1.36-2.89,2.6-4.39,3.82l-31.8,25.85" transform="translate(-744 -323.23)"/>
      <path class="cls-4" d="M1325.18,504.74c8.94-2.58,16.92,8.53,15.17,17.67s-9.3,15.87-16.4,21.88c-14.41,12.17-28.86,24.38-44.75,34.54-40.75,26.06-88.63,37.34-136.53,46-8.4,1.52-16.81,3-25.17,4.4" transform="translate(-744 -323.23)"/>
      <path class="cls-4" d="M1169.14,479.52a43.29,43.29,0,0,0-18.88,1.75" transform="translate(-744 -323.23)"/>
      <path class="cls-4" d="M1172.9,477.37a23.39,23.39,0,0,1-22.87-11" transform="translate(-744 -323.23)"/>
      <path class="cls-4" d="M1049.64,594.25a120.42,120.42,0,0,0,14.15-9.9c25.5-20.68,41.75-50.69,50.77-81.32,5.08-17.24,8.69-35.89,21.63-49.13,19.79-20.25,53.38-20.53,82.81-19.29" transform="translate(-744 -323.23)"/>
      <path class="cls-4" d="M1050,595.05c4.13,5.1,9.66,8.88,15.29,12.26a177.83,177.83,0,0,0,52.1,21" transform="translate(-744 -323.23)"/>
      <path class="cls-4" d="M1024.86,601.75C967.5,625.5,931.5,678.5,931.5,678.5s-101,107-142,136-45,89-45,89,16,71,87,45c32.91-12,56.62-26.92,63.08-32.07C1064.91,780.65,1055.4,761,1111.5,709.5c0,0,23.74-21.79,30-53,.3-1.48,2.41-12-2-15,0,0-.62-.42-7-2.16h0" transform="translate(-744 -323.23)"/>
      <path class="cls-4" d="M1105.78,626a86.25,86.25,0,0,0-10.58,21.43" transform="translate(-744 -323.23)"/>
      <path class="cls-4" d="M1085.48,619.4A76.53,76.53,0,0,0,1069.84,638" transform="translate(-744 -323.23)"/>
      <path class="cls-4" d="M1064.89,610.34c-3.2-.89-6.48,1-9.05,3.14a46.77,46.77,0,0,0-12.15,15.12" transform="translate(-744 -323.23)"/>
      <path class="cls-4" d="M1047.67,596.68c-2.69-1.09-5.86-.26-8.23,1.42a26.25,26.25,0,0,0-5.8,6.44l-11,15.32" transform="translate(-744 -323.23)"/>
      <path class="cls-4" d="M1119.48,631.75a19.71,19.71,0,0,1-8.36,19.68" transform="translate(-744 -323.23)"/>
    </g>
  </g>
</svg>
